<?xml version="1.0" encoding="utf-8"?>
<!-- Generator: Adobe Illustrator 27.6.1, SVG Export Plug-In . SVG Version: 6.00 Build 0)  -->
<svg version="1.1" id="Layer_1" xmlns="http://www.w3.org/2000/svg" xmlns:xlink="http://www.w3.org/1999/xlink" x="0px" y="0px"
	 viewBox="0 0 8192 5425.9" style="enable-background:new 0 0 8192 5425.9;" xml:space="preserve">
<style type="text/css">
	.st0{clip-path:url(#SVGID_00000058551616832931161220000010651948279270514825_);}
	.st1{fill:url(#SVGID_00000111186519273986314710000002938172003842190520_);}
	.st2{fill:url(#SVGID_00000042710984513583943460000015498572855940711566_);}
	.st3{fill:url(#SVGID_00000093136060633037157340000016771019903442223488_);}
	.st4{fill:url(#SVGID_00000134233905184337598020000017894117106286885283_);}
	.st5{fill:url(#SVGID_00000150781054438959737600000015778175757987624084_);}
	.st6{fill:url(#SVGID_00000124860061288820307750000011746922296217260694_);}
	.st7{fill:url(#SVGID_00000083785279037756958960000013029304090762297733_);}
	.st8{fill:url(#SVGID_00000000195133348303700090000002412669245970171032_);}
	.st9{fill:url(#SVGID_00000124154887088342495480000013479565997746151325_);}
	.st10{fill:url(#SVGID_00000088134169234109783110000015086348328130311312_);}
	.st11{fill:url(#SVGID_00000120522753039474402080000018057411341858749591_);}
	.st12{fill:url(#SVGID_00000070800832501799696810000011423593501173493408_);}
	.st13{fill:url(#SVGID_00000173145036098617117880000012481432313596072859_);}
</style>
<g id="OBJECTS">
	<g>
		<g>
			<defs>
				<rect id="SVGID_1_" x="36.3" width="8138.9" height="5425.9"/>
			</defs>
			<clipPath id="SVGID_00000049204739348574739710000000755701814275788432_">
				<use xlink:href="#SVGID_1_"  style="overflow:visible;"/>
			</clipPath>
			<g style="clip-path:url(#SVGID_00000049204739348574739710000000755701814275788432_);">
				
					<linearGradient id="SVGID_00000046341123919210659860000012465947455326937226_" gradientUnits="userSpaceOnUse" x1="9741.2607" y1="-3914.8037" x2="9403.0801" y2="-3655.417" gradientTransform="matrix(6.0998 0 0 6.0998 -57521.2734 24828.8691)">
					<stop  offset="0" style="stop-color:#FFFFFF"/>
					<stop  offset="1" style="stop-color:#D0D0D1"/>
				</linearGradient>
				<polygon style="fill:url(#SVGID_00000046341123919210659860000012465947455326937226_);" points="1289.7,439.5 2266.4,1416.2 
					1289.7,2392.9 313,1416.2 				"/>
				
					<linearGradient id="SVGID_00000019644238985159580200000010007098954121260974_" gradientUnits="userSpaceOnUse" x1="9830.3369" y1="-3577.5129" x2="9492.1738" y2="-3318.1267" gradientTransform="matrix(6.0998 0 0 6.0998 -57521.2773 24828.873)">
					<stop  offset="0" style="stop-color:#FFFFFF"/>
					<stop  offset="1" style="stop-color:#D0D0D1"/>
				</linearGradient>
				<polygon style="fill:url(#SVGID_00000019644238985159580200000010007098954121260974_);" points="1289.7,2913.7 2266.4,3890.4 
					1289.7,4867.1 313,3890.4 				"/>
				
					<linearGradient id="SVGID_00000093894235776839851130000010744623380491754416_" gradientUnits="userSpaceOnUse" x1="11844.4229" y1="-2598.5742" x2="11506.2588" y2="-2339.1875" gradientTransform="matrix(-6.0998 0 0 -6.0998 79266.2266 -14484.2129)">
					<stop  offset="0" style="stop-color:#FFFFFF"/>
					<stop  offset="1" style="stop-color:#D0D0D1"/>
				</linearGradient>
				<polygon style="fill:url(#SVGID_00000093894235776839851130000010744623380491754416_);" points="8169.8,1459.6 7193.1,482.9 
					8169.8,-493.7 9146.4,482.9 				"/>
				
					<linearGradient id="SVGID_00000131341977374927601610000015517247816688815263_" gradientUnits="userSpaceOnUse" x1="9749.7324" y1="-4093.2046" x2="8692.9727" y2="-3870.3242" gradientTransform="matrix(6.0998 0 0 6.0998 -57521.293 24828.8359)">
					<stop  offset="0" style="stop-color:#0B5721"/>
					<stop  offset="0.73" style="stop-color:#3EA52A"/>
					<stop  offset="1" style="stop-color:#6CBB24"/>
				</linearGradient>
				<path style="fill:url(#SVGID_00000131341977374927601610000015517247816688815263_);" d="M237-2262.6l-2485,2485l2485,2485
					l2485-2485L237-2262.6z M-1775.9,222.5l2013-2013l2013,2013l-2013,2013L-1775.9,222.5z"/>
				
					<linearGradient id="SVGID_00000168087891312944818060000003319738831535192731_" gradientUnits="userSpaceOnUse" x1="11119.6045" y1="-4050.5151" x2="10062.8447" y2="-3827.6348" gradientTransform="matrix(6.0998 0 0 6.0998 -57521.293 24828.8359)">
					<stop  offset="0" style="stop-color:#0B5721"/>
					<stop  offset="0.73" style="stop-color:#3EA52A"/>
					<stop  offset="1" style="stop-color:#6CBB24"/>
				</linearGradient>
				<path style="fill:url(#SVGID_00000168087891312944818060000003319738831535192731_);" d="M8592.9-2002.2l-2485,2485l2485,2485
					l2485-2485L8592.9-2002.2z M6580,482.9l2013-2013l2013,2013L8593,2496L6580,482.9z"/>
				
					<linearGradient id="SVGID_00000054966266894975280230000011775945571955021475_" gradientUnits="userSpaceOnUse" x1="9913.1924" y1="-3318.21" x2="8856.4326" y2="-3095.3293" gradientTransform="matrix(6.0998 0 0 6.0998 -57521.293 24828.8359)">
					<stop  offset="0" style="stop-color:#0B5721"/>
					<stop  offset="0.73" style="stop-color:#3EA52A"/>
					<stop  offset="1" style="stop-color:#6CBB24"/>
				</linearGradient>
				<path style="fill:url(#SVGID_00000054966266894975280230000011775945571955021475_);" d="M237,2675l-2485,2485l2485,2485
					l2485-2485L237,2675z M-1775.9,5160l2013-2013l2013,2013l-2013,2013L-1775.9,5160z"/>
				
					<linearGradient id="SVGID_00000044140888429938821280000016838188550987317122_" gradientUnits="userSpaceOnUse" x1="10667.9023" y1="-3101.6179" x2="9064.3135" y2="-2763.4011" gradientTransform="matrix(6.0998 0 0 6.0998 -57521.293 24828.8359)">
					<stop  offset="0" style="stop-color:#0B5721"/>
					<stop  offset="0.73" style="stop-color:#3EA52A"/>
					<stop  offset="1" style="stop-color:#6CBB24"/>
				</linearGradient>
				<path style="fill:url(#SVGID_00000044140888429938821280000016838188550987317122_);" d="M3438.3,3006l-3771,3771l3771,3771
					l3771-3771L3438.3,3006z M383.7,6777l3054.7-3054.7L6493.1,6777L3438.4,9831.7L383.7,6777z"/>
				
					<linearGradient id="SVGID_00000103962199679482686350000009286445010377905061_" gradientUnits="userSpaceOnUse" x1="9391.9629" y1="-3616.9719" x2="9835.8018" y2="-3770.6824" gradientTransform="matrix(6.0998 0 0 6.0998 -57521.293 24828.8359)">
					<stop  offset="0.18" style="stop-color:#F77F57"/>
					<stop  offset="0.21" style="stop-color:#F78457"/>
					<stop  offset="0.44" style="stop-color:#FAA75B"/>
					<stop  offset="0.65" style="stop-color:#FDC05E"/>
					<stop  offset="0.84" style="stop-color:#FECF60"/>
					<stop  offset="1" style="stop-color:#FFD561"/>
				</linearGradient>
				<path style="fill:url(#SVGID_00000103962199679482686350000009286445010377905061_);" d="M30.9,189.9l-2485,2485l2485,2485
					l2485-2485L30.9,189.9z M-2155.8,2675L30.9,488.3L2217.5,2675L30.9,4861.6L-2155.8,2675z"/>
				
					<linearGradient id="SVGID_00000155115806373771824330000002196557891532094868_" gradientUnits="userSpaceOnUse" x1="12688.0225" y1="-2553.2512" x2="11711.9609" y2="-2426.4404" gradientTransform="matrix(-6.0998 0 0 -6.0998 80168.9609 -12690.8906)">
					<stop  offset="0.18" style="stop-color:#F77F57"/>
					<stop  offset="0.42" style="stop-color:#F99459"/>
					<stop  offset="0.92" style="stop-color:#FECC5F"/>
					<stop  offset="1" style="stop-color:#FFD561"/>
				</linearGradient>
				<path style="fill:url(#SVGID_00000155115806373771824330000002196557891532094868_);" d="M8972.8,4563.2l2485-2485l-2485-2485
					l-2485,2485L8972.8,4563.2z M11159.4,2078.1L8972.8,4264.8L6786.1,2078.1L8972.8-108.5L11159.4,2078.1z"/>
				
					<linearGradient id="SVGID_00000167391172254447679520000013443469672171918729_" gradientUnits="userSpaceOnUse" x1="10502.1846" y1="-3371.6038" x2="9526.1221" y2="-3244.7925" gradientTransform="matrix(6.0998 0 0 6.0998 -57521.293 24828.8359)">
					<stop  offset="0.18" style="stop-color:#F77F57"/>
					<stop  offset="0.42" style="stop-color:#F99459"/>
					<stop  offset="0.92" style="stop-color:#FECC5F"/>
					<stop  offset="1" style="stop-color:#FFD561"/>
				</linearGradient>
				<path style="fill:url(#SVGID_00000167391172254447679520000013443469672171918729_);" d="M2222.9,3418.3L817.6,4823.6
					L2222.9,6229l1405.3-1405.3L2222.9,3418.3z M1084.5,4823.6l1138.3-1138.3l1138.3,1138.3L2222.9,5962L1084.5,4823.6
					L1084.5,4823.6z"/>
				
					<linearGradient id="SVGID_00000013887245658493576400000000819207835693778849_" gradientUnits="userSpaceOnUse" x1="11025.2275" y1="-3218.604" x2="10049.165" y2="-3091.793" gradientTransform="matrix(6.0998 0 0 6.0998 -57521.293 24828.8359)">
					<stop  offset="0.18" style="stop-color:#F77F57"/>
					<stop  offset="0.42" style="stop-color:#F99459"/>
					<stop  offset="0.92" style="stop-color:#FECC5F"/>
					<stop  offset="1" style="stop-color:#FFD561"/>
				</linearGradient>
				<path style="fill:url(#SVGID_00000013887245658493576400000000819207835693778849_);" d="M5413.4,4351.6L4008,5756.9
					l1405.3,1405.3l1405.3-1405.3L5413.4,4351.6z M4275,5756.9l1138.3-1138.3l1138.3,1138.3L5413.4,6895.2L4275,5756.9z"/>
				
					<linearGradient id="SVGID_00000135662521479485641640000011736095225530876845_" gradientUnits="userSpaceOnUse" x1="9620.2227" y1="-3888.0339" x2="10077.5117" y2="-4158.9492" gradientTransform="matrix(6.0998 0 0 6.0998 -57521.293 24828.8359)">
					<stop  offset="0.18" style="stop-color:#F77F57"/>
					<stop  offset="0.42" style="stop-color:#F99459"/>
					<stop  offset="0.92" style="stop-color:#FECC5F"/>
					<stop  offset="1" style="stop-color:#FFD561"/>
				</linearGradient>
				<path style="fill:url(#SVGID_00000135662521479485641640000011736095225530876845_);" d="M2222.9-922.4L817.6,482.9
					l1405.3,1405.3L3628.3,482.9L2222.9-922.4z M1084.5,482.9L2222.9-655.4L3361.3,482.9L2222.9,1621.3L1084.5,482.9L1084.5,482.9z"
					/>
				
					<linearGradient id="SVGID_00000102508044300375668580000006464502900661380260_" gradientUnits="userSpaceOnUse" x1="9236.9199" y1="-3496.2432" x2="9596.2178" y2="-3742.1802" gradientTransform="matrix(6.0998 0 0 6.0998 -57521.2578 24828.8633)">
					<stop  offset="0.18" style="stop-color:#F77F57"/>
					<stop  offset="0.42" style="stop-color:#F99459"/>
					<stop  offset="0.92" style="stop-color:#FECC5F"/>
					<stop  offset="1" style="stop-color:#FFD561"/>
				</linearGradient>
				<polygon style="fill:url(#SVGID_00000102508044300375668580000006464502900661380260_);" points="30.9,1698.4 1007.6,2675 
					30.9,3651.7 -945.8,2675 				"/>
			</g>
		</g>
	</g>
</g>
</svg>
