<?xml version="1.0" encoding="UTF-8"?>
<svg xmlns="http://www.w3.org/2000/svg" width="811.88" height="702.51" viewBox="0 0 811.88 702.51">
  <g id="Background_Complete" data-name="Background Complete">
    <g>
      <rect x="56.19" y="36.83" width="85.46" height="141.45" style="fill: #e0e0e0;"/>
      <rect x="53.35" y="36.83" width="85.46" height="141.45" style="fill: #ebebeb;"/>
      <rect x="56.99" y="39.7" width="78.18" height="135.72" style="fill: #fff;"/>
      <g>
        <rect x="71.87" y="57.34" width="48.07" height="100.45" style="fill: #ebebeb;"/>
        <path d="m71.87,122.24c-.11-9.38,8.33-18.54,17.62-19.85,4.43-.62,9.14.25,13.28-1.44,7.39-3.03,9.74-12.85,17.18-15.76l.34,72.6h-48.41v-35.54Z" style="fill: #e0e0e0;"/>
      </g>
    </g>
    <g>
      <polygon points="776.55 55.45 776.55 123.28 679.13 123.28 675.62 55.93 776.55 55.45" style="fill: #e0e0e0;"/>
      <g>
        <rect x="690.73" y="40.82" width="67.21" height="97.42" transform="translate(634.8 813.87) rotate(-90)" style="fill: #fff;"/>
        <path d="m773.51,123.6h-98.35V55.46h98.35v68.14Zm-97.42-.92h96.5V56.39h-96.5v66.29Z" style="fill: #e0e0e0;"/>
      </g>
      <g>
        <rect x="686.17" y="64.28" width="76.32" height="50.51" style="fill: #fff;"/>
        <path d="m762.49,64.28s-.13,0-.38.01c-.26,0-.62,0-1.09.01-.97,0-2.37.02-4.19.03-3.67.01-9,.03-15.73.06-13.46.03-32.51.06-54.94.11l.22-.22c0,15.43.01,32.53.02,50.5h0s-.24-.23-.24-.23c28.79.02,55.33.04,76.32.05l-.19.19c.04-15.37.08-27.97.1-36.75.02-4.39.04-7.81.05-10.16,0-1.16.02-2.05.02-2.67,0-.61.02-.93.02-.93,0,0,.01.29.02.89,0,.61.01,1.49.02,2.63.01,2.34.03,5.75.05,10.12.02,8.8.06,21.45.1,36.87v.19s-.19,0-.19,0c-20.99.01-47.53.03-76.32.05h-.24s0-.24,0-.24h0c0-17.98.01-35.08.02-50.51v-.22s.22,0,.22,0c22.49.04,41.59.08,55.08.11,6.71.03,12.02.05,15.68.06,1.8.01,3.19.02,4.15.03.46,0,.81,0,1.06.01.24,0,.35.01.35.01Z" style="fill: #e0e0e0;"/>
      </g>
      <path d="m675.62,55.74c.04-.05.68.37,1.67,1.08,1,.72,2.35,1.74,3.82,2.91,1.47,1.17,2.75,2.28,3.66,3.11.91.83,1.44,1.38,1.4,1.43-.09.1-2.43-1.83-5.36-4.17-2.93-2.33-5.28-4.26-5.19-4.37Z" style="fill: #e0e0e0;"/>
      <path d="m773.04,55.93c.08.1-2.21,2.06-5.13,4.36-2.91,2.31-5.34,4.09-5.43,3.99-.08-.1,2.21-2.06,5.13-4.36,2.91-2.31,5.34-4.09,5.42-3.99Z" style="fill: #e0e0e0;"/>
      <g>
        <path d="m772.97,123.15c-3.62-2.93-7.24-5.87-10.86-8.8" style="fill: #fff;"/>
        <path d="m762.1,114.34c.08-.1,2.58,1.78,5.58,4.21,3,2.43,5.36,4.49,5.28,4.59-.08.1-2.58-1.78-5.58-4.22-3-2.43-5.36-4.49-5.28-4.59Z" style="fill: #e0e0e0;"/>
      </g>
      <path d="m675.62,123.14c-.08-.1,2.19-2.04,5.07-4.32,2.88-2.28,5.29-4.05,5.37-3.94.08.1-2.19,2.04-5.07,4.32-2.88,2.28-5.29,4.05-5.37,3.94Z" style="fill: #e0e0e0;"/>
      <rect x="717.22" y="64.46" width="16.91" height="48.02" transform="translate(637.21 814.15) rotate(-90)" style="fill: #e0e0e0;"/>
    </g>
    <g>
      <g>
        <path d="m696.48,342.37c-4.56-2.86-9.78-4.66-15.13-5.21-2.47-.25-5.17-.18-7.16,1.32-.42.32-.83.79-.74,1.31.07.38.39.66.7.89,6.16,4.7,15.47,5.29,22.32,1.69" style="fill: #e0e0e0;"/>
        <path d="m696.09,341.94c-3.42-2.67-6.87-5.36-9.77-8.6-2.9-3.23-5.26-7.07-6.13-11.33-.26-1.29-.34-2.77.48-3.79,7.79,6.08,13.91,13.95,15.41,23.72" style="fill: #e0e0e0;"/>
        <path d="m696.4,342.31c-.59-4.26-.8-8.64.18-12.83.98-4.19,3.26-8.2,6.83-10.59,1.35,3.15.77,6.77-.18,10.06-1.47,5.08-3.76,9.92-6.78,14.27" style="fill: #e0e0e0;"/>
        <path d="m704.03,355.99c-4.64.56-8.67,3.01-12.13,6.14-3.46,3.13-5.92,7.36-6.94,11.91,4.55-.28,8.4-3.49,11.2-7.08,2.8-3.59,4.74-7.54,7.81-10.9" style="fill: #e0e0e0;"/>
        <path d="m705.69,358.18c-3.73-9.2-2.38-20.28,3.46-28.31,2.64,9.39,1.67,20-3.46,28.31" style="fill: #e0e0e0;"/>
        <path d="m715.78,370.19c-4.21-.26-8.48.74-12.14,2.84-3.65,2.1-6.67,5.3-8.55,9.07-.26.51-.48,1.16-.14,1.62.3.4.88.44,1.37.4,4.08-.26,7.69-2.72,10.67-5.51,2.98-2.79,5.58-6.02,8.88-8.44" style="fill: #e0e0e0;"/>
        <path d="m715.46,369.54c-2.17-6.94-2.3-14.51-.38-21.53.76-2.77,2.03-5.69,4.59-6.99.22-.11.47-.21.7-.12.22.08.34.31.44.51.91,1.9,1.18,4.07,1.08,6.18-.09,2.11-.53,4.19-.97,6.25-.81,3.82-1.24,7.93-3.33,11.22-.5.78-.94,1.63-1.33,2.46-.4.84-.4,1.13-.76,1.8" style="fill: #e0e0e0;"/>
        <path d="m742.16,373.51c-1.98-7.53.12-16.65,4.86-22.82.35-.45.81-.94,1.38-.89.87.08,1.1,1.24,1.06,2.12-.34,7.69-2.91,15.27-7.31,21.59" style="fill: #e0e0e0;"/>
        <path d="m744.57,375.16c9.14,2.38,19.63.07,27.24-5.54-4.51-2.28-9.82-2.94-14.75-1.81-4.93,1.13-9.43,3.33-12.49,7.35" style="fill: #e0e0e0;"/>
        <path d="m746.6,370.15c5.12-8.35,14.94-13.8,24.72-14.29-1.13,3.98-4.4,7.07-8.09,8.94s-7.81,2.68-11.87,3.47c-1.58.31-3.75.64-4.77,1.88" style="fill: #e0e0e0;"/>
        <path d="m742.67,345.83c1.39-4.75,2.78-9.54,3.16-14.48.38-4.93-.32-10.09-2.88-14.32-4.78,9.26-5.27,20.07-.42,29.3" style="fill: #e0e0e0;"/>
        <path d="m758.78,337.69c5.59-10.17,17.01-18.29,28.56-19.43-4.45,11.09-16.6,19.66-28.56,19.43" style="fill: #e0e0e0;"/>
        <path d="m755.26,339.69c8.34,1.27,15.45,6.6,23.25,9.83,1.67.69,3.47,1.24,5.26,1.01,1.79-.23,3.56-1.44,3.96-3.19.33-1.46-.33-3.01-1.38-4.08-1.05-1.07-2.43-1.74-3.82-2.32-8.49-3.54-17.6-3.62-26.54-1.48" style="fill: #e0e0e0;"/>
        <path d="m750.43,345.54c1.89.54,2.53,1.52,4.03,2.79,5.07,4.32,11.16,7.45,17.63,9.06.67.17,1.56.23,1.89-.37.29-.53-.08-1.17-.46-1.65-2.71-3.39-6.58-5.71-10.64-7.23-4.07-1.52-7.59-3.34-12.45-2.95" style="fill: #e0e0e0;"/>
        <path d="m744.98,310.2c6.78,6.33,16.34,9.58,25.58,8.7.42-.04.88-.11,1.16-.42.64-.7-.13-1.78-.88-2.37-7.52-5.86-16.63-8.29-25.86-5.92" style="fill: #e0e0e0;"/>
        <path d="m751.44,307.83c8.97-6.72,21.26-8.75,31.92-5.27-4.02,3.96-9.6,6.09-15.21,6.68-5.61.58-11.23-.04-16.71-1.41" style="fill: #e0e0e0;"/>
        <path d="m748.87,291.59c-.74-7.51-.26-13.43-.78-20.97-.04-.6-.17-1.33-.73-1.54-.78-.3-1.44.66-1.7,1.46-2.23,6.95-1.01,14.92,3.2,20.89" style="fill: #e0e0e0;"/>
        <path d="m748.33,292.42c5.09-3.15,8.9-7.26,12.43-12.08,2.46-3.36,4.53-7.39,3.97-11.51-3.45-.07-6.73,1.83-8.97,4.45-2.24,2.62-3.58,5.9-4.57,9.2-1,3.3-1.69,6.7-2.86,9.94" style="fill: #e0e0e0;"/>
        <path d="m760.55,289.03c11.16-4.13,21.58-10.27,30.6-18.04-3.66-1.47-7.84-.59-11.49.88-8.35,3.37-15.17,9.06-19.26,17.08" style="fill: #e0e0e0;"/>
        <path d="m751.77,296.53c5.65.62,11.39,1.02,16.99.08,5.51-.92,10.71-3.1,15.86-5.27.43-.18.89-.39,1.08-.82.2-.46-.01-1.02-.39-1.36-.37-.34-.87-.5-1.35-.63-5.6-1.57-11.64-.83-17.14,1.02-5.51,1.86-10.02,4.06-15.05,6.97" style="fill: #e0e0e0;"/>
        <path d="m719.52,310.45c-3.85-7.78-3.6-16.86-.27-24.87,2.34,3.57,2.63,8.12,2.2,12.37-.43,4.25-1.72,8.62-1.81,12.89" style="fill: #e0e0e0;"/>
        <path d="m704.12,302.69c-9.62-.18-19.25,3.92-25.78,10.98,4.8.75,9.75-.48,14.12-2.62,4.37-2.13,8.25-5.13,12.1-8.1" style="fill: #e0e0e0;"/>
        <path d="m693.77,299.23c-4.71-.38-9.24-.96-13.76.42-4.53,1.39-8.64,4.53-10.49,8.89,4.4.5,8.87-.61,12.9-2.44,4.04-1.83,7.7-4.36,11.35-6.88" style="fill: #e0e0e0;"/>
        <path d="m709.09,299.39c-4.23-2.77-8.58-5.6-13.51-6.75-4.93-1.15-10.64-.3-14.08,3.42,3.99,2.34,8.83,2.62,13.46,2.62,4.63,0,10.3-.06,14.66,1.49" style="fill: #e0e0e0;"/>
        <path d="m709.12,299.61c-7.24-7.11-9.98-19.88-7.07-29.6,5.69,8.65,8.24,19.31,7.07,29.6" style="fill: #e0e0e0;"/>
        <path d="m729.03,279.47c1.37-3.17,2.33-6.51,3.55-9.74,1.22-3.23,2.75-6.41,5.06-8.98,2.31-2.57,5.51-4.48,8.97-4.65-2.16,9.78-8.66,18.52-17.4,23.41" style="fill: #e0e0e0;"/>
        <path d="m725.42,283.66c-2.26-3.11-4.87-7.33-7.93-9.65-3.06-2.32-7.05-3.73-10.79-2.83,3.8,6.8,10.99,11.59,18.73,12.49" style="fill: #e0e0e0;"/>
        <path d="m726.14,279.73c-1.48-3.76-2.97-7.57-3.57-11.57-.6-4-.23-8.27,1.81-11.76,3.97,7.51,5.25,15.58,1.96,23.41" style="fill: #e0e0e0;"/>
        <path d="m729.06,256.4c2.25-7.45,9.07-12.93,16.43-15.45.93-.32,1.91-.58,2.88-.43.97.15,1.92.81,2.12,1.77.27,1.27-.78,2.4-1.76,3.24-5.73,4.9-12.47,8.62-19.67,10.86" style="fill: #e0e0e0;"/>
        <path d="m729.14,250.31c.29-4.8.59-9.67,2.15-14.22s4.57-8.82,8.95-10.81c.74,4.85-1.39,9.67-3.97,13.85-2.58,4.17-5.69,8.11-7.24,12.77" style="fill: #e0e0e0;"/>
        <path d="m729.03,253.62c-1.86-5.43-2.05-12.32-5.3-17.05-2.27-3.3-5.91-5.56-7.87-9.06-1.3,3.27-.9,7.04.46,10.28,1.36,3.24,3.61,6.04,6.01,8.61,2.4,2.57,4.46,4.5,6.7,7.22" style="fill: #e0e0e0;"/>
        <path d="m729.06,413.43c-.14,0-.27-36.2-.28-80.85,0-44.66.1-80.86.24-80.86s.27,36.19.28,80.86c.01,44.65-.1,80.85-.24,80.85Z" style="fill: #e0e0e0;"/>
        <path d="m760.7,304.99s-.48.22-1.36.51c-.98.33-2.24.75-3.75,1.26-3.16,1.08-7.5,2.63-12.21,4.56-4.66,2-9.06,3.62-11.56,5.79-1.25,1.07-1.97,2.23-2.32,3.07-.36.85-.42,1.37-.47,1.36-.02,0-.01-.13.02-.38.04-.24.1-.61.27-1.05.31-.89,1-2.13,2.27-3.28,1.26-1.15,3.01-2.18,5.02-3.12,2.01-.94,4.23-1.91,6.59-2.88,4.72-1.94,9.1-3.44,12.29-4.43,1.6-.5,2.9-.86,3.8-1.11.9-.24,1.41-.35,1.42-.32Z" style="fill: #e0e0e0;"/>
        <path d="m771.07,279.52s-.12.15-.38.41c-.31.29-.69.65-1.16,1.09-1.08.98-2.55,2.31-4.34,3.94-3.74,3.33-8.82,7.86-14.43,12.85-5.63,5.02-10.5,9.81-13.88,13.42-1.69,1.8-3.02,3.29-3.93,4.34-.42.48-.77.88-1.05,1.2-.24.27-.38.41-.39.4-.01-.01.09-.17.31-.46.22-.29.54-.72.97-1.26.86-1.08,2.15-2.62,3.81-4.46,3.31-3.68,8.16-8.53,13.8-13.56,5.65-5,10.8-9.5,14.54-12.74,1.84-1.57,3.34-2.87,4.45-3.82.5-.41.9-.75,1.23-1.02.28-.23.44-.34.45-.33Z" style="fill: #e0e0e0;"/>
        <path d="m744.67,302.91c-.15-.07,1.03-2.78,2.2-6.22,1.18-3.44,1.74-6.34,1.89-6.31.14.01-.2,3-1.4,6.48-.59,1.74-1.24,3.27-1.75,4.35-.51,1.08-.88,1.73-.95,1.7Z" style="fill: #e0e0e0;"/>
        <path d="m729.1,324.82s-.34-.34-.87-1.01c-.59-.76-1.33-1.71-2.22-2.85-1.87-2.42-4.45-5.75-7.35-9.4-2.9-3.65-5.56-6.92-7.49-9.29-.91-1.13-1.67-2.07-2.27-2.81-.53-.67-.81-1.05-.78-1.07.03-.02.36.31.94.94.58.63,1.4,1.55,2.4,2.71,2,2.31,4.71,5.55,7.61,9.2,2.9,3.65,5.44,7.03,7.23,9.5.9,1.24,1.61,2.25,2.09,2.95.48.71.73,1.11.7,1.13Z" style="fill: #e0e0e0;"/>
        <path d="m722.16,315.92c-.09.09-1.94-2.1-2.91-5.44-.72-2.35-.75-4.5-.66-5.49l.23.02c-.1.42-.18.64-.22.63-.04,0-.04-.24,0-.67l.23.02c.08.98.23,3.05.93,5.34.94,3.23,2.54,5.5,2.4,5.59Z" style="fill: #e0e0e0;"/>
        <path d="m713.2,304.65c-.07.07-.66-.68-2.03-1.18-1.36-.52-3.39-.64-5.63-.45-2.24.16-4.24.56-5.67.92-1.43.35-2.31.63-2.33.56-.02-.06.81-.47,2.23-.92,1.42-.45,3.45-.91,5.73-1.08,2.26-.2,4.41-.02,5.81.63,1.42.63,1.94,1.51,1.89,1.52Z" style="fill: #e0e0e0;"/>
        <path d="m711.08,301.92c-.04.08-1.18-.47-3.11-1.13-1.92-.66-4.66-1.36-7.76-1.6-3.09-.23-5.91.04-7.91.4-2,.36-3.22.73-3.24.65-.01-.03.28-.16.82-.35.54-.2,1.34-.43,2.35-.66,2.01-.46,4.87-.8,8.02-.56,3.15.24,5.93,1.01,7.84,1.77.96.38,1.72.73,2.22,1.01.51.27.78.44.76.47Z" style="fill: #e0e0e0;"/>
        <path d="m729.03,290.38c-.14.04-1.16-3.49-2.27-7.87-1.11-4.39-1.9-7.97-1.76-8,.14-.04,1.15,3.49,2.27,7.88,1.11,4.38,1.9,7.97,1.76,8Z" style="fill: #e0e0e0;"/>
        <path d="m729.17,290.38c-.16.05-.81-2.31-2.51-4.71-1.66-2.46-3.78-3.69-3.7-3.82.03-.05.61.16,1.43.74.82.57,1.83,1.53,2.7,2.78,1.77,2.51,2.21,5.01,2.08,5.02Z" style="fill: #e0e0e0;"/>
        <path d="m729.06,394.14c-.06,0-.16-.87-.57-2.41-.4-1.54-1.16-3.72-2.42-6.27-2.5-5.11-7.05-11.59-12.84-18.08-2.87-3.27-5.65-6.36-8.01-9.32-2.36-2.95-4.31-5.77-5.72-8.26-1.42-2.49-2.35-4.62-2.89-6.13-.27-.76-.46-1.34-.57-1.75-.11-.41-.17-.62-.15-.63.05-.01.31.83.91,2.3.6,1.47,1.57,3.57,3.02,6.01,1.45,2.45,3.41,5.22,5.78,8.14,2.37,2.93,5.15,6,8.02,9.28,5.8,6.51,10.34,13.07,12.77,18.27,1.22,2.59,1.94,4.82,2.28,6.38.17.78.28,1.4.32,1.82.05.42.07.64.05.64Z" style="fill: #e0e0e0;"/>
        <path d="m757.65,361.85s-.53.32-1.5.84c-.96.54-2.32,1.37-3.89,2.57-1.56,1.2-3.31,2.77-5.1,4.66-1.79,1.89-3.64,4.09-5.52,6.44-3.77,4.72-7.29,8.91-9.4,12.24-1.07,1.66-1.85,3.05-2.36,4.03-.51.98-.79,1.53-.82,1.51-.02,0,.03-.15.14-.42.11-.27.26-.67.5-1.17.46-1.01,1.19-2.44,2.23-4.14,2.05-3.42,5.54-7.66,9.3-12.37,1.89-2.36,3.75-4.56,5.58-6.45,1.83-1.89,3.62-3.45,5.23-4.62,1.61-1.17,3.02-1.97,4.01-2.45.5-.25.9-.4,1.17-.52.27-.11.42-.16.42-.14Z" style="fill: #e0e0e0;"/>
        <path d="m758.21,372.32c0,.08-1.21.22-3.17.46-1.95.25-4.67.58-7.51,1.48-2.83.92-5.19,2.33-6.72,3.53-1.55,1.2-2.28,2.19-2.35,2.13-.03-.02.13-.29.47-.73.34-.44.89-1.04,1.65-1.69,1.51-1.3,3.89-2.79,6.8-3.74,2.91-.92,5.67-1.19,7.63-1.35,1.97-.14,3.2-.16,3.2-.09Z" style="fill: #e0e0e0;"/>
        <path d="m739.38,378.77c-.17-.09,1.26-2.27,2.37-5.21,1.04-2.96,1.28-5.55,1.47-5.52.07,0,.06.66-.05,1.7-.12,1.04-.37,2.48-.92,4-.55,1.52-1.28,2.79-1.84,3.67-.56.88-.97,1.39-1.02,1.36Z" style="fill: #e0e0e0;"/>
        <path d="m766.91,333.72s-.17.11-.51.27c-.39.18-.89.4-1.49.68-.65.28-1.44.63-2.33,1.1-.89.46-1.94.94-3.03,1.59-.55.31-1.13.64-1.73.98-.6.34-1.19.75-1.82,1.15-1.27.77-2.55,1.72-3.91,2.7-2.66,2.02-5.47,4.42-8.16,7.18-2.67,2.79-4.97,5.67-6.9,8.41-.92,1.39-1.83,2.7-2.56,4-.37.64-.76,1.25-1.09,1.86-.32.61-.63,1.2-.92,1.76-.62,1.11-1.05,2.17-1.49,3.08-.44.91-.77,1.71-1.02,2.37-.25.61-.46,1.11-.63,1.51-.15.34-.23.52-.25.52-.02,0,.04-.2.15-.55.14-.41.32-.92.53-1.55.23-.67.53-1.49.95-2.41.41-.93.83-2,1.42-3.13.29-.57.59-1.17.9-1.79.32-.62.7-1.23,1.07-1.89.72-1.32,1.62-2.64,2.54-4.06,1.92-2.77,4.23-5.68,6.92-8.5,2.72-2.79,5.55-5.19,8.25-7.2,1.38-.97,2.67-1.91,3.97-2.67.64-.39,1.24-.79,1.85-1.13.61-.33,1.19-.65,1.75-.96,1.1-.64,2.17-1.09,3.08-1.53.91-.45,1.71-.78,2.38-1.03.62-.24,1.13-.43,1.53-.59.35-.13.54-.19.55-.17Z" style="fill: #e0e0e0;"/>
        <path d="m744.28,348.88s.21-.89,1.24-1.85c1.01-.96,2.86-1.86,5.01-1.92,2.14-.06,4,.54,5.27,1.03,1.28.5,2.02.91,1.99.97-.03.07-.83-.21-2.12-.62-1.29-.39-3.1-.91-5.14-.86-2.03.06-3.77.84-4.79,1.68-1.04.83-1.4,1.62-1.49,1.57Z" style="fill: #e0e0e0;"/>
        <path d="m740.9,352.37c-.14-.08,1.13-1.95,1.42-4.63.33-2.68-.48-4.79-.32-4.83.06-.02.34.47.59,1.35.25.88.41,2.15.25,3.55-.16,1.39-.62,2.6-1.06,3.39-.44.8-.83,1.21-.88,1.18Z" style="fill: #e0e0e0;"/>
      </g>
      <path d="m704.06,399.32c.78,13.84,4.95,27.91,11.36,42.13h27.89c6.12-14.08,10-28.13,10.69-42.13h-49.93Z" style="fill: #e0e0e0;"/>
      <path d="m749.47,421.71c0,.14-9.18.26-20.51.26s-20.51-.12-20.51-.26,9.18-.26,20.51-.26,20.51.12,20.51.26Z" style="fill: #fafafa;"/>
      <path d="m748.85,426.72c0,.14-8.61.26-19.22.26s-19.22-.12-19.22-.26,8.61-.26,19.22-.26,19.22.12,19.22.26Z" style="fill: #fafafa;"/>
      <path d="m715.87,408.41c.14,0,.26,2.88.26,6.42s-.12,6.42-.26,6.42-.26-2.88-.26-6.42.12-6.42.26-6.42Z" style="fill: #fafafa;"/>
      <path d="m730.81,408.41c.14,0,.26,2.98.26,6.65s-.12,6.65-.26,6.65-.26-2.98-.26-6.65.12-6.65.26-6.65Z" style="fill: #fafafa;"/>
      <path d="m744.84,408.29c.14,0,.26,3.04.26,6.78s-.12,6.78-.26,6.78-.26-3.04-.26-6.78.12-6.78.26-6.78Z" style="fill: #fafafa;"/>
      <path d="m753.11,408.41c0,.14-10.77.26-24.05.26s-24.05-.12-24.05-.26,10.77-.26,24.05-.26,24.05.12,24.05.26Z" style="fill: #fafafa;"/>
    </g>
  </g>
  <g id="Floor">
    <path d="m777.61,447c0,.14-169.33.26-378.16.26s-378.2-.12-378.2-.26,169.29-.26,378.2-.26,378.16.12,378.16.26Z" style="fill: #263238;"/>
  </g>
  <g id="Speech_Bubble" data-name="Speech Bubble">
    <g>
      <g>
        <path d="m755.36,165.82h-59.87c-5.21,0-9.44,4.23-9.44,9.44v14.9c0,5.21,4.23,9.44,9.44,9.44h.62v8.51l9.59-8.51h49.66c5.21,0,9.44-4.23,9.44-9.44v-14.9c0-5.21-4.23-9.44-9.44-9.44Z" style="fill: #fff;"/>
        <path d="m755.36,165.82s.16,0,.47,0c.31,0,.78.04,1.38.14.3.06.63.15,1,.24.35.14.76.24,1.16.45.82.36,1.72.92,2.57,1.73.85.81,1.66,1.87,2.23,3.2.58,1.32.8,2.92.76,4.58.01,3.33.02,7.13.04,11.35-.01,1.06.04,2.13-.02,3.25-.07,1.12-.33,2.26-.81,3.34-.95,2.15-2.79,4.04-5.17,4.99-1.18.48-2.49.72-3.8.71-1.29,0-2.61,0-3.95,0-2.67,0-5.43,0-8.26.01-11.34,0-23.9.02-37.25.03l.17-.06c-3.06,2.72-6.3,5.6-9.58,8.52l-.43.38v-.58c0-1.03,0-2.14,0-3.26,0-1.8,0-3.59,0-5.26l.26.26c-1.84.07-3.76-.33-5.37-1.25-1.62-.91-2.94-2.28-3.81-3.89-.42-.81-.73-1.67-.93-2.56-.17-.88-.23-1.81-.21-2.67,0-1.75,0-3.48,0-5.2,0-1.72,0-3.42,0-5.11,0-.84,0-1.68,0-2.52,0-.83-.01-1.66.07-2.51.38-3.38,2.63-6.37,5.58-7.68,1.45-.71,3.1-.92,4.63-.89,1.53,0,3.04,0,4.53,0,2.98,0,5.87,0,8.66.01,5.58.01,10.77.02,15.51.03,9.46.03,17.09.06,22.39.08,2.62.02,4.66.04,6.07.05.68.01,1.2.02,1.58.03.35,0,.54.03.54.03,0,0-.18.02-.54.03-.37,0-.9.01-1.58.03-1.41.01-3.45.03-6.07.05-5.29.02-12.93.05-22.39.08-4.74,0-9.93.02-15.51.03-2.79,0-5.68,0-8.66.01-1.49,0-3,0-4.53,0-1.52-.02-3.04.17-4.43.85-2.81,1.25-4.94,4.1-5.29,7.3-.08.79-.07,1.62-.06,2.46,0,.83,0,1.67,0,2.52,0,1.69,0,3.39,0,5.11,0,1.72,0,3.45,0,5.2-.02.89.04,1.72.2,2.57.19.84.48,1.65.88,2.42.82,1.52,2.08,2.82,3.61,3.68,1.54.87,3.3,1.24,5.12,1.18h.26s0,.26,0,.26c0,1.67,0,3.46,0,5.26,0,1.12,0,2.23,0,3.26l-.43-.19c3.29-2.92,6.53-5.8,9.59-8.51l.07-.07h.1c13.35.01,25.91.02,37.25.03,2.83,0,5.59,0,8.26.01,2.66-.08,5.32.33,7.6-.66,2.28-.91,4.06-2.71,4.98-4.77.47-1.03.73-2.13.8-3.21.06-1.08.02-2.18.04-3.23.01-4.22.03-8.02.04-11.35.06-1.66-.15-3.19-.7-4.49-.54-1.3-1.32-2.35-2.15-3.15-.83-.81-1.7-1.37-2.51-1.74-.39-.21-.79-.32-1.14-.46-.36-.1-.69-.19-.98-.26-1.19-.24-1.84-.19-1.84-.23Z" style="fill: #263238;"/>
      </g>
      <g>
        <path d="m704.5,182.13l1.92,1.03-1.09,1.81-1.98-1.19.06,2.16h-2.14l.06-2.16-1.98,1.19-1.07-1.81,1.92-1.03-1.92-1.05,1.07-1.81,1.98,1.2-.06-2.18h2.14l-.06,2.18,1.98-1.2,1.09,1.81-1.92,1.05Z" style="fill: #e0e0e0;"/>
        <path d="m713.4,182.13l1.92,1.03-1.09,1.81-1.98-1.19.06,2.16h-2.14l.06-2.16-1.98,1.19-1.07-1.81,1.92-1.03-1.92-1.05,1.07-1.81,1.98,1.2-.06-2.18h2.14l-.06,2.18,1.98-1.2,1.09,1.81-1.92,1.05Z" style="fill: #e0e0e0;"/>
        <path d="m722.3,182.13l1.92,1.03-1.09,1.81-1.98-1.19.06,2.16h-2.14l.06-2.16-1.98,1.19-1.07-1.81,1.92-1.03-1.92-1.05,1.07-1.81,1.98,1.2-.06-2.18h2.14l-.06,2.18,1.98-1.2,1.09,1.81-1.92,1.05Z" style="fill: #e0e0e0;"/>
        <path d="m731.2,182.13l1.92,1.03-1.09,1.81-1.98-1.19.06,2.16h-2.14l.06-2.16-1.98,1.19-1.07-1.81,1.92-1.03-1.92-1.05,1.07-1.81,1.98,1.2-.06-2.18h2.14l-.06,2.18,1.98-1.2,1.09,1.81-1.92,1.05Z" style="fill: #e0e0e0;"/>
        <path d="m740.1,182.13l1.92,1.03-1.09,1.81-1.98-1.19.06,2.16h-2.14l.06-2.16-1.98,1.19-1.07-1.81,1.92-1.03-1.92-1.05,1.07-1.81,1.98,1.2-.06-2.18h2.14l-.06,2.18,1.98-1.2,1.09,1.81-1.92,1.05Z" style="fill: #e0e0e0;"/>
        <path d="m749,182.13l1.92,1.03-1.09,1.81-1.98-1.19.06,2.16h-2.14l.06-2.16-1.98,1.19-1.07-1.81,1.92-1.03-1.92-1.05,1.07-1.81,1.98,1.2-.06-2.18h2.14l-.06,2.18,1.98-1.2,1.09,1.81-1.92,1.05Z" style="fill: #e0e0e0;"/>
      </g>
    </g>
  </g>
  <g id="Plant">
    <g>
      <path d="m32.35,216.05c11.79,6.11,20.84,16.63,27.34,28.21,6.5,11.58,10.69,24.29,14.85,36.91l3.63,65.07c-13.72-23.35-24.74-50.79-27.72-77.71,3.04-.27,6.09-.54,9.13-.81-6.12-.93-11.26-5.37-14.53-10.63-3.27-5.26-4.95-11.33-6.6-17.3,3.71.55,7.43,1.1,11.14,1.66-8.73-5.82-15.05-15.14-17.25-25.39Z" style="fill: #228b22;"/>
      <g style="fill: none; opacity: .3;">
        <path d="m32.35,216.05c11.79,6.11,20.84,16.63,27.34,28.21,6.5,11.58,10.69,24.29,14.85,36.91l3.63,65.07c-13.72-23.35-24.74-50.79-27.72-77.71,3.04-.27,6.09-.54,9.13-.81-6.12-.93-11.26-5.37-14.53-10.63-3.27-5.26-4.95-11.33-6.6-17.3,3.71.55,7.43,1.1,11.14,1.66-8.73-5.82-15.05-15.14-17.25-25.39Z"/>
      </g>
      <path d="m80.21,361.49s29.79-35.65,29.44-69.69h-12.03s13.07-8.6,12.04-13.41-1.38-23.03-1.38-23.03l-11,2.75s8.25-4.13,9.28-10.66c1.03-6.53-2.41-36.79-2.41-36.79,0,0-13.41,14.1-17.53,28.54-4.13,14.44-14.95,31.29-11.77,75.29,3.18,44.01,5.37,47,5.37,47Z" style="fill: #228b22;"/>
      <path d="m65.1,364.86s-32.27-21.5-39.44-48.94l9.67-2.63s-12.39-4.05-12.61-8.15-3.93-18.82-3.93-18.82l9.45-.2s-7.54-1.51-9.79-6.54c-2.26-5.03-6.11-30.1-6.11-30.1,0,0,13.86,8.4,20.34,19.11,6.48,10.71,18.87,21.88,25.94,57.96,7.07,36.08,6.49,38.31,6.49,38.31Z" style="fill: #228b22;"/>
      <path d="m96.01,241.75s0,.13-.05.38c-.05.27-.12.64-.21,1.11-.2,1-.48,2.43-.85,4.25-.38,1.84-.83,4.1-1.32,6.73-.5,2.63-1.09,5.61-1.67,8.93-1.23,6.62-2.53,14.52-3.89,23.31-1.32,8.8-2.64,18.49-3.83,28.68-1.17,10.2-2.09,19.94-2.81,28.81-.68,8.87-1.22,16.87-1.53,23.59-.19,3.36-.3,6.4-.41,9.07-.12,2.67-.2,4.97-.25,6.85-.06,1.86-.11,3.31-.15,4.33-.02.47-.04.85-.05,1.13-.01.25-.03.38-.04.38,0,0-.01-.13-.02-.38,0-.28,0-.65,0-1.13.01-1.02.03-2.48.05-4.33.02-1.88.07-4.18.16-6.86.08-2.67.16-5.72.33-9.08.27-6.73.76-14.73,1.42-23.61.7-8.88,1.61-18.62,2.78-28.83,1.19-10.2,2.53-19.9,3.87-28.7,1.38-8.79,2.73-16.7,4-23.31.6-3.31,1.22-6.29,1.75-8.91.52-2.62,1-4.88,1.41-6.71.4-1.82.72-3.24.94-4.23.11-.46.19-.83.26-1.1.06-.25.1-.37.11-.37Z" style="fill: #263238;"/>
      <path d="m84.34,383.32s27.26-30.93,35.72-49.63l-6.39-2.73c4.63.76,9.38-1.23,12.97-4.25,3.59-3.02,6.23-7,8.81-10.92l-8.42-1.42c7.65-2.15,14.4-7.37,18.39-14.25-9.93,1.63-18.92,7.09-26.32,13.91-6,5.52-11.08,11.93-15.95,18.48-2.38,3.2-4.46,6.6-6.2,10.19-4.58,9.47-12.64,29.26-12.62,40.62Z" style="fill: #228b22;"/>
      <path d="m25.23,267.48s.07.09.18.29c.12.22.27.51.47.87.42.8,1,1.94,1.75,3.39,1.52,2.94,3.64,7.24,6.19,12.58,2.56,5.34,5.49,11.75,8.62,18.93,3.11,7.18,6.41,15.14,9.68,23.56,3.25,8.43,6.16,16.54,8.69,23.95,2.51,7.42,4.65,14.13,6.35,19.81,1.71,5.67,3.03,10.28,3.88,13.47.42,1.57.75,2.81.98,3.68.1.4.18.72.24.96.05.22.07.33.07.33s-.05-.11-.12-.32c-.07-.24-.17-.55-.29-.95-.26-.87-.62-2.09-1.08-3.66-.91-3.18-2.29-7.77-4.04-13.42-1.74-5.66-3.92-12.36-6.45-19.76-2.56-7.39-5.48-15.49-8.72-23.91-3.27-8.42-6.55-16.37-9.63-23.56-3.11-7.18-6-13.6-8.52-18.96-2.51-5.36-4.58-9.68-6.04-12.65-.71-1.47-1.27-2.62-1.66-3.43-.18-.37-.31-.67-.42-.9-.09-.2-.14-.31-.13-.31Z" style="fill: #263238;"/>
      <path d="m82.02,396.58s0-.2.02-.58c.04-.44.1-.98.17-1.66.07-.72.18-1.6.34-2.61.16-1.02.31-2.18.56-3.45.44-2.55,1.11-5.56,1.98-8.87.9-3.3,2.02-6.9,3.41-10.6,1.41-3.69,2.94-7.13,4.45-10.21,1.53-3.06,3.03-5.76,4.38-7.96.65-1.12,1.3-2.09,1.86-2.95.55-.87,1.05-1.6,1.47-2.18.39-.55.71-1,.97-1.35.23-.31.35-.46.37-.45.01.01-.08.19-.28.51-.23.37-.53.84-.89,1.41-.39.6-.87,1.35-1.4,2.23-.53.88-1.16,1.86-1.79,2.99-1.31,2.22-2.76,4.93-4.26,7.99-1.48,3.07-2.99,6.5-4.39,10.18-1.38,3.68-2.51,7.26-3.43,10.54-.89,3.29-1.59,6.28-2.08,8.81-.27,1.26-.45,2.41-.63,3.42-.19,1.01-.32,1.88-.42,2.59-.11.67-.19,1.21-.26,1.64-.07.37-.11.57-.13.57Z" style="fill: #263238;"/>
      <rect x="46.05" y="389.3" width="59.66" height="12.17" style="fill: #6d9054;"/>
      <polygon points="100.03 401.47 93.58 442.41 57.53 442.41 51.51 401.47 100.03 401.47" style="fill: #6d9054;"/>
      <path d="m49.71,401.47c0-.14,11.29-.26,25.21-.26s25.21.12,25.21.26-11.28.26-25.21.26-25.21-.12-25.21-.26Z" style="fill: #263238;"/>
    </g>
  </g>
  <g id="Character">
    <rect width="811.88" height="702.51" style="fill: #fafafa; opacity: .07;"/>
    <g>
      <g>
        <path d="m679.06,401.42s71.71-37.36,87.26-16.76-15.61,36.81-21.64,40.45c-6.03,3.64-66.93,24.32-66.93,24.32l-16.07-17.14,17.37-30.87Z" style="fill: #263238;"/>
        <g>
          <path d="m707.34,421.4l28.59,15.4,26.12,5.66c1.88.41,3.03,2.32,2.49,4.18h0c-.3,1.04-1.07,1.86-2.09,2.21-6.48,2.26-30.38,10.45-32.41,9.2-2.35-1.44-31.24-14.24-31.24-14.24l8.53-22.41Z" style="fill: #ff725e;"/>
          <g style="fill: none; opacity: .6;">
            <path d="m764.55,446.63l-36.45,10.42,1.23.62c1.06.54,2.28.69,3.43.42,3.09-.74,11.6-2.96,29.66-9.16,1.05-.36,1.86-1.23,2.13-2.3h0Z" style="fill: #fff;"/>
          </g>
          <g style="fill: none; opacity: .6;">
            <path d="m721.79,446.36c.87-.47,2.09-.15,2.59.7.5.85.19,2.09-.67,2.58-.86.48-2.33.14-2.74-.76-.41-.9.04-2.34,1-2.6" style="fill: #fff;"/>
          </g>
          <path d="m748.54,446.81c.16-.12-1.02-1.55-.96-3.68,0-2.14,1.22-3.53,1.06-3.66-.06-.06-.47.19-.91.82-.44.62-.84,1.65-.86,2.83-.01,1.18.36,2.22.78,2.85.42.64.83.9.89.84Z" style="fill: #263238;"/>
          <path d="m753.46,446.72c.2-.07-.27-1.48.06-3.2.3-1.72,1.23-2.87,1.07-3.01-.1-.16-1.43.92-1.78,2.88-.37,1.96.49,3.44.64,3.32Z" style="fill: #263238;"/>
          <path d="m741.62,448.11c.21-.07-.52-2.23-.24-4.94.24-2.72,1.38-4.7,1.19-4.8-.13-.13-1.63,1.82-1.9,4.73-.3,2.91.8,5.11.95,5.01Z" style="fill: #263238;"/>
          <path d="m732.54,444.16c.21.01.36-1.93,1.34-4.05.96-2.13,2.32-3.51,2.18-3.67-.1-.15-1.79,1.08-2.83,3.37-1.05,2.28-.88,4.37-.69,4.34Z" style="fill: #263238;"/>
          <path d="m724.03,439.85c.21,0,.07-2.1,1.29-4.25,1.17-2.17,3.03-3.16,2.92-3.35-.04-.08-.56.05-1.29.52-.72.46-1.61,1.32-2.26,2.48-.64,1.16-.89,2.37-.9,3.23-.01.86.15,1.38.24,1.37Z" style="fill: #263238;"/>
          <path d="m723.67,434.83s-.34-.3-1.07-.6c-.73-.29-1.87-.61-3.31-.59-.7.04-1.55.01-2.35.63-.4.3-.63.94-.42,1.48.2.53.62.88,1.07,1.12,1.85.91,4.43.23,5.75-1.7,1.28-1.96,1.06-4.44-.11-6.07-.32-.39-.76-.77-1.36-.79-.61-.03-1.1.46-1.24.91-.31.92-.09,1.72.02,2.41.29,1.41.82,2.45,1.24,3.12.42.67.74.98.77.95.13-.06-1.05-1.46-1.52-4.16-.09-.67-.22-1.45.03-2.1.12-.32.38-.52.67-.5.29,0,.62.25.86.57.94,1.36,1.15,3.62.03,5.26-1.09,1.64-3.36,2.23-4.86,1.51-.36-.18-.67-.45-.78-.75-.11-.29-.02-.61.22-.82.51-.45,1.31-.52,1.98-.57,2.75-.14,4.33.83,4.36.68Z" style="fill: #263238;"/>
        </g>
        <path d="m717.59,425.06s-67.58-40.94-76.71-46.02c-7.85-4.36-32.65-14.02-41.38,9.75-8.74,23.77,38.31,58.84,38.31,58.84l39.94,1.79,13.33-5.09,15.14,4.66,11.37-23.93Z" style="fill: #263238;"/>
        <g>
          <path d="m670.08,450.26l-30.29,11.71-21.29,16.17c-1.53,1.17-3.73.79-4.79-.82h0c-.59-.9-.72-2.02-.32-3.03,2.5-6.39,11.82-29.87,14.08-30.61,2.62-.85,31.13-14.47,31.13-14.47l11.48,21.05Z" style="fill: #ff725e;"/>
          <g style="fill: none; opacity: .6;">
            <path d="m613.71,477.31l15.78-34.47-1.27.53c-1.1.45-2,1.28-2.55,2.34-1.45,2.83-5.29,10.74-12.33,28.49-.41,1.03-.27,2.21.36,3.12h0Z" style="fill: #fff;"/>
          </g>
          <g style="fill: none; opacity: .6;">
            <path d="m641.72,445c-.21.97-1.25,1.68-2.22,1.51-.97-.17-1.71-1.22-1.52-2.19.19-.97,1.41-1.87,2.36-1.59.95.28,1.75,1.55,1.33,2.45" style="fill: #fff;"/>
          </g>
          <path d="m623.99,465.04c-.01.2,1.84.23,3.42,1.67,1.63,1.39,1.89,3.22,2.09,3.18.08,0,.16-.48-.03-1.22-.18-.74-.7-1.71-1.59-2.49-.89-.78-1.92-1.17-2.67-1.26-.76-.1-1.22.04-1.22.13Z" style="fill: #263238;"/>
          <path d="m620.86,468.83c-.07.2,1.3.76,2.39,2.13,1.12,1.34,1.38,2.8,1.59,2.77.19.02.23-1.68-1.03-3.22-1.25-1.55-2.93-1.87-2.94-1.68Z" style="fill: #263238;"/>
          <path d="m627.5,458.93c-.08.2,2.03,1.05,3.91,3.03,1.91,1.95,2.67,4.1,2.88,4.02.18-.02-.32-2.42-2.36-4.52-2.02-2.12-4.4-2.72-4.42-2.54Z" style="fill: #263238;"/>
          <path d="m636.41,454.6c-.15.15,1.23,1.53,2.2,3.65,1,2.11,1.16,4.05,1.37,4.04.18.02.34-2.07-.72-4.34-1.05-2.28-2.75-3.5-2.85-3.35Z" style="fill: #263238;"/>
          <path d="m645.21,450.94c-.13.16,1.55,1.42,2.39,3.74.89,2.3.43,4.36.64,4.39.08.02.32-.46.44-1.32.12-.85.05-2.08-.41-3.32-.47-1.24-1.22-2.22-1.86-2.78-.65-.57-1.15-.78-1.19-.71Z" style="fill: #263238;"/>
          <path d="m649.26,453.93s.45-.06,1.15-.43c.7-.37,1.68-1.02,2.6-2.13.42-.55,1-1.19,1.05-2.19.03-.5-.31-1.09-.85-1.28-.53-.19-1.07-.1-1.55.09-1.89.82-3.06,3.22-2.45,5.47.65,2.25,2.69,3.69,4.68,3.86.5.01,1.08-.08,1.49-.52.42-.44.37-1.13.12-1.53-.5-.84-1.25-1.19-1.84-1.55-1.26-.69-2.4-.97-3.18-1.08-.79-.12-1.23-.07-1.23-.03-.03.14,1.79.15,4.15,1.55.56.37,1.25.78,1.57,1.39.16.3.15.62-.06.84-.19.21-.6.31-1,.28-1.64-.16-3.5-1.49-4.02-3.4-.53-1.9.49-4,2.01-4.67.37-.16.78-.21,1.08-.11.3.11.48.38.48.7,0,.68-.46,1.33-.86,1.87-1.68,2.17-3.44,2.75-3.36,2.87Z" style="fill: #263238;"/>
        </g>
        <path d="m656.92,457.82c.85-.44,35.05-14.37,35.05-14.37l-34-16.84-20.49,10.6,19.45,20.6Z" style="fill: #263238;"/>
        <path d="m614.63,416.66s.16.04.47.14c.33.11.77.26,1.35.45,1.21.42,2.95,1.02,5.18,1.79,4.51,1.58,11,3.86,19,6.67,16.05,5.67,38.19,13.48,62.64,22.11,1.02.31,2.03.62,3.04.93l-.31.14c3.99-8.4,7.83-16.47,11.38-23.93l.09.32c-15.96-9.76-29.67-18.15-39.4-24.1-4.83-2.98-8.68-5.35-11.34-6.99-1.3-.81-2.31-1.44-3.01-1.88-.33-.21-.58-.37-.77-.49-.17-.11-.26-.17-.25-.18,0,0,.1.04.28.14.2.11.46.26.79.46.71.42,1.74,1.03,3.06,1.81,2.68,1.61,6.55,3.94,11.42,6.87,9.76,5.92,23.5,14.24,39.5,23.94l.19.12-.1.2c-3.54,7.46-7.37,15.54-11.36,23.94l-.1.2-.22-.07c-1.01-.31-2.02-.62-3.04-.94-1.56-.45-3.07-1.02-4.58-1.55-1.51-.54-3.01-1.07-4.5-1.6-2.98-1.06-5.91-2.1-8.79-3.13-5.76-2.05-11.32-4.03-16.61-5.92-10.58-3.78-20.11-7.19-28.12-10.06-7.98-2.88-14.45-5.2-18.95-6.82-2.22-.81-3.94-1.44-5.14-1.88-.57-.21-1.01-.38-1.33-.5-.3-.12-.45-.19-.45-.19Z" style="fill: #455a64;"/>
        <path d="m656.92,457.82s-.48-.41-1.27-1.21c-.85-.87-1.97-2.03-3.33-3.43-2.79-2.91-6.62-6.96-10.83-11.45-1.48-1.58-2.91-3.11-4.23-4.53l-.23-.25.3-.15c4.14-2.01,7.73-3.75,10.38-5.03,1.24-.58,2.25-1.05,3.03-1.42.71-.32,1.1-.48,1.12-.46.01.03-.35.24-1.04.61-.76.4-1.76.92-2.97,1.55-2.63,1.33-6.19,3.12-10.3,5.2l.07-.39c1.33,1.42,2.76,2.94,4.25,4.52,4.21,4.49,7.99,8.58,10.72,11.55,1.31,1.45,2.39,2.64,3.2,3.54.75.84,1.15,1.32,1.12,1.35Z" style="fill: #455a64;"/>
        <path d="m725.92,391.5c.06.13-8.36,3.79-18.8,8.17-10.44,4.38-18.94,7.82-19,7.69-.06-.13,8.36-3.79,18.8-8.17,10.44-4.38,18.94-7.82,19-7.69Z" style="fill: #455a64;"/>
      </g>
      <path d="m673.91,288.47c-.71,0-25.38-.24-30.36,4.74-4.98,4.98-15.32,81.25-15.32,81.25,5.32,1.01,8.77,2.97,12.01,4.58l41.93,24.45,18.15-9.43c2.51-1.39,3.13-4.72,1.29-6.92h0l24.15-87.29s-4.64-3.79-11.76-6.4c-7.12-2.61-40.08-4.98-40.08-4.98Z" style="fill: #455a64;"/>
      <path d="m717.59,296.56s7.42,1.64,10.26,6.22c6.66,10.73,27.12,48.84,30.56,57.97,3.64,9.67-.27,15.17-2.9,19.25-2.83,4.39-18.38,4.38-25.43-3.16-3.02-3.23-19.86-18.51-19.86-18.51l7.37-61.78Z" style="fill: #455a64;"/>
      <path d="m726.03,310.71s-.08.27-.28.75c-.22.53-.52,1.23-.9,2.12-.75,1.85-1.81,4.54-3.01,7.9-2.42,6.72-5.38,16.14-8.52,26.58-3.08,10.44-5.86,19.89-7.9,26.79-1.02,3.43-1.86,6.19-2.47,8.1-.3.91-.54,1.64-.72,2.19-.17.5-.27.76-.28.75-.02,0,.05-.27.18-.78.16-.55.37-1.29.63-2.21.56-1.97,1.34-4.74,2.31-8.14,1.95-6.88,4.62-16.38,7.75-26.84,3.14-10.44,6.16-19.85,8.67-26.56,1.24-3.35,2.35-6.03,3.16-7.86.41-.87.74-1.56.99-2.08.23-.47.36-.72.38-.71Z" style="fill: #263238;"/>
      <path d="m644.7,292.34s-7.79,4.43-10.64,7.04c-2.85,2.61-32.3,44.55-36.06,57.61-2.18,7.58,6.16,23.26,15.16,22.5,11.77-.99,55.92-17.93,55.92-17.93l-9.91-21.53-24.96,4,18.15-18.24-6.78-33.91" style="fill: #455a64;"/>
      <path d="m749.44,356.28s-.16-.08-.45-.27c-.33-.23-.73-.51-1.22-.84-1.11-.8-2.61-1.87-4.43-3.18-3.72-2.71-8.85-6.48-14.48-10.67-1.29-.96-2.55-1.9-3.77-2.81l.36-.05c-3.6,4.69-6.79,8.77-9.12,11.66-2.32,2.89-3.8,4.58-3.89,4.49.65-.84,1.69-2.19,3.63-4.7,2.3-3.01,5.42-7.11,8.98-11.77l.15-.2.2.15c1.22.9,2.48,1.84,3.77,2.8,5.64,4.19,10.73,8,14.39,10.79,1.78,1.36,3.24,2.49,4.33,3.32.47.37.85.68,1.16.92.26.22.39.34.38.35Z" style="fill: #263238;"/>
      <g>
        <polygon points="679.55 332.38 659.75 341.26 667.65 358.43 680.03 350.25 679.55 332.38" style="fill: #b2655f;"/>
        <path d="m698.26,334.07l13.25-8.97c.47-.32,1.03-.46,1.59-.41l17.33,1.48c.7.06,1.24.65,1.21,1.36-.03.69-.19,1.47-.72,1.84-1.05.73-28.13,19.53-28.13,19.53l-20.97-3.33,16.45-11.49Z" style="fill: #e0e0e0;"/>
        <g>
          <path d="m679.55,332.38s7.15-5.3,8.83-5.59c1.68-.29,9.24-.26,9.24-.26l6.35,3.63-3.93,2.67c-2.73-.6-3.52-1.66-3.52-1.66l-4.39.29-12.58.92Z" style="fill: #b2655f;"/>
          <path d="m687.58,330.08l11.31,3.88,16.24,2.29s.1,3.29-3.23,3.65c-1.96.21-5.39.45-5.39.45,0,0-.83,2.99-3.35,3.65,0,0-1.1,2.11-2.45,2.89-.16.09-.33.17-.5.22-1.56.45-4.67,4.68-6.75,5.25-2.08.57-13.44-2.11-13.44-2.11l-.48-17.87,8.04-2.3Z" style="fill: #b2655f;"/>
          <path d="m690.92,339.31s.89.19,2.33.48c1.44.29,3.45.6,5.68.75,2.24.14,4.27.1,5.73-.01,1.46-.1,2.37-.23,2.37-.18,0,.02-.22.07-.62.15-.41.08-1,.17-1.73.25-1.47.16-3.52.25-5.77.1-2.25-.15-4.27-.49-5.71-.84-.72-.17-1.29-.33-1.69-.46-.39-.13-.61-.21-.6-.23Z" style="fill: #8e4842;"/>
          <path d="m693.1,343.94s.05.43-.12,1.11c-.09.33-.25.75-.61,1.1-.35.35-.92.52-1.46.48-.55-.03-1.05-.21-1.46-.42-.41-.21-.76-.42-1.05-.59-.58-.34-.98-.48-.97-.52,0-.04.44.03,1.07.33.63.27,1.43.84,2.42.9.49.03.95-.11,1.26-.39.31-.28.48-.64.59-.95.21-.63.28-1.06.33-1.05Z" style="fill: #8e4842;"/>
          <path d="m701.45,345.05s-.46.17-1.23.31c-.77.14-1.85.29-3.05.37-1.2.08-2.28.08-3.07.04-.78-.04-1.27-.1-1.27-.14,0-.09,1.94-.04,4.31-.2,2.37-.16,4.28-.47,4.3-.38Z" style="fill: #8e4842;"/>
          <path d="m692.88,349.73c.05.06-.72.64-1.86.81-1.14.18-2.05-.14-2.02-.21.02-.09.9.08,1.97-.1,1.07-.16,1.86-.59,1.91-.51Z" style="fill: #8e4842;"/>
          <path d="m696.95,349.53c.01.08-.53.23-1.22.32-.68.09-1.25.1-1.26.01-.01-.08.53-.23,1.22-.32.68-.09,1.25-.1,1.26-.01Z" style="fill: #8e4842;"/>
          <path d="m698.9,333.96c-.04.12-2.42-.65-5.29-1.77-1.44-.56-2.73-1.09-3.65-1.51-.92-.41-1.47-.72-1.45-.76.02-.04.6.2,1.54.56,1.04.4,2.29.89,3.67,1.42,1.38.54,2.63,1.03,3.67,1.43.94.37,1.52.59,1.51.63Z" style="fill: #8e4842;"/>
        </g>
        <g>
          <path d="m715.47,338.05s-1.26-.43.09-2.41c1.35-1.97,5.13.42,5.13.42l4.83,2.88s1.09,2.51-.26,3.18l-.99,1.22s1.88,1.91,1.12,3.58c-.76,1.68-2.63,1.43-2.63,1.43,0,0,.22,3.38-.88,4.68-1.1,1.3-2.1,1.42-2.1,1.42,0,0-.92,2.8-4.17,3.63-3.24.83-4.94.89-5.82-.48-.88-1.36-1.43-3.1-1.43-3.1,0,0-6.95-3.65-7.1-5.5-.15-1.85.17-2.02.17-2.02,0,0-.56-1.54.14-2.67.7-1.13,3.46-.15,3.46-.15l8.86,2.08s-7.09-3.34-7.94-4.43c-.85-1.09.06-2.42,2.91-2.09,2.85.34,11.46,1.95,11.46,1.95,0,0-.43-.86-1-1.1-.58-.24-2.36-1.28-2.36-1.28l-1.5-1.28Z" style="fill: #b2655f;"/>
          <path d="m717.59,351.48c-.02.08-3.62-.84-8.03-2.05-4.41-1.22-7.97-2.27-7.95-2.35.02-.08,3.62.84,8.03,2.05,4.41,1.21,7.97,2.27,7.95,2.35Z" style="fill: #8e4842;"/>
          <path d="m713.36,356.32c-.02.08-1.19-.2-2.59-.67-.7-.23-1.33-.47-1.77-.68-.22-.1-.4-.2-.51-.28-.06-.04-.1-.08-.12-.12-.03-.04,0-.09,0-.07-.05.03,1.1.38,2.5.85,1.4.46,2.52.88,2.49.96Z" style="fill: #8e4842;"/>
          <path d="m720.96,347.58c-.02.09-1.75-.26-3.89-.62-2.14-.36-3.89-.58-3.88-.67,0-.08,1.78,0,3.93.37,2.16.35,3.86.84,3.84.92Z" style="fill: #8e4842;"/>
          <path d="m723.13,343c-.06.07-.76-.42-1.74-.77-.98-.36-1.83-.44-1.83-.53,0-.08.9-.14,1.93.24,1.03.37,1.69,1.01,1.63,1.06Z" style="fill: #8e4842;"/>
        </g>
        <path d="m730.84,327.73s-.11,0-.33-.02c-.25-.03-.55-.07-.92-.12-.8-.1-1.96-.25-3.4-.42-2.87-.33-6.85-.68-11.25-.78-1.1-.02-2.2-.12-3.08.36-.44.23-.85.55-1.26.83-.41.29-.81.57-1.2.85-1.55,1.1-2.96,2.09-4.15,2.93-1.16.81-2.11,1.47-2.81,1.95-.31.21-.57.38-.77.52-.18.12-.28.17-.28.16,0,0,.08-.08.25-.21.2-.15.44-.34.74-.57.69-.51,1.62-1.19,2.76-2.03,1.18-.86,2.57-1.87,4.11-2.98.39-.28.79-.57,1.19-.86.41-.29.81-.61,1.29-.86.48-.26,1.04-.38,1.59-.41.55-.03,1.09,0,1.65,0,4.42.1,8.4.49,11.27.87,1.43.19,2.59.37,3.39.51.37.07.67.13.92.17.21.04.32.07.32.08Z" style="fill: #263238;"/>
        <path d="m720.03,329.28c-.13-.24-.49-.36-.84-.32h.03s-.09,0-.14.02c-.02,0-.04,0-.06.01-.26.06-.51.18-.68.38-.21.26-.25.67-.02.91.12.13.31.2.49.23.35.06.74-.01,1.01-.25.27-.24.38-.66.21-.98Z" style="fill: #fff;"/>
      </g>
      <g>
        <g>
          <path d="m680.66,233.11c-.64-.34-1.28-.68-1.92-1.02-.89-.48-1.92-.97-2.93-.68-.95.27-1.61,1.18-2.59,1.28-1.14.12-2.08-.9-3.22-.85-1.08.05-1.93,1.04-3.01,1.03-.81,0-1.65-.57-2.34-.18-.14.08-.26.19-.4.29-.76.52-1.82.22-2.66-.15-.84-.37-1.79-.79-2.66-.47-.57.21-.96.7-1.38,1.11-.42.41-1.02.79-1.61.66-.33-.07-.6-.28-.92-.36-1.04-.26-1.9.84-2.95,1.12-.98.26-2.1-.22-3,.22-.71.35-1,1.21-.74,1.88.26.67.97,1.15,1.74,1.31.77.16,1.59.05,2.35-.18.62-.19,1.24-.45,1.89-.43,1.49.05,2.66,1.59,4.12,1.28.72-.16,1.22-.72,1.8-1.14.82-.6,1.86-.94,2.9-.94.69,0,1.41.14,2.05-.12.78-.31,1.24-1.15,2.05-1.37.87-.24,1.77.31,2.67.23.6-.05,1.14-.38,1.74-.41.85-.05,1.62.5,2.47.43.86-.07,1.61-.79,2.47-.71.34.03.65.18.97.26.33.08.72.08.96-.15.19-.18.25-.47.48-.6.17-.1.39-.08.58-.06.94.1,1.88.19,2.82.29l-1.76-1.57Z" style="fill: #263238;"/>
          <path d="m683.69,233.01c-.94-.7-2.21-1.42-3.29-.84-.39.21-.67.56-1.07.75-.9.43-1.98-.13-2.94.13-.81.22-1.34.97-2.1,1.35-1.21.6-2.97.25-3.74,1.31-.41.58-.48,1.51-1.2,1.66-.25.05-.51-.02-.76-.09-.85-.21-1.76-.24-2.63-.08-.5.09-1,.25-1.37.58-.72.65-.74,1.76-1.43,2.44-1.03,1.02-2.87.53-4.19,1.18-.63.31-1.09.86-1.61,1.32-.99.87-2.23,1.44-3.4,2.07-1.17.64-2.33,1.41-2.98,2.53-.65,1.11-.62,2.65.38,3.43.47.37,1.24.5,1.68.08.16-.15.25-.34.4-.5.3-.32.76-.43,1.17-.59.41-.17.84-.48.84-.89,0-.26-.15-.57.06-.75.08-.07.2-.09.31-.1,1.06-.11,2.36-.06,2.93-.93.25-.38.27-.84.43-1.26.26-.69.92-1.25,1.67-1.42.64-.15,1.38-.05,1.9-.45.59-.45.6-1.31,1.14-1.81.89-.84,2.65-.23,3.45-1.14.2-.23.31-.52.56-.69.71-.47,1.59.5,2.43.34.72-.14,1-.97,1.51-1.48.64-.63,1.65-.74,2.47-1.14,1.04-.51,1.81-1.5,2.92-1.83.96-.29,2.14-.09,2.85-.77.27-.26.46-.64.82-.75.22-.07.44-.02.66,0,1.08.15,2.23-.09,3.17-.65l-1.06-1.05Z" style="fill: #263238;"/>
          <path d="m682.07,235.55c-2.41-.42-4.98.35-6.78,2.04-.41.38-.79.81-1.28,1.05-.76.37-1.65.21-2.49.28-1.85.15-3.54,1.52-4.14,3.34-.38,1.15-.52,2.66-1.62,3.06-.2.07-.42.1-.61.22-.75.46-.23,1.65-.24,2.55-.01,1.5-1.68,2.53-1.74,4.02-.02.55.18,1.09.39,1.6.58,1.42,1.22,2.82,1.91,4.19.31.61.72,1.29,1.38,1.38.95.13,1.54-1.01,1.82-1.96.2-.68.38-1.45.05-2.09-.27-.53-.85-.84-1.09-1.39-.39-.88.23-1.84.69-2.68.89-1.65,1.17-3.65.77-5.5,1.04-.19,1.53-1.61,2.57-1.81.29-.06.6,0,.87-.11.7-.27.77-1.32,1.38-1.76.72-.51,2.03-.1,2.34-.95.1-.26.05-.59.21-.81.13-.17.35-.23.55-.29.84-.21,1.68-.42,2.52-.63.48-.12.98-.25,1.34-.59.64-.61.75-1.8,1.56-2.12l-.36-1.05Z" style="fill: #263238;"/>
          <path d="m684.74,230.55c-.1-1.49-.38-3.26-1.69-3.87-.78-.36-1.71-.17-2.47-.56-1.46-.73-1.58-3.1-3.03-3.84-1.38-.71-3.33.41-4.46-.69-.59-.57-.67-1.52-1.16-2.19-.58-.8-1.62-1.04-2.57-1.1-.95-.06-1.94,0-2.82-.38-1.49-.66-2.46-2.52-4.07-2.64-1.36-.1-2.44,1.1-3.29,2.2-.21.28-.44.57-.49.92-.1.62.37,1.2.89,1.51,1.08.64,2.48.54,3.5,1.29.37.28.68.66,1.09.88.58.31,1.31.24,1.87.59,1.09.67,1.07,2.5,2.15,3.19,1.03.65,2.37-.13,3.54.15,1.6.38,2.48,2.61,4.12,2.67.73.03,1.4-.4,2.12-.47.92-.09,1.86.47,2.27,1.34.26.56.31,1.22.61,1.77.39.69,1.14,1.08,1.89,1.19.75.11,1.51,0,2.26-.13l-.27-1.81Z" style="fill: #263238;"/>
          <path d="m683.5,235.15c-1.04-1.89-2.23-3.91-4.28-4.79-1.03-.44-2.21-.55-3.17-1.11-.82-.48-1.41-1.25-2.18-1.8-1.79-1.27-4.25-1.19-6.46-.84-2.2.35-4.47.9-6.64.37-1.93-.48-3.62-1.79-5.62-1.9-1.08-.06-2.15.24-3.19.55-1.21.35-2.41.7-3.62,1.05-.39.11-.82.26-1.02.6-.38.65.37,1.4,1.09,1.7,1.16.49,2.49.63,3.74.4.99-.18,1.97-.6,2.96-.45.69.1,1.3.47,1.97.64.84.22,1.72.13,2.58.04,1.34-.14,2.67-.27,4.01-.41,1.03-.11,2.13-.2,3.06.25.72.35,1.29,1.02,2.09,1.11.89.1,1.74-.57,2.63-.43,1.06.16,1.59,1.35,2.56,1.8,1.15.53,2.64-.09,3.74.52.75.41,1.07,1.25,1.54,1.94.4.57.92,1.06,1.54,1.42.78.46,1.68.7,2.56.94l.09-1.59Z" style="fill: #263238;"/>
          <path d="m685.62,226.76c-.48-.66-1.21-1.34-1.01-2.13.1-.39.42-.71.49-1.11.12-.72-.6-1.28-.88-1.96-.32-.81,0-1.8-.46-2.54-.47-.78-1.53-.89-2.41-1.11-.96-.24-1.94-.8-2.24-1.75-.2-.64-.05-1.34-.12-2.01-.16-1.75-1.87-3.11-3.62-3.18-.51-.02-1.04.04-1.51-.17-.85-.4-1.04-1.49-1.52-2.29-.65-1.09-2.03-1.7-3.27-1.44-.6.12-1.25.74-.91,1.25.14.2.4.28.59.44.68.58.19,1.75.59,2.54.42.84,1.68.98,2.07,1.84.3.65-.05,1.46.23,2.12.34.81,1.4.98,2.28,1.04.88.06,1.93.24,2.26,1.06.14.36.11.76.17,1.14.11.67.55,1.28,1.16,1.58.85.43,2.04.35,2.54,1.16.57.91-.24,2.2.26,3.15.37.7,1.27.88,1.93,1.3.15.1.3.22.34.39.05.18-.03.37-.12.54-.53,1.08-1.2,2.32-.68,3.4.21.44.58.77.92,1.11,1.09,1.11,1.89,2.5,2.32,4l.93-4.07c.69-1.34.55-3.06-.34-4.28Z" style="fill: #263238;"/>
          <path d="m690.78,212.97c.36-1.16-.11-2.57-1.18-3.15-1.07-.57-2.63-.04-2.98,1.12-.4,1.33.72,2.89.01,4.09-.19.33-.51.59-.61.95-.25.88.86,1.62.86,2.54,0,1.01-1.27,1.57-1.53,2.55-.31,1.12.83,2.31.42,3.4-.12.31-.34.55-.53.82-1.17,1.72-.58,4.03.06,6.01l2.65-.39c-.48-1.84,2.1-3.68,1.22-5.36-.42-.8-1.57-1.38-1.31-2.24.07-.23.24-.42.41-.61.82-.9,1.64-1.8,2.46-2.7.36-.4.75-.84.8-1.38.11-1.17-1.36-1.93-1.54-3.09-.14-.9.51-1.71.78-2.57Z" style="fill: #263238;"/>
          <path d="m691.69,227.99c-.25-.87-1.38-1.13-2.27-1-2.46.38-4.26,2.43-5.83,4.36-1.73,2.12-3.47,4.25-4.86,6.61-.31.52-.6,1.08-.68,1.68-.07.6.12,1.28.62,1.62s1.32.2,1.55-.36l.73-.18c2.38-4.05,5.58-7.62,9.34-10.43.77-.57,1.66-1.38,1.4-2.31Z" style="fill: #ff725e;"/>
        </g>
        <g>
          <path d="m678.16,265.64c-.59-4.87-1.16-9.76-.91-14.66s1.37-9.83,3.92-14.02c.39-.63,3.45-4.8,4.16-4.59.51.15-1.66,4.17-1.49,4.67,1.66,4.79,1.34,10.09-.03,14.98-1.37,4.88-3.27,9.14-5.65,13.62" style="fill: #263238;"/>
          <path d="m699.95,297.58c.7-3.39,1.26-6.07,1.29-6.06,0,0,11.89,1.1,14.91-10.31,1.46-5.51,3.54-17.1,5.3-27.61,1.89-11.3-5.22-22.15-16.33-24.94l-1.1-.28c-12.08-2.3-20.78,6.68-22.74,18.82l-8.22,42.24,18.86,19.73,8.03-11.58Z" style="fill: #b2655f;"/>
          <path d="m701.24,291.51s-7.32-1.39-13.79-8.15c0,0,1.54,9.24,13.22,11.08l.57-2.93Z" style="fill: #8e4842;"/>
          <path d="m715.6,262.67c-.19.87-1.08,1.43-1.99,1.25-.91-.18-1.5-1.03-1.31-1.9.19-.87,1.08-1.43,1.99-1.25.91.18,1.5,1.03,1.32,1.9Z" style="fill: #263238;"/>
          <path d="m717.8,257.72c-.26.16-1.26-1.07-3.02-1.5-1.75-.46-3.27.12-3.41-.15-.07-.12.23-.45.9-.72.66-.27,1.7-.43,2.79-.15,1.09.28,1.91.92,2.34,1.46.44.55.52.98.4,1.05Z" style="fill: #263238;"/>
          <path d="m699.65,259.61c-.19.87-1.08,1.43-1.99,1.25-.91-.18-1.5-1.03-1.31-1.9.19-.87,1.08-1.43,1.99-1.25.91.18,1.5,1.03,1.32,1.9Z" style="fill: #263238;"/>
          <path d="m700.4,254.11c-.26.16-1.27-1.07-3.02-1.5-1.75-.46-3.27.12-3.41-.15-.07-.12.23-.45.9-.72.66-.27,1.7-.43,2.79-.15,1.09.28,1.91.92,2.34,1.46.43.55.52.98.4,1.05Z" style="fill: #263238;"/>
          <path d="m703.31,269.2c.02-.1,1.16-.02,2.99.2.46.07.91.08,1.06-.2.19-.3.12-.83.03-1.41-.15-1.19-.3-2.44-.47-3.75-.62-5.33-.95-9.67-.73-9.69.22-.02.89,4.28,1.51,9.61.14,1.31.28,2.56.41,3.76.04.55.19,1.21-.21,1.82-.21.31-.6.47-.9.47-.31.02-.56-.04-.79-.09-1.81-.35-2.91-.62-2.9-.72Z" style="fill: #263238;"/>
          <path d="m697.83,269.12c.29.06-.19,1.96,1.11,3.73,1.29,1.77,3.38,2.07,3.33,2.34,0,.13-.55.26-1.41.06-.85-.18-2.01-.76-2.8-1.84-.79-1.08-.94-2.3-.81-3.1.13-.82.46-1.24.59-1.19Z" style="fill: #263238;"/>
          <path d="m702.1,246.95c-.29.43-1.99-.23-4.12-.5-2.12-.31-3.94-.13-4.1-.62-.07-.24.33-.61,1.12-.91.78-.29,1.96-.47,3.23-.29,1.27.18,2.36.66,3.03,1.15.68.5.97.97.84,1.18Z" style="fill: #263238;"/>
          <path d="m718.55,251.7c-.41.32-1.52-.4-2.97-.78-1.44-.44-2.76-.41-2.94-.9-.07-.23.22-.59.86-.83.63-.24,1.59-.33,2.58-.05.99.28,1.77.86,2.17,1.4.41.54.48.99.29,1.15Z" style="fill: #263238;"/>
          <path d="m680.08,255.89c-.17-.13-7.28-4.3-8.99,3.58-1.72,7.89,6.55,7.98,6.62,7.76.06-.22,2.38-11.34,2.38-11.34Z" style="fill: #b2655f;"/>
          <path d="m675.94,263.72s-.16.07-.41.12c-.25.05-.65.04-1.03-.2-.77-.49-1.18-1.96-.91-3.39.14-.72.44-1.37.81-1.88.37-.52.83-.85,1.26-.83.44,0,.68.31.73.55.06.24-.03.39.01.41.02.02.2-.1.21-.43,0-.16-.05-.37-.2-.56-.16-.2-.42-.33-.72-.37-.62-.09-1.29.35-1.7.91-.45.56-.8,1.28-.95,2.09-.3,1.6.19,3.26,1.26,3.84.52.27,1.02.2,1.3.06.29-.14.37-.31.34-.33Z" style="fill: #8e4842;"/>
          <path d="m719.06,239.44c1.43-.44-1.55-5.38-4.39-7.46-4.3-3.14-11.28-5.98-15.91-5.65-5.58.4-10.51,2.11-14.16,6.35-3.65,4.25-5.81,9.63-6.8,15.14-.3,1.68-.49,3.46.11,5.06.74,1.98,2.63,3.52,2.03,5.91-.22.87-.15,1.81.32,2.58,1.12,1.84,3.19.76,4.31-.52,2.38-2.73,3.35-6.39,4.24-9.9.63-2.5,1.27-5.05,1.07-7.62-.11-1.4-.47-2.77-.51-4.17s.32-2.91,1.38-3.83c.17-.15.44-.33.78-.52,2.65-1.49,5.9-1.43,8.5.15,4.12,2.5,11.23,6.44,13.53,5.34,3.31-1.58,4.29-2.85,4.29-2.85l1.23,1.99Z" style="fill: #263238;"/>
        </g>
      </g>
      <path d="m634.99,373.95s.21-.11.64-.28c.46-.18,1.09-.42,1.88-.72,1.68-.63,4.07-1.52,7.05-2.64,6.08-2.23,14.58-5.36,24.45-8.98l-.14.34c-2.03-4.41-4.24-9.21-6.54-14.18-1.15-2.5-2.28-4.96-3.38-7.35l.27.15c-9.26,1.4-17.67,2.67-24.49,3.71h.02c-5.62,1.57-9.86,3.83-12.65,5.55-1.4.86-2.45,1.6-3.16,2.1-.33.24-.6.43-.81.58-.18.13-.28.19-.29.18,0,0,.08-.09.25-.23.2-.16.45-.37.77-.63.69-.53,1.72-1.3,3.11-2.2,2.77-1.79,7.01-4.11,12.66-5.75h.01s.01,0,.01,0c6.81-1.06,15.21-2.37,24.47-3.82l.19-.03.08.18c1.1,2.39,2.23,4.84,3.38,7.35,2.29,4.98,4.49,9.78,6.51,14.19l.11.25-.25.09c-9.89,3.56-18.42,6.62-24.51,8.81-3,1.06-5.41,1.91-7.1,2.5-.8.27-1.43.49-1.9.65-.43.14-.66.21-.67.2Z" style="fill: #263238;"/>
      <path d="m649.64,328.96c.05.05-.72.99-2.01,2.46-1.3,1.47-3.12,3.47-5.19,5.64-2.07,2.17-3.99,4.08-5.45,5.4-.73.66-1.35,1.17-1.82,1.47-.24.14-.42.28-.64.23-.11-.07-.06-.16-.05-.19.01-.04.03-.05.04-.05.02-.01,0,.13.06.15.08,0,.28-.14.48-.3.42-.34.99-.89,1.69-1.57,1.39-1.37,3.26-3.33,5.33-5.49,2.01-2.1,3.83-4,5.3-5.53,1.37-1.41,2.23-2.26,2.28-2.21Z" style="fill: #263238;"/>
      <path d="m654.4,319.13c-.1-.02.21-1.57.21-4.1.01-1.26-.11-2.76-.37-4.41-.3-1.64-.75-3.42-1.43-5.22-.7-1.79-1.56-3.42-2.44-4.83-.91-1.4-1.82-2.59-2.68-3.52-1.7-1.87-2.97-2.82-2.9-2.9.02-.03.35.19.92.62.29.21.64.48,1,.83.37.34.82.72,1.25,1.19.9.91,1.86,2.1,2.81,3.51.92,1.43,1.81,3.08,2.52,4.9.69,1.83,1.14,3.65,1.42,5.33.24,1.68.33,3.21.27,4.49,0,.64-.08,1.22-.12,1.72-.04.51-.12.94-.19,1.29-.14.7-.23,1.09-.26,1.08Z" style="fill: #263238;"/>
      <path d="m679.91,393.7c0-.09,1.26.04,3.28-.01,2.01-.05,4.8-.35,7.75-1.22,2.95-.88,5.45-2.13,7.17-3.18,1.72-1.05,2.7-1.84,2.76-1.77.02.03-.2.25-.63.62-.42.38-1.08.88-1.93,1.46-1.69,1.15-4.22,2.48-7.22,3.37-3,.88-5.85,1.14-7.89,1.09-1.02-.02-1.85-.09-2.41-.18-.57-.08-.87-.14-.87-.18Z" style="fill: #263238;"/>
      <path d="m694.76,371.62s-.21.33-.67.85c-.45.53-1.13,1.27-1.99,2.18-1.71,1.81-4.16,4.24-7,6.78-2.84,2.54-5.52,4.7-7.51,6.21-.99.75-1.81,1.35-2.38,1.74-.57.4-.9.6-.92.57-.02-.03.26-.29.8-.73.63-.51,1.39-1.14,2.28-1.87,1.92-1.57,4.56-3.78,7.39-6.31,2.82-2.53,5.3-4.91,7.08-6.65.83-.81,1.53-1.49,2.11-2.06.5-.48.79-.74.82-.72Z" style="fill: #263238;"/>
    </g>
  </g>
</svg>