<?xml version="1.0" encoding="UTF-8"?>
<svg id="Floor" xmlns="http://www.w3.org/2000/svg" xmlns:xlink="http://www.w3.org/1999/xlink" viewBox="0 0 418.72 379.13">
  <defs>
    <style>
      .cls-1, .cls-2, .cls-3, .cls-4, .cls-5, .cls-6, .cls-7, .cls-8, .cls-9, .cls-10, .cls-11, .cls-12, .cls-13, .cls-14 {
        stroke: #263238;
        stroke-width: 1.17px;
      }

      .cls-1, .cls-3, .cls-4, .cls-5, .cls-7, .cls-8, .cls-9, .cls-12, .cls-13, .cls-14 {
        stroke-linecap: round;
        stroke-linejoin: round;
      }

      .cls-1, .cls-10, .cls-15 {
        fill: #263238;
      }

      .cls-2, .cls-6, .cls-10, .cls-11 {
        stroke-miterlimit: 10;
      }

      .cls-2, .cls-7 {
        fill: none;
      }

      .cls-3 {
        fill: #7ac5ec;
      }

      .cls-4, .cls-16, .cls-11 {
        fill: #c6ff00;
      }

      .cls-5, .cls-6, .cls-17 {
        fill: #fff;
      }

      .cls-17 {
        opacity: .7;
      }

      .cls-8 {
        fill: #34a5ec;
      }

      .cls-9 {
        fill: url(#linear-gradient);
      }

      .cls-12 {
        fill: #4c4c4c;
      }

      .cls-13 {
        fill: #ccc;
      }

      .cls-14 {
        fill: #ba4b2b;
      }
    </style>
    <linearGradient id="linear-gradient" x1="163.58" y1="147.15" x2="161.13" y2="225.12" gradientUnits="userSpaceOnUse">
      <stop offset="0" stop-color="#7ac5ec"/>
      <stop offset="1" stop-color="#3485ec"/>
    </linearGradient>
  </defs>
  <g>
    <path class="cls-16" d="m16.69,202.77s2.32,72.01,62.43,120.01c60.11,48,143.41,51.43,210.84,55.99,67.43,4.56,119.23-33.61,127.03-91.32,7.81-57.7-43.72-74.64-71.68-140.33-27.96-65.69-25.47-87.28-84.62-127.68C201.55-20.96,109.01,3.85,60.5,73.06,11.98,142.27,16.69,202.77,16.69,202.77Z"/>
    <path class="cls-17" d="m16.69,202.77s2.32,72.01,62.43,120.01c60.11,48,143.41,51.43,210.84,55.99,67.43,4.56,119.23-33.61,127.03-91.32,7.81-57.7-43.72-74.64-71.68-140.33-27.96-65.69-25.47-87.28-84.62-127.68C201.55-20.96,109.01,3.85,60.5,73.06,11.98,142.27,16.69,202.77,16.69,202.77Z"/>
  </g>
  <g>
    <path class="cls-7" d="m44.82,108.72v-25.77c0-18.24,15.16-33.08,33.79-33.08s33.79,14.84,33.79,33.08v25.77h13.47v-25.77c0-25.51-21.2-46.27-47.26-46.27s-47.26,20.76-47.26,46.27v25.77h13.47Z"/>
    <rect class="cls-7" x="26.35" y="108.91" width="103.18" height="85.35"/>
    <path class="cls-7" d="m88.67,144.35c0-6.07-5.03-11-11.23-11s-11.23,4.92-11.23,11c0,4.18,2.39,7.82,5.9,9.68l-1.89,19.39h14.44l-1.89-19.39c3.51-1.86,5.9-5.5,5.9-9.68Z"/>
  </g>
  <g>
    <polygon class="cls-1" points="193.85 197.03 168.16 195.34 168.16 194.92 165.01 195.13 161.85 194.92 161.85 195.34 136.16 197.03 117.21 352.82 136.16 352.82 164.37 228.61 165.64 228.61 193.85 352.82 212.8 352.82 193.85 197.03"/>
    <g>
      <path class="cls-12" d="m117.21,352.82l-4.63,7.16-14.32,6.32s-2.53,1.26-2.53,4.21v5.47h40.84s.42-4.63,0-8.84c-.42-4.21-.42-14.32-.42-14.32h-18.95Z"/>
      <path class="cls-1" d="m95.74,371.35v4.63h40.84s.18-2.04.19-4.63h-41.03Z"/>
    </g>
    <g>
      <path class="cls-12" d="m212.72,352.82l4.63,7.16,14.32,6.32s2.53,1.26,2.53,4.21v5.47h-40.84s-.42-4.63,0-8.84c.42-4.21.42-14.32.42-14.32h18.95Z"/>
      <path class="cls-1" d="m234.19,371.35v4.63h-40.84s-.18-2.04-.19-4.63h41.03Z"/>
    </g>
    <path class="cls-3" d="m125.28,124.55s-29.96,42.16-29.96,45.25,4.77,26.95,12.35,29.19c7.58,2.25,11.79-1.68,13.19-9.54,1.4-7.86-3.37-19.09-3.37-19.09l14.04-12.63-6.25-33.18Z"/>
    <path class="cls-13" d="m119.46,188.32s8.7-1.4,10.95-.84c2.25.56,3.93,5.89,3.93,5.89,0,0,.84,7.86-.56,9.54-1.4,1.68-8.14,3.65-10.95,4.21-2.81.56-8.7-5.9-10.95-9.83-2.25-3.93,1.68-10.67,7.58-8.98Z"/>
    <polygon class="cls-9" points="131.59 122.63 125.28 124.55 135.22 190.89 194.3 190.89 203.29 124.93 195.26 121.87 165.63 115.37 131.59 122.63"/>
    <g>
      <polygon class="cls-1" points="197.56 144.81 196.22 154.37 185.89 156.86 175.38 152.65 176.14 144.05 197.56 144.81"/>
      <path class="cls-12" d="m184.74,152.56c0-1,.81-1.82,1.82-1.82s1.82.81,1.82,1.82-.81,1.82-1.82,1.82-1.82-.81-1.82-1.82Z"/>
    </g>
    <polygon class="cls-1" points="159.32 127.61 164.86 134.11 157.79 179.23 165.24 191.08 174.04 178.66 166.58 134.3 172.89 128.18 166.2 119.58 159.32 127.61"/>
    <polygon class="cls-1" points="153.96 116.33 128.53 122.63 129.3 125.69 154.15 118.81 153.96 116.33"/>
    <polygon class="cls-1" points="174.8 115.56 200.23 121.87 199.47 124.93 174.61 118.05 174.8 115.56"/>
    <path class="cls-8" d="m200.23,121.87s9.62,2.17,15.51,5.54c5.9,3.37,7.3,10.95,3.93,19.37-3.37,8.42-13.75,7.3-18.53,5.05-4.77-2.25-6.18-10.67-5.33-14.32"/>
    <polygon class="cls-3" points="155.11 113.08 152.24 114.99 153.01 134.3 165.43 125.5 178.44 134.49 179.58 115.37 176.14 112.5 155.11 113.08"/>
    <g>
      <path class="cls-1" d="m180.23,90.11s7.06-1.72,8.4-8.78c1.34-7.06-11.45-15.65-20.23-17.18-8.78-1.53-21.76,7.63-23.86,13.93-2.1,6.3,6.11,12.6,14.89,13.93,8.78,1.34,20.8-1.91,20.8-1.91Z"/>
      <path class="cls-13" d="m153.89,91.25s-3.82-5.92-4.77-.76c-.95,5.15,3.05,7.44,4.77,7.25,1.72-.19,0-6.49,0-6.49Z"/>
      <path class="cls-13" d="m178.7,91.25s3.82-5.92,4.77-.76c.95,5.15-3.05,7.44-4.77,7.25-1.72-.19,0-6.49,0-6.49Z"/>
      <polygon class="cls-13" points="154.73 102.94 154.73 115.56 165.43 125.5 177.48 115.18 177.48 103.32 154.73 102.94"/>
      <g>
        <path class="cls-13" d="m153.13,87.44s-.57,11.83.38,15.65,7.25,11.83,12.21,13.55c4.96,1.72,11.83-8.59,13.36-12.02,1.53-3.44.95-17.94.95-17.94,0,0-2.1-4.96-6.3-6.49-4.2-1.53-17.18-4.2-20.61,7.25Z"/>
        <g>
          <path class="cls-15" d="m161.07,93.72c0,.9-.41,1.63-.92,1.63s-.92-.73-.92-1.63.41-1.63.92-1.63.92.73.92,1.63Z"/>
          <path class="cls-15" d="m172.78,93.72c0,.9-.41,1.63-.92,1.63s-.92-.73-.92-1.63.41-1.63.92-1.63.92.73.92,1.63Z"/>
          <path class="cls-13" d="m163.06,98.28c-.86,0-1.56.56-1.56,1.25s.7,1.25,1.56,1.25c.43,0,.83-.14,1.11-.37.49.67,1.4,1.13,2.44,1.13s1.88-.42,2.38-1.05c.27.18.61.29.99.29.86,0,1.56-.56,1.56-1.25s-.7-1.25-1.56-1.25"/>
          <line class="cls-13" x1="164.57" y1="106.11" x2="168.56" y2="106.11"/>
        </g>
      </g>
      <path class="cls-1" d="m152.69,90.31s.14,3.83,1.42,2.84c1.28-.99,1.7-7.52.57-8.37-1.14-.85-1.99,3.55-1.99,5.54Z"/>
      <path class="cls-1" d="m177.33,90.31s.14,3.83,1.42,2.84c1.28-.99,1.7-7.52.57-8.37-1.14-.85-1.99,3.55-1.99,5.54Z"/>
      <path class="cls-12" d="m152.69,87.19s.43.34.42.52c1.85,1,6.1,2.84,12.98,3.21,5.91.32,10.97-1.78,13.97-3.43-.02-.52-.03-.82-.03-.82-.17-4.47-3.5-7.45-7.61-8.6-3.93-1.09-8.44-.91-12.24.61-1.96.79-3.75,1.97-5.06,3.65-.44.56-3.13,4.3-2.43,4.85Z"/>
      <path class="cls-12" d="m153.13,87.44s4.77,1.34,12.98.95c8.21-.38,13.92-.95,13.92-.95,0,0-5.6,5.68-13.8,6.06-8.87.41-13.09-6.06-13.09-6.06Z"/>
    </g>
    <g>
      <polygon class="cls-1" points="132.17 144.81 133.5 154.37 143.83 156.86 154.34 152.65 153.58 144.05 132.17 144.81"/>
      <path class="cls-12" d="m144.98,152.56c0-1-.81-1.82-1.82-1.82s-1.82.81-1.82,1.82.81,1.82,1.82,1.82,1.82-.81,1.82-1.82Z"/>
    </g>
    <rect class="cls-12" x="134.34" y="190.29" width="60.63" height="9.54"/>
    <rect class="cls-12" x="130.13" y="190.85" width="18.53" height="11.79" rx="2.67" ry="2.67"/>
    <rect class="cls-12" x="178.41" y="190.85" width="18.53" height="11.79" rx="2.67" ry="2.67"/>
    <rect class="cls-5" x="159.04" y="190.85" width="13.19" height="8.42"/>
    <path class="cls-7" d="m117.49,170.36s-8.42-.56-11.51-5.89"/>
    <ellipse class="cls-3" cx="211.11" cy="131.06" rx="13.9" ry="14.6" transform="translate(-36.66 112.24) rotate(-27.49)"/>
    <ellipse class="cls-3" cx="211.11" cy="123.66" rx="10.88" ry="9.75"/>
    <g>
      <ellipse class="cls-13" cx="211.11" cy="116.5" rx="10.88" ry="9.75"/>
      <g>
        <path class="cls-13" d="m193.63,95.47s.18,14.38.92,18.62c.74,4.24,3.69,9.77,7.74,9.77s7.93-1.48,7.93-1.48c0,0,4.79,2.58,9.4,1.84,4.61-.74,3.87-7.19,3.87-9.96s-.55-23.6-.55-23.6c0,0,.37-2.03-1.48-2.4-1.84-.37-2.77-.37-2.77-.37v-4.43s-.74-1.48-3.13-1.48-2.58.55-2.58.55v-4.06s-1.99-3.23-4.61-1.66c-1.84,1.11-1.84,2.95-1.84,2.95l-.18,3.87s-4.43-1.66-4.79.92c-.37,2.58-1.11,18.44-1.11,18.44,0,0-.55-4.98-1.48-7.38-.92-2.4-5.35-2.4-5.35-.18Z"/>
        <line class="cls-7" x1="206.36" y1="83.67" x2="206.72" y2="100.64"/>
        <line class="cls-7" x1="212.99" y1="82.57" x2="213.18" y2="100.82"/>
        <line class="cls-7" x1="218.71" y1="87.91" x2="218.34" y2="100.64"/>
        <line class="cls-7" x1="203.96" y1="100.45" x2="220.74" y2="101.19"/>
      </g>
      <path class="cls-7" d="m200.46,103.03s-.02,2.45,1.8,3.59c1.82,1.14,5.92,4.1,6.38,8.88"/>
    </g>
  </g>
  <g>
    <g>
      <path class="cls-15" d="m311.19,57.85v2.18h-5.33v7.76h6.54v2.21h-8.97v-21.81h8.97v2.21h-6.54v7.45h5.33Z"/>
      <path class="cls-15" d="m319.51,48.19c3.43,0,4.86,1.74,4.86,4.98v1.77c0,2.4-.84,3.89-2.71,4.49,1.99.59,2.74,2.21,2.74,4.55v3.4c0,.96.03,1.87.44,2.62h-2.46c-.28-.62-.4-1.18-.4-2.65v-3.43c0-2.46-1.15-3.24-3.18-3.24h-1.71v9.31h-2.43v-21.81h4.86Zm-.62,10.28c1.93,0,3.08-.62,3.08-2.99v-2.09c0-1.96-.72-2.99-2.52-2.99h-2.37v8.07h1.81Z"/>
      <path class="cls-15" d="m331.78,48.19c3.43,0,4.86,1.74,4.86,4.98v1.77c0,2.4-.84,3.89-2.71,4.49,1.99.59,2.74,2.21,2.74,4.55v3.4c0,.96.03,1.87.44,2.62h-2.46c-.28-.62-.4-1.18-.4-2.65v-3.43c0-2.46-1.15-3.24-3.18-3.24h-1.71v9.31h-2.43v-21.81h4.86Zm-.62,10.28c1.93,0,3.08-.62,3.08-2.99v-2.09c0-1.96-.72-2.99-2.52-2.99h-2.37v8.07h1.81Z"/>
      <path class="cls-15" d="m339.01,53.46c0-3.33,1.65-5.48,4.98-5.48s5.01,2.15,5.01,5.48v11.28c0,3.3-1.65,5.48-5.01,5.48s-4.98-2.18-4.98-5.48v-11.28Zm2.4,11.4c0,1.99.84,3.15,2.59,3.15s2.58-1.15,2.58-3.15v-11.53c0-1.96-.81-3.15-2.58-3.15s-2.59,1.18-2.59,3.15v11.53Z"/>
      <path class="cls-15" d="m356.17,48.19c3.43,0,4.86,1.74,4.86,4.98v1.77c0,2.4-.84,3.89-2.71,4.49,1.99.59,2.74,2.21,2.74,4.55v3.4c0,.96.03,1.87.44,2.62h-2.46c-.28-.62-.4-1.18-.4-2.65v-3.43c0-2.46-1.15-3.24-3.18-3.24h-1.71v9.31h-2.43v-21.81h4.86Zm-.62,10.28c1.93,0,3.08-.62,3.08-2.99v-2.09c0-1.96-.72-2.99-2.52-2.99h-2.37v8.07h1.81Z"/>
    </g>
    <g>
      <path class="cls-15" d="m290.59,193.92v2.21h-5.02v9.44h-2.43v-21.81h8.66v2.21h-6.23v7.94h5.02Z"/>
      <path class="cls-15" d="m293.55,189.03c0-3.33,1.65-5.48,4.98-5.48s5.01,2.15,5.01,5.48v11.28c0,3.3-1.65,5.48-5.01,5.48s-4.98-2.18-4.98-5.48v-11.28Zm2.4,11.4c0,1.99.84,3.15,2.59,3.15s2.58-1.15,2.58-3.15v-11.53c0-1.96-.81-3.15-2.58-3.15s-2.59,1.18-2.59,3.15v11.53Z"/>
      <path class="cls-15" d="m310.71,183.76c3.43,0,4.86,1.74,4.86,4.98v1.77c0,2.4-.84,3.89-2.71,4.49,1.99.59,2.74,2.21,2.74,4.55v3.4c0,.96.03,1.87.44,2.62h-2.46c-.28-.62-.41-1.18-.41-2.65v-3.43c0-2.46-1.15-3.24-3.18-3.24h-1.71v9.31h-2.43v-21.81h4.86Zm-.62,10.28c1.93,0,3.08-.62,3.08-2.99v-2.09c0-1.96-.72-2.99-2.52-2.99h-2.37v8.07h1.81Z"/>
      <path class="cls-15" d="m323.01,183.76c3.39,0,4.73,1.62,4.73,4.83v1.03c0,2.31-.65,3.74-2.55,4.33,2.12.59,2.93,2.27,2.93,4.67v1.84c0,3.27-1.59,5.11-4.98,5.11h-5.01v-21.81h4.89Zm-.59,9.25c1.93,0,2.93-.62,2.93-2.9v-1.28c0-1.93-.65-2.87-2.4-2.87h-2.4v7.04h1.87Zm.72,10.34c1.78,0,2.58-.93,2.58-2.96v-1.93c0-2.43-.96-3.24-3.05-3.24h-2.12v8.13h2.59Z"/>
      <path class="cls-15" d="m332.76,183.76v21.81h-2.43v-21.81h2.43Z"/>
      <path class="cls-15" d="m340.36,183.76c3.4,0,4.95,2.06,4.95,5.42v11c0,3.33-1.56,5.39-4.95,5.39h-5.11v-21.81h5.11Zm-.03,19.59c1.74,0,2.59-1.09,2.59-3.08v-11.22c0-1.99-.84-3.08-2.62-3.08h-2.62v17.38h2.65Z"/>
      <path class="cls-15" d="m352.7,183.76c3.4,0,4.95,2.06,4.95,5.42v11c0,3.33-1.56,5.39-4.95,5.39h-5.11v-21.81h5.11Zm-.03,19.59c1.74,0,2.59-1.09,2.59-3.08v-11.22c0-1.99-.84-3.08-2.62-3.08h-2.62v17.38h2.65Z"/>
      <path class="cls-15" d="m367.68,193.42v2.18h-5.33v7.76h6.54v2.21h-8.97v-21.81h8.97v2.21h-6.54v7.45h5.33Z"/>
      <path class="cls-15" d="m373.29,205.57h-2.18v-21.81h3.08l5.05,15.76v-15.76h2.15v21.81h-2.52l-5.58-17.63v17.63Z"/>
    </g>
    <g>
      <path class="cls-15" d="m267.76,137.29l22.24-52.61h13.35v52.61h5.78v11.12h-5.78v14.13h-12.01v-14.13h-23.58v-11.12Zm23.58,0v-29.25l-12.35,29.25h12.35Z"/>
      <path class="cls-15" d="m313.69,103.37c0-12.46,6.56-19.57,18.57-19.57s18.57,7.12,18.57,19.57v40.49c0,12.46-6.56,19.57-18.57,19.57s-18.57-7.12-18.57-19.57v-40.49Zm12.23,41.26c0,5.56,2.45,7.67,6.34,7.67s6.34-2.11,6.34-7.67v-42.04c0-5.56-2.45-7.67-6.34-7.67s-6.34,2.11-6.34,7.67v42.04Z"/>
      <path class="cls-15" d="m382.31,103.82c0-7.01-2.45-8.9-6.34-8.9s-6.34,2.11-6.34,7.67v5.01h-11.57v-4.23c0-12.46,6.23-19.57,18.24-19.57s18.24,7.12,18.24,19.57v2c0,8.34-2.67,13.57-8.56,16.02,6.12,2.67,8.56,8.45,8.56,16.35v6.12c0,12.46-6.23,19.57-18.24,19.57s-18.24-7.12-18.24-19.57v-6.45h11.57v7.23c0,5.56,2.45,7.67,6.34,7.67s6.34-1.89,6.34-8.79v-6.12c0-7.23-2.45-9.9-8.01-9.9h-4.12v-11.12h4.78c4.56,0,7.34-2,7.34-8.23v-4.34Z"/>
    </g>
  </g>
  <g>
    <g>
      <polygon class="cls-10" points="48.08 375.54 33.83 375.54 52.83 243.02 67.09 243.02 48.08 375.54"/>
      <polygon class="cls-6" points="76.6 375.54 90.85 375.54 71.84 243.02 57.59 243.02 76.6 375.54"/>
    </g>
    <polygon class="cls-10" points="250.39 375.54 236.14 375.54 255.15 243.02 269.4 243.02 250.39 375.54"/>
    <polygon class="cls-6" points="278.91 375.54 293.16 375.54 274.15 243.02 259.9 243.02 278.91 375.54"/>
    <g>
      <rect class="cls-11" x="16.94" y="222.25" width="271.93" height="26.36"/>
      <rect class="cls-11" x="23.57" y="222.25" width="271.93" height="26.36"/>
      <g>
        <polygon class="cls-15" points="28.02 248.61 51.11 248.61 63.03 222.25 39.95 222.25 28.02 248.61"/>
        <polygon class="cls-15" points="119.38 222.25 96.3 222.25 84.37 248.61 107.45 248.61 119.38 222.25"/>
        <polygon class="cls-15" points="288.43 222.25 265.34 222.25 253.42 248.61 276.5 248.61 288.43 222.25"/>
        <polygon class="cls-15" points="232.08 222.25 209 222.25 197.07 248.61 220.15 248.61 232.08 222.25"/>
        <polygon class="cls-15" points="175.73 222.25 152.65 222.25 140.72 248.61 163.8 248.61 175.73 222.25"/>
      </g>
      <g>
        <line class="cls-2" x1="294.01" y1="233.94" x2="249.01" y2="233.94"/>
        <line class="cls-2" x1="293.23" y1="238.35" x2="286.12" y2="238.35"/>
        <line class="cls-2" x1="22.42" y1="237.25" x2="67.42" y2="237.25"/>
        <line class="cls-2" x1="23.21" y1="232.29" x2="80.06" y2="232.29"/>
      </g>
    </g>
  </g>
  <g>
    <g>
      <rect class="cls-1" x="292.58" y="369.76" width="77.14" height="5.79"/>
      <g>
        <polygon class="cls-14" points="356.7 369.59 305.6 369.59 325.63 260.64 336.67 260.64 356.7 369.59"/>
        <polygon class="cls-5" points="318.19 301.13 344.12 301.13 341.64 287.63 320.67 287.63 318.19 301.13"/>
      </g>
    </g>
    <line class="cls-4" x1="349.02" y1="351.41" x2="350.31" y2="358.86"/>
    <line class="cls-4" x1="334.43" y1="266.66" x2="347.41" y2="342.03"/>
  </g>
  <g>
    <line class="cls-7" x1="411.22" y1="375.54" x2="418.13" y2="375.54"/>
    <line class="cls-7" x1=".58" y1="375.54" x2="401.57" y2="375.54"/>
  </g>
</svg>