<?xml version="1.0" encoding="UTF-8"?>
<svg id="Layer_2" data-name="Layer 2" xmlns="http://www.w3.org/2000/svg" width="475.87" height="183.79"
     viewBox="0 0 475.87 183.79">
  <defs>
    <linearGradient id="linear-gradient" x1="144.9" y1="95.79" x2="273.66" y2="11.09" gradientUnits="userSpaceOnUse">
      <stop offset="0" stop-color="#063526"/>
      <stop offset="1" stop-color="#2e963a"/>
    </linearGradient>
  </defs>
  <g id="Layer_1-2" data-name="Layer 1">
    <path d="m153.8,117.84c-7.46.2-15.67.3-23.36-3.34-15.03-7.12-23.55-18.64-24.59-35.54-1.05-16.99,10.31-33.62,26.07-39.3,2.51-.9,5.09-1.65,7.7-2.19,1.98-.41,2.89-1.33,3.28-3.32,3.54-18.09,14.81-29.37,32.33-33.2,14.91-3.26,27.87,2.08,38.11,13.56,5.1,5.72,8.13,12.39,9.36,19.91.29,1.75,1.07,2.67,3.02,3.04,17.27,3.26,30.83,16.02,33.56,32.97,2.45,15.17-2.25,29.76-17.15,40.09-7.34,5.09-15.28,7.39-24.06,7.36-5.78-.02-11.56-.06-17.34.03-2.29.03-3.38-.7-3.36-3.16.01-2.3.07-4.24,3.1-4.23,5.66,0,11.32.1,16.97-.07,6.5-.2,12.87-1.09,18.61-4.54,17.17-10.34,21.92-33.67,8.59-49.42-6.29-7.43-14.35-11.15-23.97-11.53-3.24-.13-4.76-1.18-4.96-4.75-.7-12.37-6.02-22.25-17.15-28.22-20.68-11.08-45.21,1.66-48.19,24.87-.97,7.52-.82,7.54-8.4,8.12-15.1,1.14-27.89,15.65-28.72,30.86-.91,16.65,12.61,32.44,29.15,34.11,7.25.73,14.46.32,21.68.5,2.88.07,4.17.79,4.17,3.99,0,3.22-1.39,3.64-4.07,3.46-3.18-.22-6.39-.05-10.36-.05Z" style="fill: url(#linear-gradient);"/>
    <path d="m475.02,139.41c-.06-.04-.52-.35-1.15-.35-.55,0-1.28.43-2.18,1.3-.9.86-1.88,1.91-2.92,3.12-1.04,1.22-2.1,2.48-3.18,3.8-1.08,1.32-2.07,2.41-2.98,3.27-2.32,2.24-4.57,4.3-6.75,6.19-2.18,1.89-4.29,3.53-6.33,4.92-2.04,1.39-3.99,2.48-5.83,3.27-1.85.79-3.61,1.18-5.3,1.18-2.2,0-3.89-.53-5.07-1.59-1.18-1.06-2.08-2.45-2.71-4.15-.63-1.71-1.05-3.64-1.27-5.8-.22-2.16-.44-4.34-.68-6.54-.27-2.59-.64-4.97-1.09-7.13-.45-2.16-1.09-4.02-1.92-5.57-.82-1.55-1.91-2.77-3.27-3.65-1.36-.88-3.05-1.33-5.1-1.33-1.93,0-3.68.32-5.27.97-1.59.65-3.09,1.53-4.51,2.65-1.41,1.12-2.78,2.43-4.1,3.92-1.32,1.49-2.64,3.1-3.98,4.83-1.81,2.32-3.49,4.44-5.04,6.36-1.55,1.92-2.98,3.69-4.27,5.3-2.51,3.18-4.32,4.83-5.42,4.95-.24-.75-.35-1.47-.35-2.18,0-1.02.09-2.17.27-3.45.18-1.28.39-2.58.65-3.92.26-1.34.53-2.65.82-3.95.29-1.3.56-2.47.8-3.54.31-1.3.63-2.45.94-3.45.31-1,.61-1.93.88-2.8.27-.86.49-1.71.65-2.53.16-.82.24-1.71.24-2.65,0-1.53-.25-2.73-.74-3.59-.49-.86-1.05-1.3-1.68-1.3-.51,0-1.01.03-1.5.09-.49.06-.96.2-1.41.41-.45.22-.9.55-1.33,1-.43.45-.84,1.07-1.24,1.86-.82,1.69-1.54,3.53-2.15,5.51-.61,1.98-1.15,4.03-1.62,6.13-.27,1.22-.51,2.43-.73,3.65l-2.04,2.04c-2.67,2.67-5.36,5.21-8.07,7.63-2.71,2.42-5.74,4.84-9.07,7.28-1.81,1.3-3.74,2.56-5.8,3.8-2.06,1.24-4.19,2.34-6.39,3.3-2.2.96-4.44,1.74-6.72,2.33s-4.54.88-6.78.88c-4.01,0-7.16-.99-9.46-2.98-2.3-1.98-3.45-4.88-3.45-8.69,2.91-1.89,5.39-3.68,7.45-5.39,2.06-1.71,3.94-3.27,5.63-4.68,2.67-2.24,4.95-4.33,6.84-6.28,1.89-1.94,3.41-3.83,4.57-5.66,1.16-1.83,1.98-3.61,2.47-5.36.49-1.75.7-3.53.62-5.33-.08-1.61-.44-3.08-1.09-4.42-.65-1.33-1.52-2.63-2.62-3.89-.35-.43-.82-.8-1.41-1.09-.59-.29-1.2-.54-1.83-.74-.63-.2-1.22-.33-1.77-.41-.55-.08-.98-.12-1.3-.12-1.3.08-2.58.31-3.86.71-1.28.39-2.52.92-3.71,1.59-1.2.67-2.34,1.43-3.42,2.3-1.08.86-2.05,1.77-2.92,2.71-4.6,5.38-7.85,10.98-9.75,16.79-.38,1.15-.7,2.3-1.01,3.46-2.01,2-4.15,4.04-6.45,6.14-4.2,3.85-8.56,7.27-13.08,10.25-4.56,2.95-8.45,4.42-11.67,4.42-.91,0-1.59-1.47-2.06-4.42-.47-2.95-.77-5.99-.88-9.13-.12-3.1-.18-5.79-.18-8.07,0-2.87.16-5.7.47-8.48.31-2.79.73-5.77,1.24-8.96.04-.27.16-.97.35-2.09.2-1.12.41-2.34.65-3.65.24-1.32.45-2.56.65-3.74.2-1.18.31-1.96.35-2.36.63-3.46,1.21-6.43,1.74-8.93.53-2.49.95-4.59,1.27-6.28.31-1.69.56-3.06.74-4.12s.27-1.83.27-2.3c0-.86-.61-1.53-1.83-2-1.14-.51-2.3-.77-3.48-.77-2.36,0-4,.81-4.95,2.42-.39.63-.71,1.99-.94,4.1-.24,2.1-.47,4.68-.71,7.75-.12,1.49-.22,2.79-.29,3.89-.08,1.1-.16,2-.23,2.71-.24,2.67-.5,5.18-.8,7.51-.29,2.34-.62,4.57-.97,6.69s-.77,4.17-1.24,6.16c-.47,1.98-1,3.94-1.59,5.86,0-1.61-.33-3.85-1-6.72-.67-2.71-1.65-5.09-2.95-7.13-1.29-2.04-2.87-3.06-4.71-3.06-5.48,0-10.69,1.48-12.2,2.3-5.2,2.83-14.38,5.69-31.91,5.96h0c-7.38-.01-14.76-.09-22.13.03-2.41.04-4.04-.74-4.84-3.01-2.04-5.8-2.6-11.81-1.22-17.74,3.64-15.66,15.43-25.18,31.88-25.76,4-.14,3.71-2.43,3.79-5.15.08-2.85-1.41-3.8-3.84-3.68-11.17.56-20.99,4.35-29.07,12.28-.81.8-1.39,2.54-2.72,2.02-1.3-.52-.64-2.17-.64-3.33-.02-14.26-.04-28.53.03-42.79.01-2.95-.69-4.51-4.14-4.49-3.28.01-4.73.9-4.67,4.36.13,8.11.03,16.23.02,24.35,0,6.64,0,13.28-.03,19.92,0,.68.36,1.56-.39,2.02-.9.55-1.29-.38-1.76-.86-7.93-8.2-17.53-12.72-28.97-13.32-2.67-.14-4.98-.28-5.15,3.37-.21,4.34.4,5.22,4.45,5.21,1.87,0,3.64.46,5.45.75,19.06,3.1,31.15,23.38,24.93,41.66-1.02,3-2.55,4.25-5.85,4.22-11.86-.13-23.71-.05-35.57-.09-.88-.22-1.77-.4-2.69-.51-1.41-.16-2.63-.22-3.65-.18-2.12.12-4.83.96-8.13,2.53-2.91,1.26-5.93,3.33-9.07,6.22-3.14,2.89-6.09,6.61-8.84,11.17-.71,1.18-1.3,2.18-1.77,3.01-.47.82-.9,1.58-1.3,2.27-.39.69-.76,1.35-1.09,1.97-.33.63-.7,1.35-1.09,2.15-.39.81-.83,1.74-1.33,2.8-.49,1.06-1.07,2.34-1.74,3.83.31-2.51.57-4.63.77-6.33.2-1.71.39-3.31.59-4.8.2-1.49.44-3.03.74-4.63.29-1.59.72-3.51,1.27-5.75.27-1.14.55-2.34.83-3.59.27-1.26.51-2.5.71-3.74.2-1.24.33-2.44.41-3.59.08-1.16.1-2.23.06-3.21-.04-.31-.19-.67-.44-1.06-.26-.39-.57-.77-.94-1.12-.37-.35-.79-.64-1.24-.85-.45-.22-.88-.32-1.27-.32-1.49.08-2.62.57-3.39,1.47-.77.9-1.37,2.28-1.8,4.12-.43,1.61-.85,3.64-1.24,6.1-.2,1.25-.4,2.54-.59,3.86-.52.56-1.02,1.12-1.51,1.68-.49.57-.84.97-1.03,1.21-2.47,2.59-4.99,5.04-7.54,7.34-2.55,2.3-5.12,4.32-7.69,6.07-2.57,1.75-5.12,3.12-7.63,4.12s-4.97,1.5-7.36,1.5c-1.45,0-2.76-.36-3.92-1.09s-2.14-1.66-2.95-2.8c-.81-1.14-1.42-2.41-1.86-3.8-.43-1.39-.65-2.76-.65-4.1,0-2.36.27-4.64.8-6.86.53-2.22,1.11-4.68,1.74-7.4.59-2.16.88-3.89.88-5.18,0-.47-.14-1.12-.41-1.94-.28-.82-.62-1.65-1.03-2.47-.41-.82-.85-1.57-1.33-2.24-.47-.67-.88-1.12-1.24-1.36-.71-.43-1.49-.76-2.36-.97-.86-.22-1.75-.37-2.65-.47-.9-.1-1.82-.15-2.74-.15h-2.62c-1.65,0-3.54.45-5.66,1.36-2.12.9-4.28,2.09-6.48,3.57-2.2,1.47-4.32,3.14-6.36,5.01-2.04,1.87-3.81,3.74-5.3,5.63-1.41,1.81-2.86,3.87-4.33,6.19-1.47,2.32-2.81,4.76-4.01,7.34-1.2,2.57-2.17,5.21-2.92,7.93-.75,2.71-1.12,5.36-1.12,7.95,0,1.3.19,2.77.56,4.42.37,1.65.94,3.2,1.71,4.66.77,1.45,1.73,2.68,2.89,3.68,1.16,1,2.54,1.5,4.15,1.5,1.06,0,2.25-.17,3.57-.5,1.32-.33,2.63-.77,3.95-1.3,1.32-.53,2.57-1.11,3.77-1.74,1.2-.63,2.23-1.22,3.09-1.77,1.53-1.02,3.02-2.14,4.48-3.36,1.45-1.22,2.86-2.47,4.21-3.77,1.36-1.3,2.66-2.58,3.92-3.86,1.26-1.28,2.45-2.5,3.59-3.68.39,1.65,1.06,3.16,2,4.54s2.06,2.55,3.36,3.54c1.3.98,2.68,1.74,4.15,2.27,1.47.53,2.94.8,4.39.8,3.14.04,6.06-.42,8.75-1.38,2.69-.96,5.27-2.25,7.75-3.86,2.47-1.61,4.88-3.47,7.22-5.57,2.34-2.1,4.72-4.27,7.16-6.51.71-.63,1.38-1.29,2.03-1.97.44-.47.83-.9,1.22-1.34-.04.38-.09.76-.13,1.14-.28,2.67-.51,5.03-.71,7.07-.16,1.65-.3,3.13-.44,4.45-.14,1.32-.25,2.57-.32,3.77-.08,1.2-.13,2.44-.15,3.71-.02,1.28.03,2.7.15,4.27.35,5.78,1.89,8.58,4.6,8.43.24,0,.69-.08,1.36-.24.67-.16,1.36-.35,2.09-.59.73-.23,1.38-.5,1.97-.79.59-.29.92-.6,1-.91.31-.94.54-1.83.68-2.68.14-.84.36-1.82.68-2.92.59-2,1.21-3.91,1.86-5.72.65-1.81,1.31-3.55,1.97-5.24,3.57-8.21,7.82-14.77,12.73-19.68,1.91-1.92,4-3.51,6.27-4.77,4.67-2.58,9.22-3.11,12.47-3.48,2.64-.3,3.68-.2,6.69-.29,4.32-.14,24.76-1.07,25.97.08.36.34.51.75.51.75.53,1.61-.95,2.36-2.04,3.13-5.86,4.15-12.41,6.38-19.57,6.27-3.3-.05-3.54,1.64-3.52,4.11.02,2.47.32,4.11,3.59,4.15,10.58.13,19.59-3.56,27.59-10.27,1.5-1.26,3.22-4.56,4.55-3.28,1.68,1.62.91,5.02.1,7.6-.53,1.7-1.91,2.84-3.11,4.05-4.42,4.44-8.76,8.96-13.35,13.21-2.38,2.2-1.91,3.81.02,5.85,1.94,2.05,3.55,2.65,5.79.27,4.21-4.47,8.68-8.69,12.94-13.1,1.87-1.93,3.4-1.9,5.26.01,4.19,4.32,8.6,8.44,12.71,12.84,2.26,2.42,3.94,2.18,6.08-.06,2.04-2.14,2.1-3.79-.1-5.89-4.72-4.49-9.22-9.2-13.88-13.74-2.14-2.09-3.52-4.38-3.05-7.49.19-1.27-.8-3.13.5-3.71,1.58-.7,2.43,1.3,3.42,2.24,7.92,7.5,17.25,11.33,28.2,11.49,3.33.05,4.13-1.13,4.18-4.27.05-3.15-1-4.01-4.02-4-7.32.03-13.86-2.56-19.72-6.84-.87-.64-2.55-1.19-1.89-2.74.1-.23.23-.4.39-.52.79-.6,2.61-.09,2.61-.09,3.93,1.19,23.16-4.46,26.83,1.49.71,1.14.68,2.46.64,4.18-.06,3.12-1.32,5.27-2.4,7.32-.97,1.84-3.6,8.03-5.69,14.14-.59,1.73-.88,4.36-.88,7.9,0,2.63.61,5.17,1.83,7.6,1.22,2.47,2.98,3.71,5.3,3.71,8.41,0,16.54-3.57,24.4-10.72,7.81-7.11,14.18-15.24,19.09-24.39.39,4.09.88,7.78,1.47,11.08s1.59,6.46,3.01,9.49c1.45,3.03,3.42,5.11,5.89,6.25,1.22.55,2.22.83,3.01.83,2.01,0,4.67-1.14,8.02-3.42,1.69-1.14,3.42-2.42,5.18-3.83,1.77-1.41,3.59-3.01,5.48-4.77,1.89-1.77,3.67-3.51,5.36-5.21,1.15-1.16,2.23-2.34,3.29-3.53-.11,1.43-.16,2.87-.16,4.32,0,7.39,1.74,12.9,5.22,16.56,3.48,3.65,8.36,5.48,14.64,5.48,2.91.04,5.92-.39,9.05-1.3,3.12-.9,6.25-2.19,9.4-3.86,3.14-1.67,6.25-3.65,9.34-5.95,3.08-2.3,6.05-4.77,8.9-7.42,2.85-2.65,5.54-5.45,8.07-8.4.31-.36.6-.72.9-1.07-.01.12-.03.25-.05.37-.47,4.24-.71,7.41-.71,9.49,0,7.86,1.73,12.16,5.19,12.9,1.02-.31,2.2-1.04,3.54-2.18,1.33-1.14,2.7-2.45,4.09-3.95,1.39-1.49,2.76-3.06,4.1-4.71,1.33-1.65,2.49-3.16,3.48-4.54,2-2.83,3.75-5.26,5.24-7.31,1.49-2.04,2.82-3.77,3.98-5.19,1.16-1.41,2.17-2.55,3.03-3.42.86-.86,1.66-1.53,2.39-2,.73-.47,1.42-.79,2.09-.94.67-.16,1.37-.24,2.12-.24.94,0,1.71.32,2.3.97.59.65,1.09,1.57,1.5,2.77.41,1.2.78,2.67,1.09,4.42.31,1.75.65,3.72,1,5.92.27,1.77.62,3.56,1.03,5.36.41,1.81.9,3.52,1.47,5.13.57,1.61,1.24,3.07,2,4.39.77,1.32,1.66,2.39,2.68,3.21,2.04,1.65,4.69,2.47,7.95,2.47,1.69,0,3.24-.18,4.65-.53,1.41-.35,2.77-.83,4.07-1.41,1.3-.59,2.58-1.3,3.86-2.12,1.28-.82,2.62-1.71,4.04-2.65,1.77-1.18,3.57-2.53,5.42-4.07,1.85-1.53,3.64-3.16,5.39-4.89,1.75-1.73,3.39-3.51,4.92-5.33,1.53-1.83,2.87-3.62,4.01-5.39.43-.67.88-1.36,1.36-2.09.47-.73.89-1.47,1.27-2.24.37-.77.69-1.53.94-2.3.38-1.12.54-1.7.38-2.27-.05-.18-.22-.78-.8-1.18Zm-154.85,9.19c.22-1.1.47-2.21.77-3.33.29-1.12.61-2.22.94-3.3.33-1.08.72-2.05,1.15-2.92,1.85-3.97,3.81-7.16,5.89-9.58,2.08-2.42,4.16-3.68,6.25-3.8.47,0,.88.13,1.24.38.35.26.67.6.94,1.03.27.43.48.93.62,1.5.14.57.23,1.15.27,1.74.04,1.22-.18,2.42-.65,3.59-.47,1.18-1.11,2.32-1.92,3.42-.81,1.1-1.7,2.15-2.68,3.15-.98,1-1.94,1.94-2.89,2.8-1.49,1.38-3.1,2.71-4.83,4.01-1.73,1.3-3.62,2.71-5.66,4.24.16-.86.34-1.85.56-2.95Zm-283.99,4.54c-2.12,3.58-4.68,6.73-7.69,9.46-3,2.73-6.35,4.88-10.05,6.45-2.71,1.14-4.97,1.71-6.78,1.71-.55,0-1.01-.22-1.38-.65-.37-.43-.67-.95-.88-1.56-.22-.61-.37-1.24-.47-1.89-.1-.65-.15-1.17-.15-1.56,0-1.3.2-2.74.59-4.33.39-1.59.92-3.24,1.59-4.95.67-1.71,1.45-3.44,2.36-5.18.9-1.75,1.84-3.42,2.8-5.01.96-1.59,1.94-3.05,2.95-4.39,1-1.34,1.95-2.45,2.86-3.36,1.06-1.1,2.15-2.15,3.27-3.15,1.12-1,2.29-1.89,3.51-2.65,1.22-.77,2.46-1.36,3.74-1.8,1.28-.43,2.6-.65,3.98-.65.63,0,1.26,0,1.89-.03.63-.02,1.16.29,1.59.91.43.63.69,1.43.77,2.42.08.98.12,1.81.12,2.47,0,6.29-1.53,12.2-4.6,17.74Zm225.59-3.36c-.73,1.22-1.52,2.32-2.39,3.3-.86.98-2.04,2.28-3.54,3.89-1.49,1.61-3.36,3.59-5.6,5.95-2.16,2.16-5.23,4.6-9.19,7.31-3.85,2.55-6.88,3.83-9.07,3.83-2.48,0-3.71-1.83-3.71-5.48,0-2.87,1.16-6.8,3.48-11.78.67-1.41,1.48-3.02,2.44-4.83.96-1.81,2.13-3.79,3.51-5.95,1.26-2,2.64-4.03,4.15-6.07,1.51-2.04,3.17-4.18,4.98-6.42,3.57-4.36,6.4-6.54,8.48-6.54.71,0,1.42.27,2.15.8.73.53,1.38,1.18,1.97,1.94s1.07,1.59,1.44,2.47c.37.88.56,1.68.56,2.39,0,.82-.12,2-.35,3.54-.24,1.53-.35,2.69-.35,3.48,0,.98.26,1.87.79,2.65s1.31,1.3,2.33,1.53c-.67,1.45-1.37,2.79-2.09,4.01Z"/>
  </g>
</svg>