<svg xmlns="http://www.w3.org/2000/svg" xmlns:xlink="http://www.w3.org/1999/xlink" viewBox="0 0 177.62 165.66"><defs><style>.cls-1{fill:none;}.cls-2{isolation:isolate;}.cls-3{clip-path:url(#clip-path);}.cls-4{fill:url(#linear-gradient);}.cls-10,.cls-11,.cls-12,.cls-13,.cls-14,.cls-15,.cls-16,.cls-17,.cls-18,.cls-19,.cls-20,.cls-21,.cls-22,.cls-23,.cls-24,.cls-29,.cls-30,.cls-31,.cls-32,.cls-33,.cls-34,.cls-35,.cls-36,.cls-37,.cls-38,.cls-39,.cls-40,.cls-41,.cls-42,.cls-43,.cls-44,.cls-45,.cls-46,.cls-49,.cls-5,.cls-50,.cls-51,.cls-52,.cls-53,.cls-56,.cls-57,.cls-58,.cls-59,.cls-6,.cls-60,.cls-61,.cls-62,.cls-63,.cls-64,.cls-65,.cls-66,.cls-67,.cls-68,.cls-69,.cls-7,.cls-70,.cls-71,.cls-72,.cls-75,.cls-76,.cls-77,.cls-78,.cls-79,.cls-8,.cls-82,.cls-83,.cls-84,.cls-85,.cls-86,.cls-87,.cls-88,.cls-89,.cls-9,.cls-90,.cls-91,.cls-92,.cls-93,.cls-94,.cls-95,.cls-96,.cls-97,.cls-98{mix-blend-mode:soft-light;}.cls-5{fill:url(#linear-gradient-2);}.cls-6{fill:url(#linear-gradient-3);}.cls-7{fill:url(#linear-gradient-4);}.cls-8{fill:url(#linear-gradient-5);}.cls-9{fill:url(#linear-gradient-6);}.cls-10{fill:url(#linear-gradient-7);}.cls-11{fill:url(#linear-gradient-8);}.cls-12{fill:url(#linear-gradient-9);}.cls-13{fill:url(#linear-gradient-10);}.cls-14{fill:url(#linear-gradient-11);}.cls-15{fill:url(#linear-gradient-12);}.cls-16{fill:url(#linear-gradient-13);}.cls-17{fill:url(#linear-gradient-14);}.cls-18{fill:url(#linear-gradient-15);}.cls-19{fill:url(#linear-gradient-16);}.cls-20{fill:url(#linear-gradient-17);}.cls-21{fill:url(#linear-gradient-18);}.cls-22{fill:url(#linear-gradient-19);}.cls-23{fill:url(#linear-gradient-20);}.cls-24{fill:url(#linear-gradient-21);}.cls-25{fill:#fff;}.cls-26{fill:#0e0f0e;}.cls-27{clip-path:url(#clip-path-2);}.cls-28{fill:url(#linear-gradient-22);}.cls-29{fill:url(#linear-gradient-23);}.cls-30{fill:url(#linear-gradient-24);}.cls-31{fill:url(#linear-gradient-25);}.cls-32{fill:url(#linear-gradient-26);}.cls-33{fill:url(#linear-gradient-27);}.cls-34{fill:url(#linear-gradient-28);}.cls-35{fill:url(#linear-gradient-29);}.cls-36{fill:url(#linear-gradient-30);}.cls-37{fill:url(#linear-gradient-31);}.cls-38{fill:url(#linear-gradient-32);}.cls-39{fill:url(#linear-gradient-33);}.cls-40{fill:url(#linear-gradient-34);}.cls-41{fill:url(#linear-gradient-35);}.cls-42{fill:url(#linear-gradient-36);}.cls-43{fill:url(#linear-gradient-37);}.cls-44{fill:url(#linear-gradient-38);}.cls-45{fill:url(#linear-gradient-39);}.cls-46{fill:url(#linear-gradient-40);}.cls-47{clip-path:url(#clip-path-3);}.cls-48{fill:url(#linear-gradient-41);}.cls-49{fill:url(#linear-gradient-42);}.cls-50{fill:url(#linear-gradient-43);}.cls-51{fill:url(#linear-gradient-44);}.cls-52{fill:url(#linear-gradient-45);}.cls-53{fill:url(#linear-gradient-46);}.cls-54{clip-path:url(#clip-path-4);}.cls-55{fill:url(#linear-gradient-47);}.cls-56{fill:url(#linear-gradient-48);}.cls-57{fill:url(#linear-gradient-49);}.cls-58{fill:url(#linear-gradient-50);}.cls-59{fill:url(#linear-gradient-51);}.cls-60{fill:url(#linear-gradient-52);}.cls-61{fill:url(#linear-gradient-53);}.cls-62{fill:url(#linear-gradient-54);}.cls-63{fill:url(#linear-gradient-55);}.cls-64{fill:url(#linear-gradient-56);}.cls-65{fill:url(#linear-gradient-57);}.cls-66{fill:url(#linear-gradient-58);}.cls-67{fill:url(#linear-gradient-59);}.cls-68{fill:url(#linear-gradient-60);}.cls-69{fill:url(#linear-gradient-61);}.cls-70{fill:url(#linear-gradient-62);}.cls-71{fill:url(#linear-gradient-63);}.cls-72{fill:url(#linear-gradient-64);}.cls-73{clip-path:url(#clip-path-5);}.cls-74{fill:url(#linear-gradient-65);}.cls-75{fill:url(#linear-gradient-66);}.cls-76{fill:url(#linear-gradient-67);}.cls-77{fill:url(#linear-gradient-68);}.cls-78{fill:url(#linear-gradient-69);}.cls-79{fill:url(#linear-gradient-70);}.cls-80{clip-path:url(#clip-path-6);}.cls-81{fill:url(#linear-gradient-71);}.cls-82{fill:url(#linear-gradient-72);}.cls-83{fill:url(#linear-gradient-73);}.cls-84{fill:url(#linear-gradient-74);}.cls-85{fill:url(#linear-gradient-75);}.cls-86{fill:url(#linear-gradient-76);}.cls-87{fill:url(#linear-gradient-77);}.cls-88{fill:url(#linear-gradient-78);}.cls-89{fill:url(#linear-gradient-79);}.cls-90{fill:url(#linear-gradient-80);}.cls-91{fill:url(#linear-gradient-81);}.cls-92{fill:url(#linear-gradient-82);}.cls-93{fill:url(#linear-gradient-83);}.cls-94{fill:url(#linear-gradient-84);}.cls-95{fill:url(#linear-gradient-85);}.cls-96{fill:url(#linear-gradient-86);}.cls-97{fill:url(#linear-gradient-87);}.cls-98{fill:url(#linear-gradient-88);}.cls-99{fill-rule:evenodd;fill:url(#linear-gradient-89);}</style><clipPath id="clip-path" transform="translate(-14.6 -15.03)"><rect class="cls-1" x="-77.37" y="112.1" width="208.59" height="62.58" transform="translate(-93.51 61.04) rotate(-45)"/></clipPath><linearGradient id="linear-gradient" x1="-1764" y1="-445.76" x2="-1542.7" y2="-445.76" gradientTransform="translate(485.86 -1552.35) rotate(-90)" gradientUnits="userSpaceOnUse"><stop offset="0" stop-color="#32e900"/><stop offset="1" stop-color="#001a7f"/></linearGradient><linearGradient id="linear-gradient-2" x1="2218.84" y1="-2915.69" x2="2320.5" y2="-2915.69" gradientTransform="translate(-3683.87 524.62) rotate(45)" gradientUnits="userSpaceOnUse"><stop offset="0" stop-color="#fff"/><stop offset="1"/></linearGradient><linearGradient id="linear-gradient-3" x1="2467.08" y1="-763.67" x2="2502.75" y2="-763.67" gradientTransform="translate(-2484.6 891.38)" xlink:href="#linear-gradient-2"/><linearGradient id="linear-gradient-4" x1="2625.38" y1="-821.98" x2="2517.89" y2="-821.98" gradientTransform="translate(-2484.6 891.38)" xlink:href="#linear-gradient-2"/><linearGradient id="linear-gradient-5" x1="2502.75" y1="-790.96" x2="2539.29" y2="-790.96" gradientTransform="translate(-2484.6 891.38)" xlink:href="#linear-gradient-2"/><linearGradient id="linear-gradient-6" x1="2539.18" y1="-809.22" x2="2539.29" y2="-809.22" gradientTransform="translate(-2484.6 891.38)" xlink:href="#linear-gradient-2"/><linearGradient id="linear-gradient-7" x1="2543.97" y1="-790.96" x2="2451.9" y2="-790.96" gradientTransform="translate(-2484.6 891.38)" xlink:href="#linear-gradient-2"/><linearGradient id="linear-gradient-8" x1="1108.42" y1="842.11" x2="1138.51" y2="842.11" gradientTransform="translate(-1377.43 302.64) rotate(-45)" xlink:href="#linear-gradient-2"/><linearGradient id="linear-gradient-9" x1="1138.51" y1="825.22" x2="1174.17" y2="825.22" gradientTransform="translate(-1377.43 302.64) rotate(-45)" xlink:href="#linear-gradient-2"/><linearGradient id="linear-gradient-10" x1="-1015.57" y1="1041.32" x2="-1015.57" y2="947.28" gradientTransform="translate(-1010.66 -896.63) rotate(-90)" xlink:href="#linear-gradient-2"/><linearGradient id="linear-gradient-11" x1="-1081.03" y1="1017.09" x2="-1061.33" y2="1017.09" gradientTransform="translate(-1010.66 -896.63) rotate(-90)" xlink:href="#linear-gradient-2"/><linearGradient id="linear-gradient-12" x1="-1061.33" y1="1017.09" x2="-1044.89" y2="1017.09" gradientTransform="translate(-1010.66 -896.63) rotate(-90)" xlink:href="#linear-gradient-2"/><linearGradient id="linear-gradient-13" x1="-2636.75" y1="-344.08" x2="-2561.78" y2="-344.08" gradientTransform="translate(-1599.41 -2003.8) rotate(-135)" xlink:href="#linear-gradient-2"/><linearGradient id="linear-gradient-14" x1="-2674.65" y1="-346.98" x2="-2625.33" y2="-346.98" gradientTransform="translate(-1599.41 -2003.8) rotate(-135)" xlink:href="#linear-gradient-2"/><linearGradient id="linear-gradient-15" x1="-2626.96" y1="-323.14" x2="-2625.33" y2="-323.14" gradientTransform="translate(-1599.41 -2003.8) rotate(-135)" xlink:href="#linear-gradient-2"/><linearGradient id="linear-gradient-16" x1="-2645.02" y1="-314.1" x2="-2625.33" y2="-314.1" gradientTransform="translate(-1599.41 -2003.8) rotate(-135)" xlink:href="#linear-gradient-2"/><linearGradient id="linear-gradient-17" x1="-2625.33" y1="-313.29" x2="-2608.89" y2="-313.29" gradientTransform="translate(-1599.41 -2003.8) rotate(-135)" xlink:href="#linear-gradient-2"/><linearGradient id="linear-gradient-18" x1="-2868.9" y1="-2434.91" x2="-2791.83" y2="-2434.91" gradientTransform="translate(-2798.68 -2370.56) rotate(180)" xlink:href="#linear-gradient-2"/><linearGradient id="linear-gradient-19" x1="-2877.57" y1="-2448.44" x2="-2860.22" y2="-2448.44" gradientTransform="translate(-2798.68 -2370.56) rotate(180)" xlink:href="#linear-gradient-2"/><linearGradient id="linear-gradient-20" x1="-2860.22" y1="-2483.55" x2="-2791.83" y2="-2483.55" gradientTransform="translate(-2798.68 -2370.56) rotate(180)" xlink:href="#linear-gradient-2"/><linearGradient id="linear-gradient-21" x1="-2922.91" y1="-2443.45" x2="-2868.9" y2="-2443.45" gradientTransform="translate(-2798.68 -2370.56) rotate(180)" xlink:href="#linear-gradient-2"/><clipPath id="clip-path-2" transform="translate(-14.6 -15.03)"><rect class="cls-1" x="49.07" y="-28.46" width="208.59" height="62.58" transform="translate(42.92 109.27) rotate(-45)"/></clipPath><linearGradient id="linear-gradient-22" x1="-105.76" y1="-1294.77" x2="115.54" y2="-1294.77" gradientTransform="translate(-1170.52 10.27) rotate(90)" xlink:href="#linear-gradient"/><linearGradient id="linear-gradient-23" x1="455.32" y1="-3480.23" x2="556.97" y2="-3480.23" gradientTransform="translate(2999.21 -2066.7) rotate(-135)" xlink:href="#linear-gradient-2"/><linearGradient id="linear-gradient-24" x1="1789.63" y1="-2480.21" x2="1682.15" y2="-2480.21" gradientTransform="translate(1799.94 -2433.46) rotate(180)" xlink:href="#linear-gradient-2"/><linearGradient id="linear-gradient-25" x1="1667.02" y1="-2450.43" x2="1703.55" y2="-2450.43" gradientTransform="translate(1799.94 -2433.46) rotate(180)" xlink:href="#linear-gradient-2"/><linearGradient id="linear-gradient-26" x1="1703.44" y1="-2467.46" x2="1703.55" y2="-2467.46" gradientTransform="translate(1799.94 -2433.46) rotate(180)" xlink:href="#linear-gradient-2"/><linearGradient id="linear-gradient-27" x1="1708.23" y1="-2450.43" x2="1616.16" y2="-2450.43" gradientTransform="translate(1799.94 -2433.46) rotate(180)" xlink:href="#linear-gradient-2"/><linearGradient id="linear-gradient-28" x1="1690.02" y1="-921.42" x2="1720.11" y2="-921.42" gradientTransform="translate(692.77 -1844.72) rotate(135)" xlink:href="#linear-gradient-2"/><linearGradient id="linear-gradient-29" x1="1720.11" y1="-938.3" x2="1755.79" y2="-938.3" gradientTransform="translate(692.77 -1844.72) rotate(135)" xlink:href="#linear-gradient-2"/><linearGradient id="linear-gradient-30" x1="665.14" y1="205.58" x2="665.14" y2="111.54" gradientTransform="translate(326 -645.45) rotate(90)" xlink:href="#linear-gradient-2"/><linearGradient id="linear-gradient-31" x1="-873.23" y1="233.8" x2="-798.25" y2="233.8" gradientTransform="translate(914.75 461.72) rotate(45)" xlink:href="#linear-gradient-2"/><linearGradient id="linear-gradient-32" x1="-911.13" y1="234.61" x2="-861.81" y2="234.61" gradientTransform="translate(914.75 461.72) rotate(45)" xlink:href="#linear-gradient-2"/><linearGradient id="linear-gradient-33" x1="-863.43" y1="258.46" x2="-861.81" y2="258.46" gradientTransform="translate(914.75 461.72) rotate(45)" xlink:href="#linear-gradient-2"/><linearGradient id="linear-gradient-34" x1="-881.5" y1="267.5" x2="-861.81" y2="267.5" gradientTransform="translate(914.75 461.72) rotate(45)" xlink:href="#linear-gradient-2"/><linearGradient id="linear-gradient-35" x1="-861.81" y1="268.31" x2="-845.36" y2="268.31" gradientTransform="translate(914.75 461.72) rotate(45)" xlink:href="#linear-gradient-2"/><linearGradient id="linear-gradient-36" x1="-779.31" y1="202.76" x2="-885.95" y2="202.76" gradientTransform="translate(914.75 461.72) rotate(45)" xlink:href="#linear-gradient-2"/><linearGradient id="linear-gradient-37" x1="-2033.16" y1="-776.67" x2="-1956.1" y2="-776.67" gradientTransform="translate(2114.02 828.48)" xlink:href="#linear-gradient-2"/><linearGradient id="linear-gradient-38" x1="-2041.84" y1="-790.2" x2="-2024.48" y2="-790.2" gradientTransform="translate(2114.02 828.48)" xlink:href="#linear-gradient-2"/><linearGradient id="linear-gradient-39" x1="-2024.48" y1="-811.51" x2="-1956.09" y2="-811.51" gradientTransform="translate(2114.02 828.48)" xlink:href="#linear-gradient-2"/><linearGradient id="linear-gradient-40" x1="-2087.16" y1="-785.22" x2="-2033.16" y2="-785.22" gradientTransform="translate(2114.02 828.48)" xlink:href="#linear-gradient-2"/><clipPath id="clip-path-3" transform="translate(-14.6 -15.03)"><rect class="cls-1" x="-135.41" y="91.96" width="208.59" height="62.58" transform="translate(-96.26 14.1) rotate(-45)"/></clipPath><linearGradient id="linear-gradient-41" x1="-1743.85" y1="-474.78" x2="-1522.56" y2="-474.78" xlink:href="#linear-gradient"/><linearGradient id="linear-gradient-42" x1="2567.34" y1="-842.12" x2="2459.85" y2="-842.12" gradientTransform="translate(-2484.6 891.38)" xlink:href="#linear-gradient-2"/><linearGradient id="linear-gradient-43" x1="-2810.87" y1="-2422.2" x2="-2733.8" y2="-2422.2" gradientTransform="translate(-2798.68 -2370.56) rotate(180)" xlink:href="#linear-gradient-2"/><linearGradient id="linear-gradient-44" x1="-2819.54" y1="-2428.29" x2="-2802.19" y2="-2428.29" gradientTransform="translate(-2798.68 -2370.56) rotate(180)" xlink:href="#linear-gradient-2"/><linearGradient id="linear-gradient-45" x1="-2802.19" y1="-2434.39" x2="-2733.79" y2="-2434.39" gradientTransform="translate(-2798.68 -2370.56) rotate(180)" xlink:href="#linear-gradient-2"/><linearGradient id="linear-gradient-46" x1="-2864.87" y1="-2423.31" x2="-2810.87" y2="-2423.31" gradientTransform="translate(-2798.68 -2370.56) rotate(180)" xlink:href="#linear-gradient-2"/><clipPath id="clip-path-4" transform="translate(-14.6 -15.03)"><rect class="cls-1" x="-8.96" y="-48.61" width="208.59" height="62.58" transform="translate(40.17 62.34) rotate(-45)"/></clipPath><linearGradient id="linear-gradient-47" x1="-125.91" y1="-1226.66" x2="95.39" y2="-1226.66" gradientTransform="translate(-1170.52 10.27) rotate(90)" xlink:href="#linear-gradient"/><linearGradient id="linear-gradient-48" x1="510.61" y1="-3521.26" x2="612.25" y2="-3521.26" gradientTransform="translate(2999.21 -2066.7) rotate(-135)" xlink:href="#linear-gradient-2"/><linearGradient id="linear-gradient-49" x1="1847.67" y1="-2460.07" x2="1740.18" y2="-2460.07" gradientTransform="translate(1799.94 -2433.46) rotate(180)" xlink:href="#linear-gradient-2"/><linearGradient id="linear-gradient-50" x1="1725.05" y1="-2440.36" x2="1761.58" y2="-2440.36" gradientTransform="translate(1799.94 -2433.46) rotate(180)" xlink:href="#linear-gradient-2"/><linearGradient id="linear-gradient-51" x1="1761.47" y1="-2447.31" x2="1761.58" y2="-2447.31" gradientTransform="translate(1799.94 -2433.46) rotate(180)" xlink:href="#linear-gradient-2"/><linearGradient id="linear-gradient-52" x1="1766.27" y1="-2440.36" x2="1674.19" y2="-2440.36" gradientTransform="translate(1799.94 -2433.46) rotate(180)" xlink:href="#linear-gradient-2"/><linearGradient id="linear-gradient-53" x1="1716.81" y1="-871.57" x2="1746.9" y2="-871.57" gradientTransform="translate(692.77 -1844.72) rotate(135)" xlink:href="#linear-gradient-2"/><linearGradient id="linear-gradient-54" x1="1746.9" y1="-883.02" x2="1782.57" y2="-883.02" gradientTransform="translate(692.77 -1844.72) rotate(135)" xlink:href="#linear-gradient-2"/><linearGradient id="linear-gradient-55" x1="655.07" y1="263.61" x2="655.07" y2="169.57" gradientTransform="translate(326 -645.45) rotate(90)" xlink:href="#linear-gradient-2"/><linearGradient id="linear-gradient-56" x1="-928.51" y1="266.83" x2="-853.54" y2="266.83" gradientTransform="translate(914.75 461.72) rotate(45)" xlink:href="#linear-gradient-2"/><linearGradient id="linear-gradient-57" x1="-966.42" y1="274.68" x2="-917.09" y2="274.68" gradientTransform="translate(914.75 461.72) rotate(45)" xlink:href="#linear-gradient-2"/><linearGradient id="linear-gradient-58" x1="-918.72" y1="285.25" x2="-917.09" y2="285.25" gradientTransform="translate(914.75 461.72) rotate(45)" xlink:href="#linear-gradient-2"/><linearGradient id="linear-gradient-59" x1="-936.78" y1="294.29" x2="-917.09" y2="294.29" gradientTransform="translate(914.75 461.72) rotate(45)" xlink:href="#linear-gradient-2"/><linearGradient id="linear-gradient-60" x1="-917.09" y1="295.1" x2="-900.64" y2="295.1" gradientTransform="translate(914.75 461.72) rotate(45)" xlink:href="#linear-gradient-2"/><linearGradient id="linear-gradient-61" x1="-2091.19" y1="-796.82" x2="-2014.13" y2="-796.82" gradientTransform="translate(2114.02 828.48)" xlink:href="#linear-gradient-2"/><linearGradient id="linear-gradient-62" x1="-2099.87" y1="-810.35" x2="-2082.51" y2="-810.35" gradientTransform="translate(2114.02 828.48)" xlink:href="#linear-gradient-2"/><linearGradient id="linear-gradient-63" x1="-2082.51" y1="-821.59" x2="-2014.12" y2="-821.59" gradientTransform="translate(2114.02 828.48)" xlink:href="#linear-gradient-2"/><linearGradient id="linear-gradient-64" x1="-2145.19" y1="-805.36" x2="-2091.19" y2="-805.36" gradientTransform="translate(2114.02 828.48)" xlink:href="#linear-gradient-2"/><clipPath id="clip-path-5" transform="translate(-14.6 -15.03)"><rect class="cls-1" x="-87.8" y="173.53" width="208.59" height="62.58" transform="translate(-140 71.66) rotate(-45)"/></clipPath><linearGradient id="linear-gradient-65" x1="-1825.42" y1="-427.17" x2="-1604.13" y2="-427.17" xlink:href="#linear-gradient"/><linearGradient id="linear-gradient-66" x1="2614.95" y1="-760.55" x2="2507.46" y2="-760.55" gradientTransform="translate(-2484.6 891.38)" xlink:href="#linear-gradient-2"/><linearGradient id="linear-gradient-67" x1="-2858.47" y1="-2503.77" x2="-2781.41" y2="-2503.77" gradientTransform="translate(-2798.68 -2370.56) rotate(180)" xlink:href="#linear-gradient-2"/><linearGradient id="linear-gradient-68" x1="-2867.15" y1="-2509.86" x2="-2849.79" y2="-2509.86" gradientTransform="translate(-2798.68 -2370.56) rotate(180)" xlink:href="#linear-gradient-2"/><linearGradient id="linear-gradient-69" x1="-2849.79" y1="-2515.96" x2="-2781.4" y2="-2515.96" gradientTransform="translate(-2798.68 -2370.56) rotate(180)" xlink:href="#linear-gradient-2"/><linearGradient id="linear-gradient-70" x1="-2912.47" y1="-2504.88" x2="-2858.47" y2="-2504.88" gradientTransform="translate(-2798.68 -2370.56) rotate(180)" xlink:href="#linear-gradient-2"/><clipPath id="clip-path-6" transform="translate(-14.6 -15.03)"><rect class="cls-1" x="38.64" y="32.97" width="208.59" height="62.58" transform="translate(-3.57 119.89) rotate(-45)"/></clipPath><linearGradient id="linear-gradient-71" x1="-44.34" y1="-1274.27" x2="176.96" y2="-1274.27" gradientTransform="translate(-1170.52 10.27) rotate(90)" xlink:href="#linear-gradient"/><linearGradient id="linear-gradient-72" x1="419.27" y1="-3545.28" x2="520.91" y2="-3545.28" gradientTransform="translate(2999.21 -2066.7) rotate(-135)" xlink:href="#linear-gradient-2"/><linearGradient id="linear-gradient-73" x1="1800.06" y1="-2541.64" x2="1692.58" y2="-2541.64" gradientTransform="translate(1799.94 -2433.46) rotate(180)" xlink:href="#linear-gradient-2"/><linearGradient id="linear-gradient-74" x1="1677.44" y1="-2521.93" x2="1713.98" y2="-2521.93" gradientTransform="translate(1799.94 -2433.46) rotate(180)" xlink:href="#linear-gradient-2"/><linearGradient id="linear-gradient-75" x1="1713.86" y1="-2528.88" x2="1713.97" y2="-2528.88" gradientTransform="translate(1799.94 -2433.46) rotate(180)" xlink:href="#linear-gradient-2"/><linearGradient id="linear-gradient-76" x1="1718.66" y1="-2521.93" x2="1626.59" y2="-2521.93" gradientTransform="translate(1799.94 -2433.46) rotate(180)" xlink:href="#linear-gradient-2"/><linearGradient id="linear-gradient-77" x1="1740.83" y1="-962.91" x2="1770.91" y2="-962.91" gradientTransform="translate(692.77 -1844.72) rotate(135)" xlink:href="#linear-gradient-2"/><linearGradient id="linear-gradient-78" x1="1770.91" y1="-974.37" x2="1806.59" y2="-974.37" gradientTransform="translate(692.77 -1844.72) rotate(135)" xlink:href="#linear-gradient-2"/><linearGradient id="linear-gradient-79" x1="736.64" y1="216" x2="736.64" y2="121.97" gradientTransform="translate(326 -645.45) rotate(90)" xlink:href="#linear-gradient-2"/><linearGradient id="linear-gradient-80" x1="-837.16" y1="290.85" x2="-762.2" y2="290.85" gradientTransform="translate(914.75 461.72) rotate(45)" xlink:href="#linear-gradient-2"/><linearGradient id="linear-gradient-81" x1="-875.07" y1="298.7" x2="-825.75" y2="298.7" gradientTransform="translate(914.75 461.72) rotate(45)" xlink:href="#linear-gradient-2"/><linearGradient id="linear-gradient-82" x1="-827.37" y1="309.27" x2="-825.75" y2="309.27" gradientTransform="translate(914.75 461.72) rotate(45)" xlink:href="#linear-gradient-2"/><linearGradient id="linear-gradient-83" x1="-845.44" y1="318.3" x2="-825.74" y2="318.3" gradientTransform="translate(914.75 461.72) rotate(45)" xlink:href="#linear-gradient-2"/><linearGradient id="linear-gradient-84" x1="-825.75" y1="319.11" x2="-809.3" y2="319.11" gradientTransform="translate(914.75 461.72) rotate(45)" xlink:href="#linear-gradient-2"/><linearGradient id="linear-gradient-85" x1="-2043.59" y1="-715.25" x2="-1966.52" y2="-715.25" gradientTransform="translate(2114.02 828.48)" xlink:href="#linear-gradient-2"/><linearGradient id="linear-gradient-86" x1="-2052.26" y1="-728.78" x2="-2034.91" y2="-728.78" gradientTransform="translate(2114.02 828.48)" xlink:href="#linear-gradient-2"/><linearGradient id="linear-gradient-87" x1="-2034.91" y1="-740.02" x2="-1966.52" y2="-740.02" gradientTransform="translate(2114.02 828.48)" xlink:href="#linear-gradient-2"/><linearGradient id="linear-gradient-88" x1="-2097.59" y1="-723.79" x2="-2043.59" y2="-723.79" gradientTransform="translate(2114.02 828.48)" xlink:href="#linear-gradient-2"/><linearGradient id="linear-gradient-89" x1="133.97" y1="99.24" x2="171.85" y2="124.73" gradientTransform="matrix(1, 0, 0, -1, 0, 263.45)" gradientUnits="userSpaceOnUse"><stop offset="0.17" stop-color="#12491d"/><stop offset="0.57" stop-color="#237d26"/><stop offset="1" stop-color="#41aa54"/></linearGradient></defs><title>login</title><g class="cls-2"><g id="Layer_1" data-name="Layer 1"><g class="cls-3"><polygon class="cls-4" points="66.74 70.06 43.15 46.47 0 89.62 0 165.66 12.85 165.66 12.85 164.7 12.85 148.26 12.85 132.89 29.62 149.67 29.62 118.64 54.69 118.64 54.69 89.07 61.54 82.22 80.19 82.22 80.19 56.6 66.74 70.06"/><polygon class="cls-5" points="0 94.44 9.32 85.12 6.91 82.71 0 89.62 0 94.44"/><polygon class="cls-6" points="0 118.64 0 136.79 18.16 118.64 0 118.64"/><polygon class="cls-7" points="80.19 56.6 54.69 82.1 54.69 82.22 80.19 82.22 80.19 56.6"/><polygon class="cls-8" points="54.69 118.64 54.69 82.22 54.58 82.22 18.16 118.64 54.69 118.64"/><polygon class="cls-9" points="54.69 82.1 54.58 82.22 54.69 82.22 54.69 82.1"/><polygon class="cls-10" points="7.41 82.22 0 89.62 0 118.64 18.16 118.64 54.58 82.22 7.41 82.22"/><polygon class="cls-11" points="33.69 103.69 12.43 82.42 12.42 124.96 33.69 103.69"/><polygon class="cls-12" points="9.81 79.81 12.43 82.42 12.43 77.19 9.81 79.81"/><polygon class="cls-13" points="0 89.62 0 161.11 12.85 148.26 12.85 76.78 0 89.62"/><rect class="cls-14" y="164.7" width="12.85" height="0.95"/><polygon class="cls-15" points="0 164.71 12.85 164.7 12.85 148.26 0 161.11 0 164.71"/><polygon class="cls-16" points="0 109.54 27.32 82.22 7.41 82.22 0 89.62 0 109.54"/><polygon class="cls-17" points="27.32 82.22 0 109.54 0 120.05 29.62 149.67 29.62 82.22 27.32 82.22"/><polygon class="cls-18" points="27.32 82.22 29.62 82.22 29.62 79.92 27.32 82.22"/><polygon class="cls-19" points="29.62 79.92 29.62 82.22 55.17 82.22 41.25 68.29 29.62 79.92"/><polygon class="cls-20" points="29.62 60 29.62 79.92 41.25 68.29 31.29 58.33 29.62 60"/><polygon class="cls-21" points="7.41 82.22 61.54 82.22 70.22 73.54 43.15 46.47 7.41 82.22"/><polygon class="cls-22" points="61.54 82.22 78.9 82.22 70.22 73.54 61.54 82.22"/><polygon class="cls-23" points="0 143.76 61.54 82.22 7.41 82.22 0 89.62 0 143.76"/><polygon class="cls-24" points="80.19 63.56 70.22 73.54 78.9 82.22 80.19 82.22 80.19 63.56"/><path class="cls-25" d="M26.15,97.92l-2.41-2.41-.18.19L25.87,98,14.6,109.28v.38L26.15,98.11a.13.13,0,0,0,0-.1A.12.12,0,0,0,26.15,97.92Z" transform="translate(-14.6 -15.03)"/><path class="cls-25" d="M35,131.48a.14.14,0,0,0-.12-.09H14.6v.27h20l-20,20V152L35,131.62a.11.11,0,0,0,0-.09A.07.07,0,0,0,35,131.48Z" transform="translate(-14.6 -15.03)"/><path class="cls-25" d="M97.07,69.49V95.11a.13.13,0,0,1-.13.13H71.43a.13.13,0,0,1-.13-.13V95a.13.13,0,0,1,0-.1l25.5-25.5a.14.14,0,0,1,.15,0A.13.13,0,0,1,97.07,69.49ZM96.8,95V69.81L71.64,95Z" transform="translate(-14.6 -15.03)"/><path class="cls-25" d="M71.57,131.53a.15.15,0,0,1,0,.09.13.13,0,0,1-.1,0H34.9a.13.13,0,0,1-.13-.08.16.16,0,0,1,0-.15L71.23,95a.15.15,0,0,1,.09,0h.11a.14.14,0,0,1,.13.14Zm-36.35-.14H71.3V95.32Z" transform="translate(-14.6 -15.03)"/><polygon class="cls-26" points="56.83 79.97 56.72 80.08 56.83 80.08 56.83 79.97"/><path class="cls-25" d="M71.56,95v.11a.13.13,0,0,1-.13.13h-.11a.13.13,0,0,1-.12-.08.12.12,0,0,1,0-.15l.11-.11a.12.12,0,0,1,.14,0A.13.13,0,0,1,71.56,95Z" transform="translate(-14.6 -15.03)"/><path class="cls-25" d="M71.44,95.06a.13.13,0,0,0-.12-.09h-47l-.27.27H71L34.84,131.39H14.6v.27H34.9a.11.11,0,0,0,.09,0L71.42,95.2a.14.14,0,0,0,0-.09A.07.07,0,0,0,71.44,95.06Z" transform="translate(-14.6 -15.03)"/><path class="cls-25" d="M50.57,116.58a.13.13,0,0,1,0,.1L29.26,138a.14.14,0,0,1-.15,0,.13.13,0,0,1-.08-.12h0V95.31a.13.13,0,0,1,.08-.12.14.14,0,0,1,.15,0l21.26,21.27A.12.12,0,0,1,50.57,116.58Zm-21.27,21,21-21L29.31,95.64Z" transform="translate(-14.6 -15.03)"/><path class="cls-25" d="M29,90.22V95L26.65,92.6l-.19.19,2.62,2.62a.14.14,0,0,0,.14,0,.16.16,0,0,0,.09-.13V90Z" transform="translate(-14.6 -15.03)"/><path class="cls-25" d="M29.45,89.8v71.3L14.6,176v.38l15.08-15.08a.13.13,0,0,0,0-.1V89.54Z" transform="translate(-14.6 -15.03)"/><path class="cls-25" d="M29.68,177.5a.15.15,0,0,0-.09,0h-15v.27H29.45v.69H14.6v.26h15a.13.13,0,0,0,.13-.13v-1A.13.13,0,0,0,29.68,177.5Z" transform="translate(-14.6 -15.03)"/><path class="cls-25" d="M29.72,161.15a.13.13,0,0,0-.08-.12.14.14,0,0,0-.15,0L14.6,176v.38l14.85-14.86v16H14.6v.27h15a.13.13,0,0,0,.13-.13Z" transform="translate(-14.6 -15.03)"/><path class="cls-25" d="M44.19,95.06a.14.14,0,0,0-.12-.09H24.28l-.27.27H43.74L14.6,124.38v.38L44.16,95.2a.11.11,0,0,0,0-.09A.07.07,0,0,0,44.19,95.06Z" transform="translate(-14.6 -15.03)"/><path class="cls-25" d="M46.36,95H44.07a.18.18,0,0,0-.1,0L14.6,124.38v.38L44.12,95.24h2.11v67L14.6,130.61V131l31.67,31.66a.12.12,0,0,0,.15,0,.13.13,0,0,0,.08-.12V95.11A.14.14,0,0,0,46.36,95Z" transform="translate(-14.6 -15.03)"/><path class="cls-25" d="M46.5,92.81v2.3a.13.13,0,0,1-.14.13H44.07a.13.13,0,0,1-.13-.08A.14.14,0,0,1,44,95l2.3-2.29a.14.14,0,0,1,.15,0A.13.13,0,0,1,46.5,92.81ZM46.23,95V93.13L44.39,95Z" transform="translate(-14.6 -15.03)"/><path class="cls-25" d="M72.05,95.11s0,0,0,0a.13.13,0,0,1-.13.08H46.36a.13.13,0,0,1-.13-.13v-2.3a.13.13,0,0,1,0-.09L57.89,81.09a.13.13,0,0,1,.1,0,.11.11,0,0,1,.09,0L72,95A.18.18,0,0,1,72.05,95.11ZM46.5,95H71.59L58,81.37,46.5,92.87Z" transform="translate(-14.6 -15.03)"/><path class="cls-25" d="M47.93,71.32l9.87,9.86L46.5,92.49V72.76l-.26.27V92.81a.13.13,0,0,0,.08.12.14.14,0,0,0,.15,0L58.08,81.28a.13.13,0,0,0,0-.1.11.11,0,0,0,0-.09l-10-10Z" transform="translate(-14.6 -15.03)"/><path class="cls-25" d="M59.8,59.46l27,27L78.23,95H24.28l-.27.27H78.28a.13.13,0,0,0,.1,0l8.68-8.68a.15.15,0,0,0,0-.09.18.18,0,0,0,0-.1L60,59.27Z" transform="translate(-14.6 -15.03)"/><path class="cls-25" d="M95.77,95.11a.09.09,0,0,1,0,0,.13.13,0,0,1-.12.08H78.28a.13.13,0,0,1-.12-.08.14.14,0,0,1,0-.15l8.68-8.68a.15.15,0,0,1,.09,0,.18.18,0,0,1,.1,0L95.73,95A.13.13,0,0,1,95.77,95.11ZM78.61,95h16.7L87,86.62Z" transform="translate(-14.6 -15.03)"/><path class="cls-25" d="M78.41,95.06a.14.14,0,0,0-.13-.09h-54l-.27.27H78L14.6,158.6V159L78.38,95.2a.15.15,0,0,0,0-.09A.43.43,0,0,0,78.41,95.06Z" transform="translate(-14.6 -15.03)"/><path class="cls-25" d="M97.07,76.46V95.11a.13.13,0,0,1-.13.13h-1.3a.13.13,0,0,1-.1,0l-8.67-8.68a.14.14,0,0,1,0-.19l10-10a.14.14,0,0,1,.15,0A.13.13,0,0,1,97.07,76.46ZM96.8,95V76.78l-9.65,9.65L95.69,95Z" transform="translate(-14.6 -15.03)"/></g><g class="cls-27"><polygon class="cls-28" points="96.39 0 96.39 27.09 89.54 33.94 70.89 33.94 70.89 59.56 84.34 46.1 107.93 69.69 177.62 0 96.39 0"/><polygon class="cls-29" points="172.8 0 141.76 31.04 144.17 33.44 177.62 0 172.8 0"/><polygon class="cls-30" points="70.89 59.56 96.39 34.05 96.39 33.94 70.89 33.94 70.89 59.56"/><polygon class="cls-31" points="96.39 0 96.39 33.94 96.5 33.94 130.45 0 96.39 0"/><polygon class="cls-32" points="96.39 34.05 96.5 33.94 96.39 33.94 96.39 34.05"/><polygon class="cls-33" points="130.45 0 96.5 33.94 143.67 33.94 168.6 9.01 168.6 0 130.45 0"/><polygon class="cls-34" points="129.85 0 117.38 12.47 138.65 33.74 138.66 0 129.85 0"/><polygon class="cls-35" points="141.26 36.35 138.65 33.74 138.65 38.97 141.26 36.35"/><polygon class="cls-36" points="138.23 0 138.23 39.38 177.62 0 138.23 0"/><polygon class="cls-37" points="166.29 11.32 156.33 1.37 123.76 33.94 143.67 33.94 166.29 11.32"/><polygon class="cls-38" points="121.46 0 121.46 33.94 123.76 33.94 156.33 1.37 154.97 0 121.46 0"/><polygon class="cls-39" points="123.76 33.94 121.46 33.94 121.46 36.24 123.76 33.94"/><polygon class="cls-40" points="121.46 36.24 121.46 33.94 95.91 33.94 109.83 47.87 121.46 36.24"/><polygon class="cls-41" points="121.46 56.15 121.46 36.24 109.83 47.87 119.79 57.82 121.46 56.15"/><polygon class="cls-42" points="157.7 0 156.33 1.37 166.29 11.32 177.62 0 157.7 0"/><polygon class="cls-43" points="143.67 33.94 89.54 33.94 80.86 42.62 107.93 69.69 143.67 33.94"/><polygon class="cls-44" points="89.54 33.94 72.19 33.94 80.86 42.62 89.54 33.94"/><polygon class="cls-45" points="123.48 0 89.54 33.94 143.67 33.94 157.92 19.69 157.93 0 123.48 0"/><polygon class="cls-46" points="70.89 52.59 80.86 42.62 72.19 33.94 70.89 33.94 70.89 52.59"/><path class="cls-25" d="M187.59,15h-.38L154.13,48.11a.18.18,0,0,0,0,.1.15.15,0,0,0,0,.09l2.41,2.41.19-.19-2.31-2.31Z" transform="translate(-14.6 -15.03)"/><path class="cls-25" d="M83.22,76.73V51.11a.13.13,0,0,1,.13-.13h25.5a.13.13,0,0,1,.14.13v.11a.18.18,0,0,1,0,.1L83.45,76.83a.16.16,0,0,1-.15,0A.13.13,0,0,1,83.22,76.73Zm.26-25.48V76.41l25.16-25.16Z" transform="translate(-14.6 -15.03)"/><path class="cls-25" d="M144.86,15,109,50.9V15h-.27V51.11a.13.13,0,0,0,.13.14H109a.18.18,0,0,0,.1,0L145.24,15Z" transform="translate(-14.6 -15.03)"/><polygon class="cls-26" points="94.25 36.19 94.36 36.08 94.25 36.08 94.25 36.19"/><path class="cls-25" d="M108.72,51.22v-.11a.13.13,0,0,1,.13-.13H109a.13.13,0,0,1,.13.08.14.14,0,0,1,0,.15l-.11.11a.14.14,0,0,1-.15,0A.13.13,0,0,1,108.72,51.22Z" transform="translate(-14.6 -15.03)"/><path class="cls-25" d="M145.24,15h-.38l-36,36a.11.11,0,0,0,0,.09.07.07,0,0,0,0,0,.14.14,0,0,0,.12.09h47l.27-.27h-47Z" transform="translate(-14.6 -15.03)"/><polygon class="cls-25" points="166.33 0 166.33 11.29 166.6 11.02 166.59 0 166.33 0"/><path class="cls-25" d="M151,15V50.59L130,29.64,144.64,15h-.37L129.75,29.54a.18.18,0,0,0,0,.1.15.15,0,0,0,0,.09L151,51a.14.14,0,0,0,.15,0,.13.13,0,0,0,.08-.12V15Z" transform="translate(-14.6 -15.03)"/><path class="cls-25" d="M151.25,56V51.23l2.38,2.39.19-.19-2.61-2.62a.16.16,0,0,0-.15,0,.12.12,0,0,0-.08.12v5.36Z" transform="translate(-14.6 -15.03)"/><polygon class="cls-25" points="135.96 0 135.96 41.65 136.23 41.39 136.23 0 135.96 0"/><path class="cls-25" d="M156.27,51H136.54L168.8,18.73l9.86,9.86.19-.19-10-10a.14.14,0,0,0-.19,0L136.12,51a.14.14,0,0,0,0,.09.07.07,0,0,0,0,0,.14.14,0,0,0,.12.09H156Z" transform="translate(-14.6 -15.03)"/><path class="cls-25" d="M165.48,15h-.38l3.51,3.51L136.17,51h-2.11V15h-.27V51.11a.13.13,0,0,0,.13.14h2.3a.13.13,0,0,0,.09,0l32.58-32.58a.14.14,0,0,0,0-.19Z" transform="translate(-14.6 -15.03)"/><path class="cls-25" d="M133.79,53.41v-2.3a.13.13,0,0,1,.13-.13h2.3a.13.13,0,0,1,.12.08.12.12,0,0,1,0,.15L134,53.5a.12.12,0,0,1-.15,0A.12.12,0,0,1,133.79,53.41Zm.27-2.16v1.84l1.84-1.84Z" transform="translate(-14.6 -15.03)"/><path class="cls-25" d="M108.24,51.11a.11.11,0,0,1,0,0,.13.13,0,0,1,.12-.08h25.55a.14.14,0,0,1,.14.13v2.3a.12.12,0,0,1,0,.09L122.39,65.13a.11.11,0,0,1-.09,0,.13.13,0,0,1-.1,0L108.28,51.21A.13.13,0,0,1,108.24,51.11Zm25.55.14h-25.1l13.61,13.6,11.49-11.49Z" transform="translate(-14.6 -15.03)"/><path class="cls-25" d="M132.35,74.9,122.49,65l11.3-11.31V73.46l.27-.27V53.41a.13.13,0,0,0-.08-.12.12.12,0,0,0-.14,0L122.2,64.94a.18.18,0,0,0,0,.1.15.15,0,0,0,0,.09l10,10Z" transform="translate(-14.6 -15.03)"/><path class="cls-25" d="M172.49,15h-.38l-3.41,3.41a.18.18,0,0,0,0,.1.15.15,0,0,0,0,.09l10,10,.19-.19L169,18.54Z" transform="translate(-14.6 -15.03)"/><path class="cls-25" d="M120.49,86.76l-27-27,8.55-8.54H156l.27-.27H102a.11.11,0,0,0-.09,0L93.23,59.7a.11.11,0,0,0,0,.09.13.13,0,0,0,0,.1L120.3,87Z" transform="translate(-14.6 -15.03)"/><path class="cls-25" d="M84.51,51.11l0,0a.12.12,0,0,1,.12-.08H102a.13.13,0,0,1,.13.08.14.14,0,0,1,0,.15l-8.68,8.68a.18.18,0,0,1-.1,0,.15.15,0,0,1-.09,0l-8.68-8.68A.18.18,0,0,1,84.51,51.11Zm17.17.14H85l8.35,8.35Z" transform="translate(-14.6 -15.03)"/><path class="cls-25" d="M138.27,15h-.37l-36,36a.11.11,0,0,0,0,.09.07.07,0,0,0,0,0,.14.14,0,0,0,.12.09h54l.27-.27H102.33Z" transform="translate(-14.6 -15.03)"/><polygon class="cls-25" points="155.65 0 155.65 21.96 155.92 21.7 155.92 0 155.65 0"/><path class="cls-25" d="M83.22,69.76V51.11a.13.13,0,0,1,.13-.13h1.3a.11.11,0,0,1,.09,0l8.68,8.68a.14.14,0,0,1,0,.19l-10,10a.14.14,0,0,1-.15,0A.13.13,0,0,1,83.22,69.76Zm.26-18.51V69.44l9.66-9.65-8.55-8.54Z" transform="translate(-14.6 -15.03)"/></g><g class="cls-47"><polygon class="cls-48" points="8.71 49.91 0 41.2 0 65.58 3.51 62.07 22.16 62.07 22.16 36.45 8.71 49.91"/><polygon class="cls-49" points="0 58.61 0 62.07 22.16 62.07 22.16 36.45 0 58.61"/><polygon class="cls-50" points="0 41.2 0 62.07 3.51 62.07 12.19 53.39 0 41.2"/><polygon class="cls-51" points="3.51 62.07 20.86 62.07 12.19 53.39 3.51 62.07"/><polygon class="cls-52" points="0 62.07 0 65.58 3.51 62.07 0 62.07"/><polygon class="cls-53" points="22.16 43.42 12.19 53.39 20.86 62.07 22.16 62.07 22.16 43.42"/><path class="cls-25" d="M39,49.34a.14.14,0,0,0-.09-.12.12.12,0,0,0-.14,0L14.6,73.46v.37L38.77,49.67V74.83H14.6v.27H38.9A.14.14,0,0,0,39,75Z" transform="translate(-14.6 -15.03)"/><path class="cls-25" d="M29,66.19,14.6,51.77v.38L28.74,66.28,20.2,74.83H14.6v.27h5.65a.18.18,0,0,0,.1,0L29,66.38a.17.17,0,0,0,0-.1A.14.14,0,0,0,29,66.19Z" transform="translate(-14.6 -15.03)"/><path class="cls-25" d="M37.74,75a.07.07,0,0,1,0,.05.14.14,0,0,1-.13.09H20.25a.14.14,0,0,1-.12-.09.12.12,0,0,1,0-.14l8.68-8.68a.1.1,0,0,1,.09,0,.13.13,0,0,1,.1,0l8.67,8.68A.11.11,0,0,1,37.74,75Zm-17.17-.13H37.28l-8.35-8.36Z" transform="translate(-14.6 -15.03)"/><path class="cls-25" d="M20.37,74.91a.12.12,0,0,0-.12-.08H14.6v.27h5.33L14.6,80.42v.38l5.75-5.74a.17.17,0,0,0,0-.1A.11.11,0,0,0,20.37,74.91Z" transform="translate(-14.6 -15.03)"/><path class="cls-25" d="M39,56.31V75a.14.14,0,0,1-.14.14H37.6a.18.18,0,0,1-.09,0l-8.67-8.68a.12.12,0,0,1,0-.19l10-10a.14.14,0,0,1,.23.1Zm-.27,18.52V56.63l-9.65,9.65,8.54,8.55Z" transform="translate(-14.6 -15.03)"/></g><g class="cls-54"><polygon class="cls-55" points="38.36 0 38.36 6.94 31.51 13.8 12.86 13.8 12.86 39.41 26.31 25.96 49.9 49.54 99.44 0 38.36 0"/><polygon class="cls-56" points="94.62 0 83.73 10.89 86.14 13.3 99.44 0 94.62 0"/><polygon class="cls-57" points="12.86 39.41 38.36 13.91 38.36 13.8 12.86 13.8 12.86 39.41"/><polygon class="cls-58" points="38.36 0 38.36 13.8 38.47 13.8 52.27 0 38.36 0"/><polygon class="cls-59" points="38.36 13.91 38.47 13.8 38.36 13.8 38.36 13.91"/><polygon class="cls-60" points="52.27 0 38.47 13.8 85.64 13.8 99.44 0 52.27 0"/><polygon class="cls-61" points="67.03 0 80.62 13.59 80.62 0 67.03 0"/><polygon class="cls-62" points="83.23 16.2 80.62 13.59 80.62 18.82 83.23 16.2"/><polygon class="cls-63" points="80.2 0 80.2 19.23 99.44 0 80.2 0"/><polygon class="cls-64" points="79.52 0 65.72 13.8 85.64 13.8 99.44 0 79.52 0"/><polygon class="cls-65" points="63.43 0 63.43 13.8 65.72 13.8 79.52 0 63.43 0"/><polygon class="cls-66" points="65.72 13.8 63.43 13.8 63.42 16.09 65.72 13.8"/><polygon class="cls-67" points="63.42 16.09 63.43 13.8 37.88 13.8 51.8 27.72 63.42 16.09"/><polygon class="cls-68" points="63.43 36.01 63.42 16.09 51.8 27.72 61.76 37.68 63.43 36.01"/><polygon class="cls-69" points="85.64 13.8 31.51 13.8 22.83 22.48 49.9 49.54 85.64 13.8"/><polygon class="cls-70" points="31.51 13.8 14.15 13.8 22.83 22.48 31.51 13.8"/><polygon class="cls-71" points="45.3 0 31.51 13.8 85.64 13.8 99.44 0 45.3 0"/><polygon class="cls-72" points="12.86 32.45 22.83 22.48 14.15 13.8 12.86 13.8 12.86 32.45"/><path class="cls-25" d="M109.41,15H109L96.1,28a.11.11,0,0,0,0,.09.1.1,0,0,0,0,.09l2.41,2.41.19-.19-2.32-2.31Z" transform="translate(-14.6 -15.03)"/><path class="cls-25" d="M25.19,56.58V31a.13.13,0,0,1,.13-.14h25.5A.14.14,0,0,1,51,31v.11a.15.15,0,0,1,0,.09L25.41,56.68a.12.12,0,0,1-.14,0A.13.13,0,0,1,25.19,56.58Zm.26-25.48V56.26L50.61,31.1Z" transform="translate(-14.6 -15.03)"/><path class="cls-25" d="M66.68,15,51,30.75V15h-.27V31a.13.13,0,0,0,.13.13h.11a.13.13,0,0,0,.1,0l16-16Z" transform="translate(-14.6 -15.03)"/><polygon class="cls-26" points="36.22 16.05 36.33 15.94 36.22 15.94 36.22 16.05"/><path class="cls-25" d="M50.69,31.08V31a.13.13,0,0,1,.13-.14h.11a.15.15,0,0,1,.13.08.14.14,0,0,1,0,.15l-.11.11a.14.14,0,0,1-.15,0A.13.13,0,0,1,50.69,31.08Z" transform="translate(-14.6 -15.03)"/><path class="cls-25" d="M67.06,15h-.38L50.84,30.87a.13.13,0,0,0,0,.1.11.11,0,0,0,0,.05.13.13,0,0,0,.12.08H98l.27-.27h-47Z" transform="translate(-14.6 -15.03)"/><path class="cls-25" d="M93,15V30.44L77.54,15h-.38L93,30.86a.12.12,0,0,0,.14,0,.14.14,0,0,0,.09-.13V15Z" transform="translate(-14.6 -15.03)"/><path class="cls-25" d="M93.22,35.86V31.09l2.38,2.38.19-.19-2.61-2.61a.14.14,0,0,0-.15,0,.13.13,0,0,0-.08.12v5.36Z" transform="translate(-14.6 -15.03)"/><polygon class="cls-25" points="77.93 0 77.93 21.51 78.2 21.24 78.2 0 77.93 0"/><path class="cls-25" d="M94.31,15h-.38L78.09,30.87a.18.18,0,0,0,0,.1.17.17,0,0,0,0,.05.11.11,0,0,0,.12.08H98l.27-.27H78.51Z" transform="translate(-14.6 -15.03)"/><path class="cls-25" d="M93.93,15l-15.8,15.8H76V15h-.26V31a.13.13,0,0,0,.13.13h2.3a.11.11,0,0,0,.09,0l16-16Z" transform="translate(-14.6 -15.03)"/><path class="cls-25" d="M75.75,33.27V31a.13.13,0,0,1,.13-.14h2.3a.14.14,0,0,1,.12.09.13.13,0,0,1,0,.14L76,33.36a.12.12,0,0,1-.14,0A.14.14,0,0,1,75.75,33.27ZM76,31.1v1.84l1.85-1.84Z" transform="translate(-14.6 -15.03)"/><path class="cls-25" d="M50.21,31a.07.07,0,0,1,0,0,.14.14,0,0,1,.12-.09H75.89A.13.13,0,0,1,76,31v2.3a.12.12,0,0,1,0,.09L64.36,45a.18.18,0,0,1-.09,0,.18.18,0,0,1-.1,0L50.25,31.06A.11.11,0,0,1,50.21,31Zm25.55.13H50.66L64.27,44.7,75.76,33.21Z" transform="translate(-14.6 -15.03)"/><path class="cls-25" d="M74.32,54.75l-9.87-9.86,11.31-11.3V53.31L76,53V33.27a.13.13,0,0,0-.08-.13.14.14,0,0,0-.15,0L64.17,44.8a.11.11,0,0,0,0,.09.18.18,0,0,0,0,.1l10,9.95Z" transform="translate(-14.6 -15.03)"/><path class="cls-25" d="M62.46,66.62l-27-27L44,31.1H98l.27-.27H44a.15.15,0,0,0-.09,0L35.2,39.55a.13.13,0,0,0,0,.1.11.11,0,0,0,0,.09L62.27,66.81Z" transform="translate(-14.6 -15.03)"/><path class="cls-25" d="M26.48,31a.43.43,0,0,1,0,0,.14.14,0,0,1,.13-.09H44a.14.14,0,0,1,.12.09.11.11,0,0,1,0,.14l-8.67,8.68a.13.13,0,0,1-.1,0,.11.11,0,0,1-.09,0l-8.68-8.68A.15.15,0,0,1,26.48,31Zm17.17.13H26.94l8.35,8.36Z" transform="translate(-14.6 -15.03)"/><path class="cls-25" d="M60.09,15h-.37L43.88,30.87a.13.13,0,0,0,0,.1.11.11,0,0,0,0,.05.13.13,0,0,0,.12.08H98l.27-.27H44.29Z" transform="translate(-14.6 -15.03)"/><path class="cls-25" d="M25.19,49.62V31a.13.13,0,0,1,.13-.14h1.3a.15.15,0,0,1,.09,0l8.68,8.68a.14.14,0,0,1,0,.19l-10,10a.12.12,0,0,1-.14,0A.13.13,0,0,1,25.19,49.62Zm.26-18.52V49.3l9.65-9.65L26.56,31.1Z" transform="translate(-14.6 -15.03)"/></g><g class="cls-73"><polygon class="cls-74" points="56.31 131.48 47.61 122.78 47.61 147.15 51.12 143.64 69.77 143.64 69.77 118.02 56.31 131.48"/><polygon class="cls-75" points="47.61 140.19 47.61 143.64 69.77 143.64 69.77 118.02 47.61 140.19"/><polygon class="cls-76" points="47.61 122.78 47.61 143.64 51.12 143.64 59.79 134.96 47.61 122.78"/><polygon class="cls-77" points="51.12 143.64 68.47 143.64 59.79 134.96 51.12 143.64"/><polygon class="cls-78" points="47.61 143.64 47.61 147.15 51.12 143.64 47.61 143.64"/><polygon class="cls-79" points="69.77 124.99 59.79 134.96 68.47 143.64 69.77 143.64 69.77 124.99"/><path class="cls-25" d="M86.64,130.92a.13.13,0,0,0-.08-.13.14.14,0,0,0-.15,0L62.21,155v.38l24.16-24.17V156.4H62.21v.27h24.3a.13.13,0,0,0,.13-.14Z" transform="translate(-14.6 -15.03)"/><path class="cls-25" d="M76.63,147.76,62.21,133.34v.38l14.14,14.13L67.8,156.4H62.21v.27h5.65a.15.15,0,0,0,.09,0L76.63,148a.13.13,0,0,0,0-.1A.11.11,0,0,0,76.63,147.76Z" transform="translate(-14.6 -15.03)"/><path class="cls-25" d="M85.34,156.53v.05a.13.13,0,0,1-.13.09H67.86a.13.13,0,0,1-.13-.09.12.12,0,0,1,0-.14l8.68-8.68a.13.13,0,0,1,.1,0,.11.11,0,0,1,.09,0l8.68,8.68A.14.14,0,0,1,85.34,156.53Zm-17.16-.13H84.89L76.54,148Z" transform="translate(-14.6 -15.03)"/><path class="cls-25" d="M68,156.48a.13.13,0,0,0-.12-.08H62.21v.27h5.32L62.21,162v.38L68,156.63a.13.13,0,0,0,0-.1A.11.11,0,0,0,68,156.48Z" transform="translate(-14.6 -15.03)"/><path class="cls-25" d="M86.64,137.88v18.65a.13.13,0,0,1-.13.14h-1.3a.15.15,0,0,1-.09,0L76.44,148a.14.14,0,0,1,0-.19l10-10a.14.14,0,0,1,.15,0A.13.13,0,0,1,86.64,137.88Zm-.27,18.52V138.2l-9.64,9.65,8.54,8.55Z" transform="translate(-14.6 -15.03)"/></g><g class="cls-80"><polygon class="cls-81" points="85.96 81.57 85.96 88.52 79.11 95.37 60.46 95.37 60.46 120.98 73.92 107.53 97.5 131.11 147.04 81.57 85.96 81.57"/><polygon class="cls-82" points="142.23 81.57 131.34 92.46 133.75 94.87 147.04 81.57 142.23 81.57"/><polygon class="cls-83" points="60.46 120.98 85.97 95.48 85.97 95.37 60.46 95.37 60.46 120.98"/><polygon class="cls-84" points="85.97 81.57 85.97 95.37 86.08 95.37 99.87 81.57 85.97 81.57"/><polygon class="cls-85" points="85.97 95.48 86.08 95.37 85.97 95.37 85.97 95.48"/><polygon class="cls-86" points="99.87 81.57 86.08 95.37 133.25 95.37 147.04 81.57 99.87 81.57"/><polygon class="cls-87" points="114.64 81.57 128.23 95.16 128.23 81.57 114.64 81.57"/><polygon class="cls-88" points="130.84 97.78 128.23 95.16 128.23 100.39 130.84 97.78"/><polygon class="cls-89" points="127.81 81.57 127.81 100.81 147.04 81.57 127.81 81.57"/><polygon class="cls-90" points="127.13 81.57 113.33 95.37 133.25 95.37 147.04 81.57 127.13 81.57"/><polygon class="cls-91" points="111.03 81.57 111.03 95.37 113.33 95.37 127.13 81.57 111.03 81.57"/><polygon class="cls-92" points="113.33 95.37 111.03 95.37 111.03 97.67 113.33 95.37"/><polygon class="cls-93" points="111.03 97.67 111.03 95.37 85.48 95.37 99.41 109.29 111.03 97.67"/><polygon class="cls-94" points="111.04 117.58 111.03 97.67 99.41 109.29 109.37 119.25 111.04 117.58"/><polygon class="cls-95" points="133.25 95.37 79.11 95.37 70.43 104.05 97.5 131.11 133.25 95.37"/><polygon class="cls-96" points="79.11 95.37 61.76 95.37 70.43 104.05 79.11 95.37"/><polygon class="cls-97" points="92.91 81.57 79.11 95.37 133.25 95.37 147.04 81.57 92.91 81.57"/><polygon class="cls-98" points="60.46 114.02 70.43 104.05 61.76 95.37 60.46 95.37 60.46 114.02"/><path class="cls-25" d="M157,96.6h-.38l-12.93,12.94a.11.11,0,0,0,0,.09.13.13,0,0,0,0,.1l2.4,2.4.19-.18L144,109.63Z" transform="translate(-14.6 -15.03)"/><path class="cls-25" d="M72.79,138.15V112.54a.14.14,0,0,1,.14-.14h25.5a.13.13,0,0,1,.13.14v.11a.11.11,0,0,1,0,.09L73,138.25a.14.14,0,0,1-.15,0A.13.13,0,0,1,72.79,138.15Zm.27-25.48v25.16l25.16-25.16Z" transform="translate(-14.6 -15.03)"/><path class="cls-25" d="M114.29,96.6,98.56,112.32V96.6h-.27v15.94a.13.13,0,0,0,.13.13h.11a.11.11,0,0,0,.09,0l16-16Z" transform="translate(-14.6 -15.03)"/><polygon class="cls-26" points="83.83 97.62 83.94 97.51 83.83 97.51 83.83 97.62"/><path class="cls-25" d="M98.3,112.65v-.11a.13.13,0,0,1,.13-.14h.11a.15.15,0,0,1,.12.08.14.14,0,0,1,0,.15l-.11.11a.12.12,0,0,1-.14,0A.13.13,0,0,1,98.3,112.65Z" transform="translate(-14.6 -15.03)"/><path class="cls-25" d="M114.67,96.6h-.38L98.45,112.44a.14.14,0,0,0,0,.1.07.07,0,0,1,0,0,.14.14,0,0,0,.13.08h47l.27-.27h-47Z" transform="translate(-14.6 -15.03)"/><path class="cls-25" d="M140.56,96.6V112L125.15,96.6h-.38l15.82,15.83a.14.14,0,0,0,.15,0,.13.13,0,0,0,.08-.13V96.6Z" transform="translate(-14.6 -15.03)"/><path class="cls-25" d="M140.82,117.43v-4.77l2.39,2.38.19-.19-2.62-2.61a.12.12,0,0,0-.14,0,.13.13,0,0,0-.08.12v5.36Z" transform="translate(-14.6 -15.03)"/><polygon class="cls-25" points="125.53 81.57 125.53 103.08 125.8 102.81 125.8 81.57 125.53 81.57"/><path class="cls-25" d="M141.92,96.6h-.38L125.7,112.44a.13.13,0,0,0,0,.1.11.11,0,0,0,0,0,.13.13,0,0,0,.12.08h19.79l.27-.27H126.12Z" transform="translate(-14.6 -15.03)"/><path class="cls-25" d="M141.54,96.6l-15.8,15.8h-2.11V96.6h-.27v15.94a.13.13,0,0,0,.14.13h2.29a.13.13,0,0,0,.1,0l16-16Z" transform="translate(-14.6 -15.03)"/><path class="cls-25" d="M123.36,114.84v-2.3a.14.14,0,0,1,.14-.14h2.29a.14.14,0,0,1,.13.09.12.12,0,0,1,0,.14l-2.3,2.3a.14.14,0,0,1-.15,0A.13.13,0,0,1,123.36,114.84Zm.27-2.17v1.84l1.84-1.84Z" transform="translate(-14.6 -15.03)"/><path class="cls-25" d="M97.81,112.54a.43.43,0,0,1,0-.05.14.14,0,0,1,.13-.09H123.5a.13.13,0,0,1,.13.14v2.3a.18.18,0,0,1,0,.09L112,126.56a.18.18,0,0,1-.1,0,.15.15,0,0,1-.09,0L97.85,112.63A.15.15,0,0,1,97.81,112.54Zm25.55.13H98.27l13.6,13.6,11.49-11.49Z" transform="translate(-14.6 -15.03)"/><path class="cls-25" d="M121.93,136.32l-9.87-9.86,11.3-11.3v19.72l.26-.26V114.84a.13.13,0,0,0-.08-.13.14.14,0,0,0-.15,0l-11.62,11.63a.11.11,0,0,0,0,.09.13.13,0,0,0,0,.1l10,9.95Z" transform="translate(-14.6 -15.03)"/><path class="cls-25" d="M110.06,148.19l-27-27,8.54-8.55h54l.27-.27H91.58a.18.18,0,0,0-.1,0l-8.68,8.68a.18.18,0,0,0,0,.1.15.15,0,0,0,0,.09l27.07,27.07Z" transform="translate(-14.6 -15.03)"/><path class="cls-25" d="M74.09,112.54a.07.07,0,0,1,0-.05.14.14,0,0,1,.12-.09H91.58a.14.14,0,0,1,.12.09.12.12,0,0,1,0,.14L83,121.31a.11.11,0,0,1-.09,0,.13.13,0,0,1-.1,0l-8.67-8.68A.11.11,0,0,1,74.09,112.54Zm17.16.13H74.55L82.9,121Z" transform="translate(-14.6 -15.03)"/><path class="cls-25" d="M107.7,96.6h-.38L91.48,112.44a.18.18,0,0,0,0,.1.43.43,0,0,1,0,0,.13.13,0,0,0,.13.08h54l.27-.27H91.9Z" transform="translate(-14.6 -15.03)"/><path class="cls-25" d="M72.79,131.19V112.54a.14.14,0,0,1,.14-.14h1.29a.18.18,0,0,1,.1,0L83,121.12a.14.14,0,0,1,0,.19l-10,10a.14.14,0,0,1-.15,0A.13.13,0,0,1,72.79,131.19Zm.27-18.52v18.2l9.65-9.65-8.54-8.55Z" transform="translate(-14.6 -15.03)"/></g><g id="Layer_1-2" data-name="Layer 1-2"><path class="cls-99" d="M144,166.38c1.08-.77,5.35-1.9,6.05-3.36,1.18-2.44.79-7.39.75-10,0-2.08.74-4.41-.12-5.87-2.22-3.76-6-1.59-8.87-4.46-1.81-1.79-2.93-5.76-2.86-9.24a22.5,22.5,0,0,0-3.29,2.37c1.63,3.7,1.67,3.73,2.2,8.06a22.24,22.24,0,0,0,.77,3.12c2.48-.25,5.21-2.62,8.32-.74a6.94,6.94,0,0,1,2.63,7.4c-.44,1.8-1.41,1.93-.87,3.94a26.07,26.07,0,0,1,.69,3.93l-.07.1a6.78,6.78,0,0,1-4.72,2.8c-2.56-3.27,1.95-7.28.46-9-2.52-3-7.61,2.72-11.71,2.08-1.06-.17-.94-.18-1.72.53a15.49,15.49,0,0,1-2.84,2,22.87,22.87,0,0,0,11.68,13.55C141.23,170.8,141.93,167.81,144,166.38Zm-16.27-12.89c5.94.41,5.15,2.8,9.17.65a16.12,16.12,0,0,1,4.75-1.9c3.6-.63,4.05.74,5.21,1.24a3.35,3.35,0,0,0,.13-3.38c-1.57-3.75-5.33-1.59-8.66-.08-1.74.79-4.54,2.14-6.77,1.62a11.22,11.22,0,0,1-3.56-2.1,23.38,23.38,0,0,0-.27,3.55Zm1.92,2.8a6.4,6.4,0,0,0-1.73-.34c.06.52.15,1,.25,1.56l0,0a3.69,3.69,0,0,0,1.45-1.2Zm-.44-9c3.59,2.9,3.43,2.14,7.22.94l-.94-3.52c-2.12-.06-4.14.58-6.14-.1a21.92,21.92,0,0,0-.73,2.16c.17.16.36.34.59.53Zm1.27-5.08c.86.32.9.48,4.67,0,.08-1.4-.82-3.1-1.42-4.51a23,23,0,0,0-3.25,4.55Zm11-10.07c0,2.92.2,8.88,3.25,9.41.7-3.16,1.57-3.94,1.85-5.05-.71-1-2.85-2.93-3.66-4.92C142.38,131.75,141.9,131.94,141.43,132.14Zm3.87-1.27a9.84,9.84,0,0,0,3,3.67c1.3-.51,2.17-2.44,2.51-4.27h-.3A22.91,22.91,0,0,0,145.3,130.87Zm8-.44c-.07,2.23-1.79,4.53-2.85,5.63-1.51,1.59-3,3-3.33,6.09a8.09,8.09,0,0,1,5.43,3.4c.52-.21,1.78-1.49,2.88-2.11.93-.53,2.37-1.09,3.16-1.62-.24-4.46-4-3.58-4.12-11.22Zm10.89,11c-6,4.81-11,2.34-11,11.83.81-.9.66-2.67,2.56-5.27,4.37-6,10.25-.73,10.28-4.65,0-3.19.52-3.56,1.48-5.53l-.19-.2A11.57,11.57,0,0,1,164.19,141.47Zm-2.55-6.82c-2,2.66-1.33,3.84-.75,5.93,1-.19,2.38-1.58,2.9-2.11a9.41,9.41,0,0,0,1.69-2.61,22.83,22.83,0,0,0-3-2.19C162.3,134,162.08,134.06,161.64,134.65Zm-3.25.81a9.79,9.79,0,0,1,1.88-3,23.48,23.48,0,0,0-3.33-1.26c0,1.48.28,3.59,1.45,4.28ZM168.73,141l-.53,4.48c3.15.16,2.63-.08,3.68-.47A22.29,22.29,0,0,0,169.2,140a9.88,9.88,0,0,0-.47,1.05Zm3.91,6.39c-3.11,1.17-5.6.24-9.14,0-1.93-.12-3.29-.16-4.55.85a6.35,6.35,0,0,0-2.26,3.4c6.46-.44,5.48.41,9.4,3,1.11-.91,1.21-2.18,3.71-3.09a6.74,6.74,0,0,0,3.15-2.67c-.08-.48-.19-.95-.31-1.44Zm-1.88,6.38a4.27,4.27,0,0,0-2.62,2.53c.56,1,2.79,2.08,4.5,2.4a22.73,22.73,0,0,0,.7-5.63c0-.31,0-.61,0-.91a7.73,7.73,0,0,1-2.56,1.61Zm-17.42,12a13.48,13.48,0,0,1-3.18,2.1l-.71.36-.32.14a8.33,8.33,0,0,0-4.69,6.74,23,23,0,0,0,12.45-.08,9.65,9.65,0,0,0-5.2-6.13,6.26,6.26,0,0,0,2-1,13.09,13.09,0,0,0,1.67-1.48c2.66,1.18,4.12,4.13,5.09,7.25a22.89,22.89,0,0,0,11.41-12.52c-5.7-1-8.15-7.34-12.85-7.21a5.48,5.48,0,0,0-3.85,1.55c-3.75,3.71,1.77,6.78-1.85,10.3Z" transform="translate(-14.6 -15.03)"/></g></g></g></svg>