<svg xmlns="http://www.w3.org/2000/svg" xmlns:xlink="http://www.w3.org/1999/xlink" viewBox="0 0 243.5 243.34"><defs><style>.cls-1{fill-rule:evenodd;fill:url(#linear-gradient);}</style><linearGradient id="linear-gradient" x1="33.54" y1="181.04" x2="235.51" y2="45.1" gradientUnits="userSpaceOnUse"><stop offset="0.17" stop-color="#12491d"/><stop offset="0.57" stop-color="#237d26"/><stop offset="1" stop-color="#41aa54"/></linearGradient></defs><title>Asset 4</title><g id="Layer_2" data-name="Layer 2"><g id="Layer_1-2" data-name="Layer 1"><path class="cls-1" d="M86.74,192.53c5.75-4.1,28.51-10.09,32.29-17.9,6.28-13,4.2-39.39,4-53.44-.16-11.06,3.91-23.47-.67-31.25-11.81-20.06-31.8-8.49-47.26-23.78C65.42,56.61,59.46,35.41,59.83,16.9A120.83,120.83,0,0,0,42.29,29.5C51,49.23,51.2,49.39,54,72.46c.79,6.57,2.72,11.16,4.13,16.67,13.23-1.36,27.78-14,44.35-3.93,10.84,6.62,18,23,14,39.45-2.32,9.56-7.49,10.25-4.59,21a136,136,0,0,1,3.64,20.93l-.36.52Q106.67,179.35,90,182.06c-13.67-17.47,10.42-38.8,2.44-48.26C79,117.94,51.89,148.32,30,144.88c-5.63-.89-5-.95-9.13,2.81A83.11,83.11,0,0,1,5.71,158.58,122,122,0,0,0,68,230.84C72.23,216.12,76,200.19,86.74,192.53ZM0,123.83c31.65,2.16,27.46,14.91,48.89,3.48,7.51-4,15.75-8.44,25.34-10.12,19.16-3.36,21.58,3.93,27.79,6.59,4.26-5,2.93-12.57.65-18-8.34-20-28.4-8.52-46.14-.46-9.26,4.2-24.19,11.43-36.1,8.63-5.21-1.23-12.85-6.27-19-11.2A121.94,121.94,0,0,0,0,121.67Zm10.23,14.94A33.43,33.43,0,0,0,1,136.93q.53,4.2,1.34,8.31l.15-.09C6.26,142.8,8,142.1,10.25,138.77Zm-2.34-48c19.14,15.49,18.27,11.39,38.51,5l-5-18.76c-11.3-.31-22.07,3.12-32.76-.53Q6.43,82.12,4.74,88C5.67,88.87,6.69,89.83,7.91,90.82Zm6.77-27.1c4.58,1.73,4.79,2.59,24.89-.13C40,56.05,35.21,47,32,39.46A122.3,122.3,0,0,0,14.68,63.72ZM73.31,10c.24,15.58,1.06,47.35,17.32,50.16,3.75-16.83,8.41-21,9.86-26.89C96.7,27.88,85.3,17.64,81,7,78.37,7.93,75.82,8.93,73.31,10ZM93.93,3.2C97.7,10.9,105,20,110,22.77c6.92-2.71,11.59-13,13.37-22.75l-1.57,0A122.07,122.07,0,0,0,93.93,3.2ZM136.61.9c-.4,11.86-9.57,24.15-15.18,30-8.07,8.48-16,15.92-17.8,32.45,14.32,3,21,8,29,18.15,2.77-1.1,9.49-7.93,15.31-11.23,5-2.84,12.66-5.81,16.89-8.65-1.28-23.78-21.36-19.08-22-59.82Q139.79,1.29,136.61.9Zm58.08,58.82C162.78,85.37,136.07,72.21,136,122.84c4.33-4.81,3.51-14.28,13.66-28.12,23.33-31.83,54.63-3.9,54.8-24.81.13-17,2.78-18.94,7.9-29.46l-1-1.07C208.48,47,199.22,56.08,194.69,59.72ZM181.07,23.4c-10.58,14.14-7.07,20.45-4,31.6,5.39-1,12.71-8.42,15.48-11.25,4.5-4.6,6.16-8.59,9-13.9a122.88,122.88,0,0,0-15.92-11.72C184.6,19.66,183.42,20.26,181.07,23.4Zm-17.31,4.32c2.38-5.9,6-12.07,10-16.11A121.33,121.33,0,0,0,156,4.89C156.1,12.76,157.51,24,163.76,27.72Zm55.1,29.6-2.81,23.89c16.77.88,14-.42,19.64-2.49a121.52,121.52,0,0,0-14.33-27A56.41,56.41,0,0,0,218.86,57.32Zm20.85,34.11c-16.59,6.24-29.83,1.26-48.72,0-10.31-.68-17.56-.89-24.29,4.49-4.34,3.46-10.32,10.16-12,18.16,34.41-2.33,29.21,2.19,50.07,15.71,5.95-4.86,6.5-11.6,19.8-16.47,9.86-3.6,13.48-10.3,16.79-14.24C240.92,96.52,240.35,94,239.71,91.43Zm-10,34c-5.92,2.33-11.39,6.3-14,13.51,3,5.4,14.88,11.07,24,12.75a121.9,121.9,0,0,0,3.74-30c0-1.63,0-3.26-.11-4.87C239.78,119.73,237.3,122.45,229.72,125.45Zm-92.9,63.69c-4.21,4-9.89,7.64-16.93,11.24-1.23.63-2.51,1.25-3.82,1.88l-1.67.78c-15.1,7-22.73,20.34-25,35.94a122.44,122.44,0,0,0,66.33-.44C150.94,224,141.22,211,128,205.82a33.18,33.18,0,0,0,10.85-5.44,71,71,0,0,0,8.92-7.88c14.15,6.3,21.95,22,27.12,38.65a122.13,122.13,0,0,0,60.84-66.75c-30.39-5.15-43.48-39.11-68.52-38.45-8.78.23-15.57,3.35-20.52,8.25C126.71,154,156.13,170.39,136.82,189.14Z"/></g></g></svg>