<?xml version="1.0" encoding="UTF-8"?>
<svg id="Layer_2" data-name="Layer 2" xmlns="http://www.w3.org/2000/svg" width="154.12" height="173.93"
     viewBox="0 0 154.12 173.93">
  <defs>
    <linearGradient id="linear-gradient" x1="0" y1="58.97" x2="154.12" y2="58.97" gradientUnits="userSpaceOnUse">
      <stop offset="0" stop-color="#063526"/>
      <stop offset="1" stop-color="#2e963a"/>
    </linearGradient>
  </defs>
  <g id="Layer_1-2" data-name="Layer 1">
    <g>
      <path d="m110.15,128.34c7.38,0,14.76.12,22.13-.05,3.35-.08,3.75,1.6,3.81,4.34.06,2.86-.85,3.92-3.79,3.89-12.42-.12-24.84-.06-37.25-.01-1.02,0-2.46-.63-3,.61-.67,1.54,1.01,2.1,1.89,2.74,5.86,4.28,12.4,6.86,19.72,6.84,3.02-.01,4.07.85,4.02,4-.05,3.14-.84,4.32-4.18,4.27-10.95-.15-20.27-3.98-28.2-11.49-.99-.94-1.84-2.94-3.42-2.24-1.3.58-.31,2.44-.5,3.71-.46,3.11.91,5.41,3.05,7.49,4.66,4.55,9.17,9.26,13.88,13.74,2.2,2.1,2.14,3.75.1,5.89-2.14,2.24-3.82,2.48-6.08.06-4.11-4.4-8.52-8.51-12.71-12.84-1.85-1.91-3.39-1.94-5.26-.01-4.27,4.41-8.74,8.63-12.94,13.1-2.24,2.38-3.85,1.78-5.79-.27-1.93-2.04-2.4-3.65-.02-5.85,4.59-4.25,8.93-8.77,13.35-13.21,1.21-1.21,2.58-2.35,3.11-4.05.81-2.58,1.59-5.98-.1-7.6-1.33-1.28-3.05,2.02-4.55,3.28-8,6.71-17.01,10.4-27.59,10.27-3.26-.04-3.56-1.68-3.59-4.15-.02-2.47.23-4.16,3.52-4.11,7.16.11,13.71-2.12,19.57-6.27,1.09-.77,2.57-1.52,2.04-3.13-.52-1.58-2.11-.82-3.21-.82-12.05-.04-24.1-.07-36.15.04-2.94.03-4.15-.79-4.16-3.97,0-3.24,1.06-4.29,4.27-4.27,14.39.12,28.77-.04,43.16.12,3.3.04,4.83-1.22,5.85-4.22,6.22-18.28-5.87-38.57-24.93-41.66-1.81-.29-3.58-.75-5.45-.75-4.05,0-4.66-.87-4.45-5.21.17-3.65,2.48-3.51,5.15-3.37,11.44.61,21.04,5.12,28.97,13.32.46.48.86,1.41,1.76.86.75-.46.39-1.34.39-2.02.03-6.64.03-13.28.03-19.92,0-8.12.11-16.23-.02-24.35-.06-3.45,1.39-4.34,4.67-4.36,3.45-.01,4.15,1.54,4.14,4.49-.07,14.26-.05,28.53-.03,42.79,0,1.16-.67,2.81.64,3.33,1.32.53,1.9-1.22,2.72-2.02,8.08-7.93,17.9-11.73,29.07-12.28,2.42-.12,3.92.83,3.84,3.68-.08,2.72.21,5.01-3.79,5.15-16.45.59-28.25,10.1-31.88,25.76-1.38,5.93-.82,11.94,1.22,17.74.8,2.27,2.42,3.05,4.84,3.01,7.38-.12,14.75-.04,22.13-.04h0Z"/>
      <path d="m48.02,117.84c-7.46.2-15.67.3-23.36-3.34C9.63,107.39,1.12,95.87.07,78.96c-1.05-16.99,10.31-33.62,26.07-39.3,2.51-.9,5.09-1.65,7.7-2.19,1.98-.41,2.89-1.33,3.28-3.32C40.66,16.06,51.93,4.78,69.46.94c14.91-3.26,27.87,2.08,38.11,13.56,5.1,5.72,8.13,12.39,9.36,19.91.29,1.75,1.07,2.67,3.02,3.04,17.27,3.26,30.83,16.02,33.56,32.97,2.45,15.17-2.25,29.76-17.15,40.09-7.34,5.09-15.28,7.39-24.06,7.36-5.78-.02-11.56-.06-17.34.03-2.29.03-3.38-.7-3.36-3.16.01-2.3.07-4.24,3.1-4.23,5.66,0,11.32.1,16.97-.07,6.5-.2,12.87-1.09,18.61-4.54,17.17-10.34,21.92-33.67,8.59-49.42-6.29-7.43-14.35-11.15-23.97-11.53-3.24-.13-4.76-1.18-4.96-4.75-.7-12.37-6.02-22.25-17.15-28.22-20.68-11.08-45.21,1.66-48.19,24.87-.97,7.52-.82,7.54-8.4,8.12-15.1,1.14-27.89,15.65-28.72,30.86-.91,16.65,12.61,32.44,29.15,34.11,7.25.73,14.46.32,21.68.5,2.88.07,4.17.79,4.17,3.99,0,3.22-1.39,3.64-4.07,3.46-3.18-.22-6.39-.05-10.36-.05Z" style="fill: url(#linear-gradient);"/>
    </g>
  </g>
</svg>